%TF.GenerationSoftware,KiCad,Pcbnew,8.0.4*%
%TF.CreationDate,2024-08-23T17:35:39+03:00*%
%TF.ProjectId,STM32-Pill,53544d33-322d-4506-996c-6c2e6b696361,rev?*%
%TF.SameCoordinates,Original*%
%TF.FileFunction,Legend,Bot*%
%TF.FilePolarity,Positive*%
%FSLAX46Y46*%
G04 Gerber Fmt 4.6, Leading zero omitted, Abs format (unit mm)*
G04 Created by KiCad (PCBNEW 8.0.4) date 2024-08-23 17:35:39*
%MOMM*%
%LPD*%
G01*
G04 APERTURE LIST*
%ADD10C,0.150000*%
%ADD11C,0.000000*%
G04 APERTURE END LIST*
D10*
G36*
X142527941Y-84396721D02*
G01*
X142150097Y-84388172D01*
X142150097Y-84505897D01*
X142527941Y-84495883D01*
X142527941Y-84396721D01*
G37*
G36*
X142527941Y-84650001D02*
G01*
X142150097Y-84641452D01*
X142150097Y-84759177D01*
X142527941Y-84749163D01*
X142527941Y-84650001D01*
G37*
G36*
X143130000Y-85199547D02*
G01*
X142271730Y-85199547D01*
X142271730Y-84863469D01*
X142150097Y-84863469D01*
X142150097Y-85674111D01*
X142271730Y-85674111D01*
X142271730Y-85338033D01*
X143130000Y-85338033D01*
X143130000Y-85199547D01*
G37*
G36*
X142812148Y-85664311D02*
G01*
X142862431Y-85673744D01*
X142909845Y-85689468D01*
X142954389Y-85711480D01*
X142985332Y-85731627D01*
X143026885Y-85766646D01*
X143062604Y-85807422D01*
X143089455Y-85848500D01*
X143110826Y-85893548D01*
X143126092Y-85941740D01*
X143135251Y-85993077D01*
X143138304Y-86047558D01*
X143135251Y-86101429D01*
X143126092Y-86152399D01*
X143110826Y-86200469D01*
X143089455Y-86245639D01*
X143073231Y-86272039D01*
X143039580Y-86314902D01*
X143000210Y-86351775D01*
X142955122Y-86382659D01*
X142910807Y-86404458D01*
X142863347Y-86420028D01*
X142812743Y-86429371D01*
X142758995Y-86432485D01*
X142704666Y-86429371D01*
X142653787Y-86420028D01*
X142606358Y-86404458D01*
X142562379Y-86382659D01*
X142531876Y-86362735D01*
X142490920Y-86327858D01*
X142455721Y-86286992D01*
X142429267Y-86245639D01*
X142408109Y-86200469D01*
X142392997Y-86152399D01*
X142383929Y-86101429D01*
X142380907Y-86047558D01*
X142498632Y-86047558D01*
X142500174Y-86078059D01*
X142509998Y-86127083D01*
X142530872Y-86175541D01*
X142543872Y-86195932D01*
X142578284Y-86234220D01*
X142621242Y-86264446D01*
X142655541Y-86280031D01*
X142706683Y-86292876D01*
X142758995Y-86296686D01*
X142801608Y-86294136D01*
X142849651Y-86284092D01*
X142896992Y-86264446D01*
X142918295Y-86251497D01*
X142957913Y-86217550D01*
X142988583Y-86175541D01*
X143002688Y-86146293D01*
X143016289Y-86098986D01*
X143020823Y-86047558D01*
X143019280Y-86016997D01*
X143009457Y-85968088D01*
X142988583Y-85920063D01*
X142973181Y-85896657D01*
X142937693Y-85858831D01*
X142896992Y-85830426D01*
X142861982Y-85814251D01*
X142810674Y-85800919D01*
X142758995Y-85796965D01*
X142715808Y-85799612D01*
X142667747Y-85810036D01*
X142621242Y-85830426D01*
X142600353Y-85843847D01*
X142561340Y-85878287D01*
X142530872Y-85920063D01*
X142516767Y-85949006D01*
X142503165Y-85996084D01*
X142498632Y-86047558D01*
X142380907Y-86047558D01*
X142383929Y-85993077D01*
X142392997Y-85941740D01*
X142408109Y-85893548D01*
X142429267Y-85848500D01*
X142448707Y-85817265D01*
X142482762Y-85775209D01*
X142522690Y-85738911D01*
X142563112Y-85711480D01*
X142607320Y-85689468D01*
X142654703Y-85673744D01*
X142705261Y-85664311D01*
X142758995Y-85661166D01*
X142812148Y-85664311D01*
G37*
G36*
X142812148Y-86553354D02*
G01*
X142862431Y-86562788D01*
X142909845Y-86578511D01*
X142954389Y-86600524D01*
X142985332Y-86620671D01*
X143026885Y-86655690D01*
X143062604Y-86696466D01*
X143089455Y-86737544D01*
X143110826Y-86782592D01*
X143126092Y-86830784D01*
X143135251Y-86882121D01*
X143138304Y-86936602D01*
X143135251Y-86990473D01*
X143126092Y-87041443D01*
X143110826Y-87089513D01*
X143089455Y-87134683D01*
X143073231Y-87161083D01*
X143039580Y-87203946D01*
X143000210Y-87240819D01*
X142955122Y-87271703D01*
X142910807Y-87293502D01*
X142863347Y-87309072D01*
X142812743Y-87318415D01*
X142758995Y-87321529D01*
X142704666Y-87318415D01*
X142653787Y-87309072D01*
X142606358Y-87293502D01*
X142562379Y-87271703D01*
X142531876Y-87251779D01*
X142490920Y-87216902D01*
X142455721Y-87176036D01*
X142429267Y-87134683D01*
X142408109Y-87089513D01*
X142392997Y-87041443D01*
X142383929Y-86990473D01*
X142380907Y-86936602D01*
X142498632Y-86936602D01*
X142500174Y-86967103D01*
X142509998Y-87016127D01*
X142530872Y-87064585D01*
X142543872Y-87084976D01*
X142578284Y-87123264D01*
X142621242Y-87153490D01*
X142655541Y-87169074D01*
X142706683Y-87181920D01*
X142758995Y-87185730D01*
X142801608Y-87183180D01*
X142849651Y-87173136D01*
X142896992Y-87153490D01*
X142918295Y-87140541D01*
X142957913Y-87106594D01*
X142988583Y-87064585D01*
X143002688Y-87035337D01*
X143016289Y-86988030D01*
X143020823Y-86936602D01*
X143019280Y-86906041D01*
X143009457Y-86857132D01*
X142988583Y-86809107D01*
X142973181Y-86785701D01*
X142937693Y-86747875D01*
X142896992Y-86719470D01*
X142861982Y-86703295D01*
X142810674Y-86689963D01*
X142758995Y-86686009D01*
X142715808Y-86688656D01*
X142667747Y-86699080D01*
X142621242Y-86719470D01*
X142600353Y-86732891D01*
X142561340Y-86767331D01*
X142530872Y-86809107D01*
X142516767Y-86838050D01*
X142503165Y-86885128D01*
X142498632Y-86936602D01*
X142380907Y-86936602D01*
X142383929Y-86882121D01*
X142392997Y-86830784D01*
X142408109Y-86782592D01*
X142429267Y-86737544D01*
X142448707Y-86706309D01*
X142482762Y-86664253D01*
X142522690Y-86627955D01*
X142563112Y-86600524D01*
X142607320Y-86578511D01*
X142654703Y-86562788D01*
X142705261Y-86553354D01*
X142758995Y-86550210D01*
X142812148Y-86553354D01*
G37*
G36*
X143130000Y-88040824D02*
G01*
X142387990Y-87764830D01*
X142387990Y-87892324D01*
X143059902Y-88137300D01*
X143059902Y-88077216D01*
X142387990Y-88331961D01*
X142387990Y-88445290D01*
X143059902Y-88694418D01*
X143059902Y-88635800D01*
X142387990Y-88886393D01*
X142387990Y-89006804D01*
X143130000Y-88729589D01*
X143130000Y-88600629D01*
X142516706Y-88366888D01*
X142516706Y-88406211D01*
X143130000Y-88169540D01*
X143130000Y-88040824D01*
G37*
G36*
X143138304Y-89451082D02*
G01*
X143135966Y-89400411D01*
X143127570Y-89345849D01*
X143113069Y-89294860D01*
X143092461Y-89247442D01*
X143089455Y-89241766D01*
X143062650Y-89199222D01*
X143031325Y-89161715D01*
X142990685Y-89125542D01*
X142955122Y-89101815D01*
X142910807Y-89080123D01*
X142863347Y-89064629D01*
X142812743Y-89055332D01*
X142758995Y-89052234D01*
X142705261Y-89055241D01*
X142654703Y-89064263D01*
X142607320Y-89079299D01*
X142563112Y-89100349D01*
X142517963Y-89130431D01*
X142478688Y-89166269D01*
X142445286Y-89207865D01*
X142429267Y-89233462D01*
X142405890Y-89282835D01*
X142391533Y-89329577D01*
X142383221Y-89379006D01*
X142380907Y-89424460D01*
X142383883Y-89476850D01*
X142392814Y-89526065D01*
X142409976Y-89577636D01*
X142428534Y-89614969D01*
X142458377Y-89658585D01*
X142494325Y-89696560D01*
X142536378Y-89728893D01*
X142562379Y-89744418D01*
X142607167Y-89764934D01*
X142655558Y-89779589D01*
X142707551Y-89788382D01*
X142763147Y-89791312D01*
X142782930Y-89790580D01*
X142803691Y-89788626D01*
X142803691Y-89157258D01*
X142707215Y-89157258D01*
X142707215Y-89718528D01*
X142740921Y-89664062D01*
X142689446Y-89660478D01*
X142638644Y-89646441D01*
X142613426Y-89634509D01*
X142572012Y-89605675D01*
X142538661Y-89569182D01*
X142525987Y-89549756D01*
X142505587Y-89503155D01*
X142495987Y-89454915D01*
X142494480Y-89424460D01*
X142498910Y-89374199D01*
X142513710Y-89324556D01*
X142525987Y-89299896D01*
X142555739Y-89259552D01*
X142593794Y-89227028D01*
X142614159Y-89214655D01*
X142662859Y-89194730D01*
X142712536Y-89185353D01*
X142743607Y-89183880D01*
X142766078Y-89183880D01*
X142815081Y-89187921D01*
X142864259Y-89201545D01*
X142898213Y-89218074D01*
X142938170Y-89247567D01*
X142970845Y-89284753D01*
X142988583Y-89313818D01*
X143008229Y-89362704D01*
X143018273Y-89411983D01*
X143020823Y-89455479D01*
X143017114Y-89506886D01*
X143004826Y-89557829D01*
X142998353Y-89574913D01*
X142974437Y-89619619D01*
X142942013Y-89659276D01*
X142931186Y-89669679D01*
X143017892Y-89743685D01*
X143055041Y-89706179D01*
X143085552Y-89662844D01*
X143107529Y-89618388D01*
X143123758Y-89569936D01*
X143133976Y-89518001D01*
X143138033Y-89468282D01*
X143138304Y-89451082D01*
G37*
G36*
X143130000Y-90416574D02*
G01*
X142973196Y-90416574D01*
X142943886Y-90409735D01*
X142676441Y-90409735D01*
X142626781Y-90404870D01*
X142577139Y-90386185D01*
X142544061Y-90359910D01*
X142515484Y-90315717D01*
X142501746Y-90268185D01*
X142497212Y-90217086D01*
X142497166Y-90210922D01*
X142500223Y-90161875D01*
X142509394Y-90113652D01*
X142518904Y-90081961D01*
X142538984Y-90034145D01*
X142566019Y-89989773D01*
X142577034Y-89975716D01*
X142476161Y-89919784D01*
X142446994Y-89961958D01*
X142422963Y-90009557D01*
X142405575Y-90057537D01*
X142392566Y-90108652D01*
X142384376Y-90161245D01*
X142381003Y-90215317D01*
X142380907Y-90226309D01*
X142383517Y-90281089D01*
X142391348Y-90330940D01*
X142407083Y-90382871D01*
X142429923Y-90428093D01*
X142455157Y-90461515D01*
X142497182Y-90497632D01*
X142541993Y-90520770D01*
X142594307Y-90536007D01*
X142645120Y-90542779D01*
X142682058Y-90544069D01*
X143130000Y-90544069D01*
X143130000Y-90416574D01*
G37*
G36*
X143138304Y-90173064D02*
G01*
X143135585Y-90123447D01*
X143126312Y-90073442D01*
X143110460Y-90028228D01*
X143086372Y-89985535D01*
X143053454Y-89948354D01*
X143032791Y-89932241D01*
X142986669Y-89909367D01*
X142935498Y-89899302D01*
X142919951Y-89898779D01*
X142869481Y-89904249D01*
X142823219Y-89920658D01*
X142810774Y-89927356D01*
X142771605Y-89959493D01*
X142742014Y-90001725D01*
X142732372Y-90021145D01*
X142715685Y-90071347D01*
X142707185Y-90120407D01*
X142703521Y-90170049D01*
X142703063Y-90197000D01*
X142703063Y-90431961D01*
X142799539Y-90431961D01*
X142799539Y-90202373D01*
X142802205Y-90150948D01*
X142812705Y-90102157D01*
X142833244Y-90066574D01*
X142875371Y-90038333D01*
X142914333Y-90031647D01*
X142963609Y-90042516D01*
X143002016Y-90075123D01*
X143024389Y-90119568D01*
X143033594Y-90167860D01*
X143034745Y-90195534D01*
X143030791Y-90245198D01*
X143017459Y-90294308D01*
X143001284Y-90327670D01*
X142968819Y-90368668D01*
X142926196Y-90399185D01*
X142903098Y-90409735D01*
X142995666Y-90436358D01*
X143041129Y-90410689D01*
X143078968Y-90373618D01*
X143099958Y-90342569D01*
X143120179Y-90297155D01*
X143132911Y-90244871D01*
X143137967Y-90191943D01*
X143138304Y-90173064D01*
G37*
G36*
X142950725Y-90902617D02*
G01*
X142778534Y-90905304D01*
X142387990Y-91332241D01*
X142387990Y-91494662D01*
X142709902Y-91167132D01*
X142771695Y-91094348D01*
X142950725Y-90902617D01*
G37*
G36*
X143130000Y-90793441D02*
G01*
X142091235Y-90793441D01*
X142091235Y-90927774D01*
X143130000Y-90927774D01*
X143130000Y-90793441D01*
G37*
G36*
X143130000Y-91360328D02*
G01*
X142768764Y-91069191D01*
X142661053Y-91155897D01*
X143130000Y-91525437D01*
X143130000Y-91360328D01*
G37*
G36*
X143337117Y-91616539D02*
G01*
X143054284Y-91686393D01*
X143135617Y-91704711D01*
X143123726Y-91655196D01*
X143110460Y-91636811D01*
X143067211Y-91612128D01*
X143041828Y-91609456D01*
X142993317Y-91621237D01*
X142973196Y-91636811D01*
X142949173Y-91679966D01*
X142946573Y-91703245D01*
X142959503Y-91751721D01*
X142973928Y-91768947D01*
X143017776Y-91791867D01*
X143041828Y-91794348D01*
X143069183Y-91792150D01*
X143099958Y-91785067D01*
X143142700Y-91770412D01*
X143337117Y-91704711D01*
X143337117Y-91616539D01*
G37*
G36*
X143130000Y-92363434D02*
G01*
X142091235Y-92363434D01*
X142091235Y-92497767D01*
X143130000Y-92497767D01*
X143130000Y-92363434D01*
G37*
G36*
X143130000Y-92753245D02*
G01*
X142387990Y-92753245D01*
X142387990Y-92887579D01*
X143130000Y-92887579D01*
X143130000Y-92753245D01*
G37*
G36*
X142245108Y-92820412D02*
G01*
X142233217Y-92772692D01*
X142219951Y-92755199D01*
X142175895Y-92730928D01*
X142158401Y-92729310D01*
X142110542Y-92742684D01*
X142095387Y-92755199D01*
X142072220Y-92799356D01*
X142070230Y-92820412D01*
X142081774Y-92867912D01*
X142094654Y-92885381D01*
X142138160Y-92909652D01*
X142155715Y-92911271D01*
X142203728Y-92898274D01*
X142219218Y-92886114D01*
X142243060Y-92842001D01*
X142245108Y-92820412D01*
G37*
G36*
X143138304Y-93397802D02*
G01*
X143134549Y-93344908D01*
X143121347Y-93292957D01*
X143098639Y-93249004D01*
X143078220Y-93224146D01*
X143035482Y-93191688D01*
X142988412Y-93172754D01*
X142939728Y-93164099D01*
X142906029Y-93162596D01*
X142225568Y-93162596D01*
X142225568Y-93296930D01*
X142900411Y-93296930D01*
X142950622Y-93303531D01*
X142992735Y-93326972D01*
X143018804Y-93369158D01*
X143024975Y-93413190D01*
X143018290Y-93464307D01*
X142996290Y-93510153D01*
X142990048Y-93518214D01*
X143086524Y-93560224D01*
X143114364Y-93517081D01*
X143125847Y-93486707D01*
X143135920Y-93437539D01*
X143138304Y-93397802D01*
G37*
G36*
X142498632Y-93036567D02*
G01*
X142387990Y-93036567D01*
X142387990Y-93509666D01*
X142498632Y-93509666D01*
X142498632Y-93036567D01*
G37*
G36*
X143138304Y-93958584D02*
G01*
X143134549Y-93905690D01*
X143121347Y-93853739D01*
X143098639Y-93809786D01*
X143078220Y-93784927D01*
X143035482Y-93752470D01*
X142988412Y-93733536D01*
X142939728Y-93724881D01*
X142906029Y-93723378D01*
X142225568Y-93723378D01*
X142225568Y-93857712D01*
X142900411Y-93857712D01*
X142950622Y-93864313D01*
X142992735Y-93887753D01*
X143018804Y-93929940D01*
X143024975Y-93973971D01*
X143018290Y-94025089D01*
X142996290Y-94070934D01*
X142990048Y-94078996D01*
X143086524Y-94121005D01*
X143114364Y-94077862D01*
X143125847Y-94047488D01*
X143135920Y-93998321D01*
X143138304Y-93958584D01*
G37*
G36*
X142498632Y-93597349D02*
G01*
X142387990Y-93597349D01*
X142387990Y-94070447D01*
X142498632Y-94070447D01*
X142498632Y-93597349D01*
G37*
G36*
X143130000Y-94283183D02*
G01*
X142091235Y-94283183D01*
X142091235Y-94417516D01*
X143130000Y-94417516D01*
X143130000Y-94283183D01*
G37*
G36*
X143138304Y-95003211D02*
G01*
X143135966Y-94952539D01*
X143127570Y-94897977D01*
X143113069Y-94846988D01*
X143092461Y-94799570D01*
X143089455Y-94793894D01*
X143062650Y-94751350D01*
X143031325Y-94713844D01*
X142990685Y-94677670D01*
X142955122Y-94653943D01*
X142910807Y-94632251D01*
X142863347Y-94616757D01*
X142812743Y-94607461D01*
X142758995Y-94604362D01*
X142705261Y-94607369D01*
X142654703Y-94616391D01*
X142607320Y-94631427D01*
X142563112Y-94652478D01*
X142517963Y-94682559D01*
X142478688Y-94718398D01*
X142445286Y-94759994D01*
X142429267Y-94785590D01*
X142405890Y-94834963D01*
X142391533Y-94881705D01*
X142383221Y-94931134D01*
X142380907Y-94976588D01*
X142383883Y-95028978D01*
X142392814Y-95078193D01*
X142409976Y-95129765D01*
X142428534Y-95167097D01*
X142458377Y-95210713D01*
X142494325Y-95248688D01*
X142536378Y-95281021D01*
X142562379Y-95296546D01*
X142607167Y-95317063D01*
X142655558Y-95331717D01*
X142707551Y-95340510D01*
X142763147Y-95343441D01*
X142782930Y-95342708D01*
X142803691Y-95340754D01*
X142803691Y-94709386D01*
X142707215Y-94709386D01*
X142707215Y-95270656D01*
X142740921Y-95216190D01*
X142689446Y-95212607D01*
X142638644Y-95198570D01*
X142613426Y-95186637D01*
X142572012Y-95157803D01*
X142538661Y-95121311D01*
X142525987Y-95101885D01*
X142505587Y-95055284D01*
X142495987Y-95007044D01*
X142494480Y-94976588D01*
X142498910Y-94926327D01*
X142513710Y-94876685D01*
X142525987Y-94852024D01*
X142555739Y-94811681D01*
X142593794Y-94779157D01*
X142614159Y-94766783D01*
X142662859Y-94746858D01*
X142712536Y-94737481D01*
X142743607Y-94736009D01*
X142766078Y-94736009D01*
X142815081Y-94740049D01*
X142864259Y-94753674D01*
X142898213Y-94770203D01*
X142938170Y-94799695D01*
X142970845Y-94836881D01*
X142988583Y-94865946D01*
X143008229Y-94914833D01*
X143018273Y-94964111D01*
X143020823Y-95007607D01*
X143017114Y-95059014D01*
X143004826Y-95109958D01*
X142998353Y-95127042D01*
X142974437Y-95171748D01*
X142942013Y-95211405D01*
X142931186Y-95221808D01*
X143017892Y-95295813D01*
X143055041Y-95258308D01*
X143085552Y-95214972D01*
X143107529Y-95170517D01*
X143123758Y-95122064D01*
X143133976Y-95070129D01*
X143138033Y-95020410D01*
X143138304Y-95003211D01*
G37*
G36*
X142778421Y-95839043D02*
G01*
X142827652Y-95846790D01*
X142879313Y-95862914D01*
X142927034Y-95886881D01*
X142951509Y-95903298D01*
X142991208Y-95937117D01*
X143025303Y-95976422D01*
X143053796Y-96021215D01*
X143071497Y-96059404D01*
X143087868Y-96111768D01*
X143096386Y-96161395D01*
X143099225Y-96213922D01*
X143098253Y-96243208D01*
X143091605Y-96293878D01*
X143078658Y-96341920D01*
X143059413Y-96387335D01*
X143048781Y-96406443D01*
X143016791Y-96449906D01*
X142984150Y-96481124D01*
X143043293Y-96481124D01*
X143088204Y-96478960D01*
X143141060Y-96469343D01*
X143190925Y-96449328D01*
X143230628Y-96419575D01*
X143257662Y-96384419D01*
X143278843Y-96334395D01*
X143289464Y-96280620D01*
X143292421Y-96226379D01*
X143292320Y-96216086D01*
X143288780Y-96165425D01*
X143280184Y-96116099D01*
X143266531Y-96068109D01*
X143250461Y-96027531D01*
X143226727Y-95983025D01*
X143195701Y-95940859D01*
X143299504Y-95876379D01*
X143312373Y-95892014D01*
X143341205Y-95935944D01*
X143363075Y-95981396D01*
X143381081Y-96032450D01*
X143393690Y-96080825D01*
X143402697Y-96129964D01*
X143408101Y-96179866D01*
X143409902Y-96230531D01*
X143408459Y-96276368D01*
X143402599Y-96329662D01*
X143392230Y-96378507D01*
X143373838Y-96431249D01*
X143348954Y-96477585D01*
X143317578Y-96517516D01*
X143286193Y-96545802D01*
X143241840Y-96573417D01*
X143190188Y-96594128D01*
X143141570Y-96606113D01*
X143087883Y-96613305D01*
X143029127Y-96615702D01*
X142387990Y-96615702D01*
X142387990Y-96488207D01*
X142503485Y-96488207D01*
X142483859Y-96473030D01*
X142447647Y-96433259D01*
X142419497Y-96387335D01*
X142408380Y-96362429D01*
X142393117Y-96315554D01*
X142383959Y-96266052D01*
X142381808Y-96229310D01*
X142498632Y-96229310D01*
X142500509Y-96265274D01*
X142510367Y-96315329D01*
X142528674Y-96360712D01*
X142540807Y-96381452D01*
X142573045Y-96420379D01*
X142613426Y-96451082D01*
X142638073Y-96463930D01*
X142688187Y-96479418D01*
X142739455Y-96484055D01*
X142769862Y-96482477D01*
X142818291Y-96472431D01*
X142865484Y-96451082D01*
X142885076Y-96437933D01*
X142921811Y-96403434D01*
X142950725Y-96360712D01*
X142965602Y-96327113D01*
X142977863Y-96278226D01*
X142981500Y-96229310D01*
X142979576Y-96193192D01*
X142969479Y-96142794D01*
X142950725Y-96096930D01*
X142938352Y-96076016D01*
X142905828Y-96036770D01*
X142865484Y-96005827D01*
X142840754Y-95993075D01*
X142790609Y-95977701D01*
X142739455Y-95973099D01*
X142708964Y-95974665D01*
X142660501Y-95984637D01*
X142613426Y-96005827D01*
X142593777Y-96019077D01*
X142557154Y-96053851D01*
X142528674Y-96096930D01*
X142514151Y-96130903D01*
X142502182Y-96180168D01*
X142498632Y-96229310D01*
X142381808Y-96229310D01*
X142380907Y-96213922D01*
X142383057Y-96167802D01*
X142390781Y-96117813D01*
X142404123Y-96070723D01*
X142425847Y-96021215D01*
X142440692Y-95995653D01*
X142471829Y-95953909D01*
X142508646Y-95917651D01*
X142551144Y-95886881D01*
X142587620Y-95867562D01*
X142638400Y-95849695D01*
X142687202Y-95840399D01*
X142739455Y-95837300D01*
X142778421Y-95839043D01*
G37*
G36*
X142380907Y-97267342D02*
G01*
X142383689Y-97316749D01*
X142393306Y-97367659D01*
X142409792Y-97414370D01*
X142416078Y-97427565D01*
X142444419Y-97471675D01*
X142481418Y-97508627D01*
X142522568Y-97536009D01*
X142570839Y-97556746D01*
X142620605Y-97568842D01*
X142669870Y-97574372D01*
X142703063Y-97575332D01*
X143130000Y-97575332D01*
X143130000Y-97440998D01*
X142718450Y-97440998D01*
X142667816Y-97437716D01*
X142618844Y-97426178D01*
X142574355Y-97403614D01*
X142556029Y-97388486D01*
X142524880Y-97347333D01*
X142507783Y-97301156D01*
X142501532Y-97252459D01*
X142501318Y-97240719D01*
X142505268Y-97189772D01*
X142518462Y-97140315D01*
X142529406Y-97116155D01*
X142559079Y-97074241D01*
X142598943Y-97041677D01*
X142612205Y-97034090D01*
X142660852Y-97015588D01*
X142713557Y-97006881D01*
X142747759Y-97005513D01*
X143130000Y-97005513D01*
X143130000Y-96871180D01*
X142091235Y-96871180D01*
X142091235Y-97005513D01*
X142588269Y-97005513D01*
X142535024Y-96978891D01*
X142492682Y-97005452D01*
X142456637Y-97039646D01*
X142426889Y-97081473D01*
X142421695Y-97090754D01*
X142400186Y-97140533D01*
X142387638Y-97189535D01*
X142381544Y-97242517D01*
X142380907Y-97267342D01*
G37*
G36*
X142812148Y-97758239D02*
G01*
X142862431Y-97767673D01*
X142909845Y-97783396D01*
X142954389Y-97805409D01*
X142985332Y-97825556D01*
X143026885Y-97860574D01*
X143062604Y-97901350D01*
X143089455Y-97942429D01*
X143110826Y-97987477D01*
X143126092Y-98035669D01*
X143135251Y-98087005D01*
X143138304Y-98141487D01*
X143135251Y-98195358D01*
X143126092Y-98246328D01*
X143110826Y-98294398D01*
X143089455Y-98339568D01*
X143073231Y-98365968D01*
X143039580Y-98408831D01*
X143000210Y-98445704D01*
X142955122Y-98476588D01*
X142910807Y-98498387D01*
X142863347Y-98513957D01*
X142812743Y-98523300D01*
X142758995Y-98526414D01*
X142704666Y-98523300D01*
X142653787Y-98513957D01*
X142606358Y-98498387D01*
X142562379Y-98476588D01*
X142531876Y-98456664D01*
X142490920Y-98421787D01*
X142455721Y-98380921D01*
X142429267Y-98339568D01*
X142408109Y-98294398D01*
X142392997Y-98246328D01*
X142383929Y-98195358D01*
X142380907Y-98141487D01*
X142498632Y-98141487D01*
X142500174Y-98171988D01*
X142509998Y-98221012D01*
X142530872Y-98269470D01*
X142543872Y-98289861D01*
X142578284Y-98328149D01*
X142621242Y-98358375D01*
X142655541Y-98373959D01*
X142706683Y-98386805D01*
X142758995Y-98390615D01*
X142801608Y-98388064D01*
X142849651Y-98378021D01*
X142896992Y-98358375D01*
X142918295Y-98345426D01*
X142957913Y-98311479D01*
X142988583Y-98269470D01*
X143002688Y-98240222D01*
X143016289Y-98192915D01*
X143020823Y-98141487D01*
X143019280Y-98110926D01*
X143009457Y-98062016D01*
X142988583Y-98013992D01*
X142973181Y-97990586D01*
X142937693Y-97952760D01*
X142896992Y-97924355D01*
X142861982Y-97908180D01*
X142810674Y-97894848D01*
X142758995Y-97890894D01*
X142715808Y-97893541D01*
X142667747Y-97903965D01*
X142621242Y-97924355D01*
X142600353Y-97937776D01*
X142561340Y-97972216D01*
X142530872Y-98013992D01*
X142516767Y-98042935D01*
X142503165Y-98090013D01*
X142498632Y-98141487D01*
X142380907Y-98141487D01*
X142383929Y-98087005D01*
X142392997Y-98035669D01*
X142408109Y-97987477D01*
X142429267Y-97942429D01*
X142448707Y-97911194D01*
X142482762Y-97869138D01*
X142522690Y-97832840D01*
X142563112Y-97805409D01*
X142607320Y-97783396D01*
X142654703Y-97767673D01*
X142705261Y-97758239D01*
X142758995Y-97755095D01*
X142812148Y-97758239D01*
G37*
G36*
X143138304Y-98925506D02*
G01*
X143136314Y-98874270D01*
X143130344Y-98824424D01*
X143120394Y-98775970D01*
X143113147Y-98749652D01*
X143096326Y-98701104D01*
X143075290Y-98655800D01*
X143051598Y-98618982D01*
X142945108Y-98674913D01*
X142969690Y-98717279D01*
X142989520Y-98762897D01*
X142999818Y-98792394D01*
X143012611Y-98840904D01*
X143020094Y-98890048D01*
X143022288Y-98935276D01*
X143019689Y-98988766D01*
X143009705Y-99039416D01*
X142995666Y-99070342D01*
X142959070Y-99103719D01*
X142921416Y-99111619D01*
X142874818Y-99095012D01*
X142866950Y-99086462D01*
X142843684Y-99041972D01*
X142837397Y-99020028D01*
X142827101Y-98970655D01*
X142820055Y-98928193D01*
X142811202Y-98877818D01*
X142800272Y-98827321D01*
X142785922Y-98779083D01*
X142766810Y-98734997D01*
X142737023Y-98693068D01*
X142706482Y-98667830D01*
X142658242Y-98648201D01*
X142607646Y-98642698D01*
X142603656Y-98642673D01*
X142551865Y-98648921D01*
X142505636Y-98667665D01*
X142486175Y-98680531D01*
X142448926Y-98716450D01*
X142421340Y-98758765D01*
X142408262Y-98787509D01*
X142392688Y-98838257D01*
X142384139Y-98889701D01*
X142381014Y-98940323D01*
X142380907Y-98952129D01*
X142382985Y-99002399D01*
X142389219Y-99053131D01*
X142398492Y-99099652D01*
X142412314Y-99147970D01*
X142431342Y-99193307D01*
X142448318Y-99222261D01*
X142554563Y-99164864D01*
X142529258Y-99119998D01*
X142511901Y-99073449D01*
X142508401Y-99059840D01*
X142499285Y-99008724D01*
X142495750Y-98957501D01*
X142495701Y-98950663D01*
X142498515Y-98899921D01*
X142509323Y-98850553D01*
X142524521Y-98819017D01*
X142561848Y-98784060D01*
X142598039Y-98775786D01*
X142644933Y-98790349D01*
X142656168Y-98801675D01*
X142679771Y-98844547D01*
X142687676Y-98868842D01*
X142699233Y-98918138D01*
X142706727Y-98960433D01*
X142715397Y-99010930D01*
X142726266Y-99061305D01*
X142740310Y-99109360D01*
X142758995Y-99152897D01*
X142787957Y-99194465D01*
X142817857Y-99220063D01*
X142865112Y-99240455D01*
X142914586Y-99246172D01*
X142918485Y-99246197D01*
X142970233Y-99239707D01*
X143015935Y-99220238D01*
X143034989Y-99206874D01*
X143071131Y-99169761D01*
X143098196Y-99125987D01*
X143111193Y-99096232D01*
X143125490Y-99048915D01*
X143134491Y-98996112D01*
X143138065Y-98943898D01*
X143138304Y-98925506D01*
G37*
G36*
X143138304Y-99668982D02*
G01*
X143134549Y-99616088D01*
X143121347Y-99564136D01*
X143098639Y-99520183D01*
X143078220Y-99495325D01*
X143035482Y-99462867D01*
X142988412Y-99443934D01*
X142939728Y-99435278D01*
X142906029Y-99433776D01*
X142225568Y-99433776D01*
X142225568Y-99568109D01*
X142900411Y-99568109D01*
X142950622Y-99574710D01*
X142992735Y-99598151D01*
X143018804Y-99640338D01*
X143024975Y-99684369D01*
X143018290Y-99735486D01*
X142996290Y-99781332D01*
X142990048Y-99789393D01*
X143086524Y-99831403D01*
X143114364Y-99788260D01*
X143125847Y-99757886D01*
X143135920Y-99708719D01*
X143138304Y-99668982D01*
G37*
G36*
X142498632Y-99307746D02*
G01*
X142387990Y-99307746D01*
X142387990Y-99780845D01*
X142498632Y-99780845D01*
X142498632Y-99307746D01*
G37*
G36*
X143138304Y-100039254D02*
G01*
X143125490Y-99990715D01*
X143111193Y-99972087D01*
X143066653Y-99946962D01*
X143041828Y-99944243D01*
X142993317Y-99956235D01*
X142973196Y-99972087D01*
X142949173Y-100015903D01*
X142946573Y-100039254D01*
X142960326Y-100088249D01*
X142973196Y-100104467D01*
X143017074Y-100129150D01*
X143041828Y-100131822D01*
X143090654Y-100120041D01*
X143111193Y-100104467D01*
X143135656Y-100061889D01*
X143138304Y-100039254D01*
G37*
G36*
X143138304Y-100356770D02*
G01*
X143125490Y-100308231D01*
X143111193Y-100289603D01*
X143066653Y-100264478D01*
X143041828Y-100261759D01*
X142993317Y-100273750D01*
X142973196Y-100289603D01*
X142949173Y-100333419D01*
X142946573Y-100356770D01*
X142960326Y-100405764D01*
X142973196Y-100421982D01*
X143017074Y-100446666D01*
X143041828Y-100449338D01*
X143090654Y-100437557D01*
X143111193Y-100421982D01*
X143135656Y-100379405D01*
X143138304Y-100356770D01*
G37*
G36*
X143138304Y-100674285D02*
G01*
X143125490Y-100625747D01*
X143111193Y-100607118D01*
X143066653Y-100581994D01*
X143041828Y-100579275D01*
X142993317Y-100591266D01*
X142973196Y-100607118D01*
X142949173Y-100650934D01*
X142946573Y-100674285D01*
X142960326Y-100723280D01*
X142973196Y-100739498D01*
X143017074Y-100764182D01*
X143041828Y-100766853D01*
X143090654Y-100755072D01*
X143111193Y-100739498D01*
X143135656Y-100696921D01*
X143138304Y-100674285D01*
G37*
G36*
X142527941Y-100851850D02*
G01*
X142150097Y-100843301D01*
X142150097Y-100961026D01*
X142527941Y-100951012D01*
X142527941Y-100851850D01*
G37*
G36*
X142527941Y-101105130D02*
G01*
X142150097Y-101096581D01*
X142150097Y-101214306D01*
X142527941Y-101204292D01*
X142527941Y-101105130D01*
G37*
D11*
%TO.C,G\u002A\u002A\u002A*%
G36*
X136604340Y-89907770D02*
G01*
X136791514Y-89910482D01*
X136969206Y-89915470D01*
X137130028Y-89922689D01*
X137266598Y-89932092D01*
X137371534Y-89943635D01*
X137553590Y-89971215D01*
X137713849Y-89998354D01*
X137856654Y-90026231D01*
X137992914Y-90056984D01*
X138133538Y-90092745D01*
X138498372Y-90203354D01*
X138889794Y-90355503D01*
X138960264Y-90390125D01*
X139255350Y-90535101D01*
X139594252Y-90741550D01*
X139905708Y-90974253D01*
X140188929Y-91232612D01*
X140443124Y-91516029D01*
X140667503Y-91823907D01*
X140861277Y-92155648D01*
X140888517Y-92208537D01*
X140953330Y-92339320D01*
X141001345Y-92446075D01*
X141035259Y-92535665D01*
X141057769Y-92614958D01*
X141071573Y-92690816D01*
X141077513Y-92744847D01*
X141079547Y-92839003D01*
X141068620Y-92932869D01*
X141042872Y-93032926D01*
X141000445Y-93145655D01*
X140939478Y-93277540D01*
X140858114Y-93435062D01*
X140829662Y-93487981D01*
X140752335Y-93627192D01*
X140682375Y-93744159D01*
X140613264Y-93848935D01*
X140538489Y-93951568D01*
X140451533Y-94062107D01*
X140381684Y-94146122D01*
X140119292Y-94423762D01*
X139829325Y-94675162D01*
X139510902Y-94900962D01*
X139163149Y-95101802D01*
X138785188Y-95278323D01*
X138697210Y-95314086D01*
X138293644Y-95453323D01*
X137870135Y-95560947D01*
X137429047Y-95637029D01*
X136972751Y-95681642D01*
X136503615Y-95694857D01*
X136024007Y-95676748D01*
X135536294Y-95627386D01*
X135042844Y-95546843D01*
X134546029Y-95435191D01*
X134048212Y-95292503D01*
X133551764Y-95118851D01*
X133528877Y-95110062D01*
X133319366Y-95025761D01*
X133105990Y-94933466D01*
X132891818Y-94834955D01*
X132679920Y-94732006D01*
X132473363Y-94626397D01*
X132372333Y-94572100D01*
X138773094Y-94572100D01*
X138798949Y-94641530D01*
X138802315Y-94645925D01*
X138851209Y-94675146D01*
X138931422Y-94685077D01*
X139040531Y-94675686D01*
X139176116Y-94646936D01*
X139253617Y-94625075D01*
X139471068Y-94545361D01*
X139679361Y-94442859D01*
X139873508Y-94321318D01*
X140048525Y-94184487D01*
X140199423Y-94036118D01*
X140321218Y-93879960D01*
X140408923Y-93719763D01*
X140414479Y-93706293D01*
X140444656Y-93594066D01*
X140446945Y-93487235D01*
X140422948Y-93392613D01*
X140374266Y-93317011D01*
X140302503Y-93267241D01*
X140279092Y-93258665D01*
X140172370Y-93242993D01*
X140043567Y-93257055D01*
X139891792Y-93301017D01*
X139716149Y-93375043D01*
X139694004Y-93385676D01*
X139567733Y-93452976D01*
X139454921Y-93527350D01*
X139343838Y-93617266D01*
X139222754Y-93731191D01*
X139106036Y-93857259D01*
X139003020Y-93989184D01*
X138916193Y-94122055D01*
X138847672Y-94251325D01*
X138799571Y-94372453D01*
X138774007Y-94480892D01*
X138773094Y-94572100D01*
X132372333Y-94572100D01*
X132275218Y-94519907D01*
X132088553Y-94414313D01*
X131916437Y-94311394D01*
X131761940Y-94212929D01*
X131628129Y-94120694D01*
X131518075Y-94036469D01*
X131434847Y-93962031D01*
X131381513Y-93899158D01*
X131361142Y-93849629D01*
X131360453Y-93798965D01*
X131373888Y-93754095D01*
X131410830Y-93726330D01*
X131479045Y-93706225D01*
X131500718Y-93702168D01*
X131568750Y-93697975D01*
X131653564Y-93704484D01*
X131760108Y-93722460D01*
X131893327Y-93752670D01*
X132058171Y-93795879D01*
X132207309Y-93834378D01*
X132434757Y-93886349D01*
X132678329Y-93935430D01*
X132924814Y-93979002D01*
X133160995Y-94014447D01*
X133207541Y-94020168D01*
X133356351Y-94033444D01*
X133530055Y-94043213D01*
X133720673Y-94049480D01*
X133920230Y-94052247D01*
X134120751Y-94051518D01*
X134314256Y-94047298D01*
X134492771Y-94039588D01*
X134648316Y-94028394D01*
X134772918Y-94013718D01*
X135007483Y-93971765D01*
X135290625Y-93904619D01*
X135552551Y-93823542D01*
X135787624Y-93730326D01*
X135990205Y-93626761D01*
X136021354Y-93606971D01*
X136101065Y-93546967D01*
X136188728Y-93471224D01*
X136276433Y-93387489D01*
X136356272Y-93303511D01*
X136420337Y-93227035D01*
X136460717Y-93165811D01*
X136466034Y-93155184D01*
X136529453Y-92986684D01*
X136554166Y-92818656D01*
X136540499Y-92652809D01*
X136488782Y-92490846D01*
X136399340Y-92334471D01*
X136272501Y-92185390D01*
X136171439Y-92094585D01*
X135983988Y-91963847D01*
X135762235Y-91848655D01*
X135505708Y-91748808D01*
X135213935Y-91664108D01*
X134886444Y-91594350D01*
X134824207Y-91583475D01*
X134756861Y-91573080D01*
X134690442Y-91565006D01*
X134619235Y-91558963D01*
X134537527Y-91554662D01*
X134439602Y-91551815D01*
X134319746Y-91550132D01*
X134172243Y-91549325D01*
X133991380Y-91549105D01*
X133923739Y-91549140D01*
X133740270Y-91549845D01*
X133588119Y-91551633D01*
X133461443Y-91554738D01*
X133354398Y-91559393D01*
X133261140Y-91565832D01*
X133175824Y-91574288D01*
X133092611Y-91584995D01*
X133033084Y-91593735D01*
X132853254Y-91623209D01*
X132662460Y-91658343D01*
X132470655Y-91697071D01*
X132287789Y-91737328D01*
X132123816Y-91777049D01*
X131988687Y-91814166D01*
X131943353Y-91827110D01*
X131810616Y-91858274D01*
X131684663Y-91878558D01*
X131572951Y-91887264D01*
X131482935Y-91883696D01*
X131422072Y-91867155D01*
X131391391Y-91843587D01*
X131367484Y-91790763D01*
X131375723Y-91725210D01*
X131416272Y-91653036D01*
X131447563Y-91616605D01*
X131499019Y-91567925D01*
X131567909Y-91513145D01*
X131658470Y-91449144D01*
X131774938Y-91372806D01*
X131921549Y-91281010D01*
X132327874Y-91043806D01*
X138794067Y-91043806D01*
X138794896Y-91132705D01*
X138819364Y-91240288D01*
X138866678Y-91360743D01*
X138951138Y-91518502D01*
X139090280Y-91717336D01*
X139254510Y-91897817D01*
X139438834Y-92055802D01*
X139638259Y-92187141D01*
X139847792Y-92287694D01*
X140062440Y-92353317D01*
X140172369Y-92368894D01*
X140185816Y-92370799D01*
X140285916Y-92362714D01*
X140363945Y-92327498D01*
X140423833Y-92264181D01*
X140441491Y-92234203D01*
X140462368Y-92170418D01*
X140468379Y-92086075D01*
X140451469Y-91966415D01*
X140400103Y-91835747D01*
X140317931Y-91702361D01*
X140208634Y-91569483D01*
X140075893Y-91440347D01*
X139923391Y-91318182D01*
X139754807Y-91206219D01*
X139573825Y-91107687D01*
X139384127Y-91025817D01*
X139189390Y-90963840D01*
X139141225Y-90953199D01*
X139046215Y-90939095D01*
X138960263Y-90933570D01*
X138920319Y-90934100D01*
X138869678Y-90939567D01*
X138838791Y-90954459D01*
X138815181Y-90983030D01*
X138794067Y-91043806D01*
X132327874Y-91043806D01*
X132350127Y-91030815D01*
X132889458Y-90754904D01*
X133438469Y-90516652D01*
X133998085Y-90315733D01*
X134569235Y-90151820D01*
X135152846Y-90024587D01*
X135749841Y-89933709D01*
X135784664Y-89929921D01*
X135908492Y-89920578D01*
X136059758Y-89913737D01*
X136231078Y-89909352D01*
X136415066Y-89907378D01*
X136604340Y-89907770D01*
G37*
%TD*%
M02*
