%TF.GenerationSoftware,KiCad,Pcbnew,8.0.4*%
%TF.CreationDate,2024-08-23T17:35:39+03:00*%
%TF.ProjectId,STM32-Pill,53544d33-322d-4506-996c-6c2e6b696361,rev?*%
%TF.SameCoordinates,Original*%
%TF.FileFunction,Copper,L1,Top*%
%TF.FilePolarity,Positive*%
%FSLAX46Y46*%
G04 Gerber Fmt 4.6, Leading zero omitted, Abs format (unit mm)*
G04 Created by KiCad (PCBNEW 8.0.4) date 2024-08-23 17:35:39*
%MOMM*%
%LPD*%
G01*
G04 APERTURE LIST*
G04 Aperture macros list*
%AMRoundRect*
0 Rectangle with rounded corners*
0 $1 Rounding radius*
0 $2 $3 $4 $5 $6 $7 $8 $9 X,Y pos of 4 corners*
0 Add a 4 corners polygon primitive as box body*
4,1,4,$2,$3,$4,$5,$6,$7,$8,$9,$2,$3,0*
0 Add four circle primitives for the rounded corners*
1,1,$1+$1,$2,$3*
1,1,$1+$1,$4,$5*
1,1,$1+$1,$6,$7*
1,1,$1+$1,$8,$9*
0 Add four rect primitives between the rounded corners*
20,1,$1+$1,$2,$3,$4,$5,0*
20,1,$1+$1,$4,$5,$6,$7,0*
20,1,$1+$1,$6,$7,$8,$9,0*
20,1,$1+$1,$8,$9,$2,$3,0*%
G04 Aperture macros list end*
%TA.AperFunction,SMDPad,CuDef*%
%ADD10RoundRect,0.250000X0.262500X0.450000X-0.262500X0.450000X-0.262500X-0.450000X0.262500X-0.450000X0*%
%TD*%
%TA.AperFunction,SMDPad,CuDef*%
%ADD11R,1.500000X1.500000*%
%TD*%
%TA.AperFunction,SMDPad,CuDef*%
%ADD12RoundRect,0.250000X-0.262500X-0.450000X0.262500X-0.450000X0.262500X0.450000X-0.262500X0.450000X0*%
%TD*%
%TA.AperFunction,SMDPad,CuDef*%
%ADD13RoundRect,0.250000X-0.250000X-0.475000X0.250000X-0.475000X0.250000X0.475000X-0.250000X0.475000X0*%
%TD*%
%TA.AperFunction,SMDPad,CuDef*%
%ADD14RoundRect,0.250000X-0.475000X0.250000X-0.475000X-0.250000X0.475000X-0.250000X0.475000X0.250000X0*%
%TD*%
%TA.AperFunction,SMDPad,CuDef*%
%ADD15RoundRect,0.250000X0.450000X-0.262500X0.450000X0.262500X-0.450000X0.262500X-0.450000X-0.262500X0*%
%TD*%
%TA.AperFunction,SMDPad,CuDef*%
%ADD16RoundRect,0.250000X0.250000X0.475000X-0.250000X0.475000X-0.250000X-0.475000X0.250000X-0.475000X0*%
%TD*%
%TA.AperFunction,SMDPad,CuDef*%
%ADD17R,5.600000X5.600000*%
%TD*%
%TA.AperFunction,SMDPad,CuDef*%
%ADD18RoundRect,0.033750X0.401250X-0.101250X0.401250X0.101250X-0.401250X0.101250X-0.401250X-0.101250X0*%
%TD*%
%TA.AperFunction,SMDPad,CuDef*%
%ADD19RoundRect,0.033750X0.101250X-0.401250X0.101250X0.401250X-0.101250X0.401250X-0.101250X-0.401250X0*%
%TD*%
%TA.AperFunction,SMDPad,CuDef*%
%ADD20RoundRect,0.218750X0.381250X-0.218750X0.381250X0.218750X-0.381250X0.218750X-0.381250X-0.218750X0*%
%TD*%
%TA.AperFunction,ComponentPad*%
%ADD21O,1.700000X1.700000*%
%TD*%
%TA.AperFunction,ComponentPad*%
%ADD22R,1.700000X1.700000*%
%TD*%
%TA.AperFunction,SMDPad,CuDef*%
%ADD23RoundRect,0.162500X-0.617500X-0.162500X0.617500X-0.162500X0.617500X0.162500X-0.617500X0.162500X0*%
%TD*%
%TA.AperFunction,SMDPad,CuDef*%
%ADD24RoundRect,0.073750X-0.531250X-0.221250X0.531250X-0.221250X0.531250X0.221250X-0.531250X0.221250X0*%
%TD*%
%TA.AperFunction,SMDPad,CuDef*%
%ADD25RoundRect,0.250000X0.475000X-0.250000X0.475000X0.250000X-0.475000X0.250000X-0.475000X-0.250000X0*%
%TD*%
%TA.AperFunction,SMDPad,CuDef*%
%ADD26RoundRect,0.100000X0.100000X-0.217500X0.100000X0.217500X-0.100000X0.217500X-0.100000X-0.217500X0*%
%TD*%
%TA.AperFunction,SMDPad,CuDef*%
%ADD27RoundRect,0.250000X-0.450000X0.262500X-0.450000X-0.262500X0.450000X-0.262500X0.450000X0.262500X0*%
%TD*%
%TA.AperFunction,SMDPad,CuDef*%
%ADD28RoundRect,0.150000X-0.350000X0.150000X-0.350000X-0.150000X0.350000X-0.150000X0.350000X0.150000X0*%
%TD*%
%TA.AperFunction,SMDPad,CuDef*%
%ADD29RoundRect,0.150000X-0.425000X0.150000X-0.425000X-0.150000X0.425000X-0.150000X0.425000X0.150000X0*%
%TD*%
%TA.AperFunction,SMDPad,CuDef*%
%ADD30RoundRect,0.075000X-0.500000X0.075000X-0.500000X-0.075000X0.500000X-0.075000X0.500000X0.075000X0*%
%TD*%
%TA.AperFunction,ComponentPad*%
%ADD31O,2.100000X1.000000*%
%TD*%
%TA.AperFunction,ComponentPad*%
%ADD32O,1.800000X1.000000*%
%TD*%
%TA.AperFunction,SMDPad,CuDef*%
%ADD33RoundRect,0.140000X-0.140000X-0.170000X0.140000X-0.170000X0.140000X0.170000X-0.140000X0.170000X0*%
%TD*%
%TA.AperFunction,SMDPad,CuDef*%
%ADD34R,1.000000X1.800000*%
%TD*%
%TA.AperFunction,SMDPad,CuDef*%
%ADD35RoundRect,0.147500X-0.147500X-0.172500X0.147500X-0.172500X0.147500X0.172500X-0.147500X0.172500X0*%
%TD*%
%TA.AperFunction,SMDPad,CuDef*%
%ADD36RoundRect,0.102000X0.323000X-0.373000X0.323000X0.373000X-0.323000X0.373000X-0.323000X-0.373000X0*%
%TD*%
%TA.AperFunction,SMDPad,CuDef*%
%ADD37RoundRect,0.218750X-0.381250X0.218750X-0.381250X-0.218750X0.381250X-0.218750X0.381250X0.218750X0*%
%TD*%
%TA.AperFunction,SMDPad,CuDef*%
%ADD38RoundRect,0.250001X-0.624999X0.462499X-0.624999X-0.462499X0.624999X-0.462499X0.624999X0.462499X0*%
%TD*%
%TA.AperFunction,SMDPad,CuDef*%
%ADD39R,0.190000X0.690000*%
%TD*%
%TA.AperFunction,SMDPad,CuDef*%
%ADD40RoundRect,0.250000X0.250000X-0.275000X0.250000X0.275000X-0.250000X0.275000X-0.250000X-0.275000X0*%
%TD*%
%TA.AperFunction,SMDPad,CuDef*%
%ADD41RoundRect,0.250000X0.275000X-0.850000X0.275000X0.850000X-0.275000X0.850000X-0.275000X-0.850000X0*%
%TD*%
%TA.AperFunction,ViaPad*%
%ADD42C,0.650000*%
%TD*%
%TA.AperFunction,ViaPad*%
%ADD43C,0.900000*%
%TD*%
%TA.AperFunction,ViaPad*%
%ADD44C,0.700000*%
%TD*%
%TA.AperFunction,Conductor*%
%ADD45C,0.200000*%
%TD*%
%TA.AperFunction,Conductor*%
%ADD46C,0.500000*%
%TD*%
%TA.AperFunction,Conductor*%
%ADD47C,0.150000*%
%TD*%
%TA.AperFunction,Conductor*%
%ADD48C,0.300000*%
%TD*%
%TA.AperFunction,Conductor*%
%ADD49C,1.000000*%
%TD*%
%TA.AperFunction,Conductor*%
%ADD50C,0.220000*%
%TD*%
%TA.AperFunction,Conductor*%
%ADD51C,0.250000*%
%TD*%
G04 APERTURE END LIST*
D10*
%TO.P,R9,1*%
%TO.N,Net-(D1-K)*%
X132612500Y-84200000D03*
%TO.P,R9,2*%
%TO.N,GND*%
X130787500Y-84200000D03*
%TD*%
D11*
%TO.P,BOOT0,2,2*%
%TO.N,+3.3V*%
X135570002Y-90200000D03*
%TO.P,BOOT0,1,1*%
%TO.N,Net-(R6-Pad1)*%
X143370000Y-90200000D03*
%TD*%
D12*
%TO.P,R5,2*%
%TO.N,/BOOT0*%
X137732500Y-86800000D03*
%TO.P,R5,1*%
%TO.N,GND*%
X135907500Y-86800000D03*
%TD*%
D13*
%TO.P,C6,2*%
%TO.N,GND*%
X157739561Y-100789231D03*
%TO.P,C6,1*%
%TO.N,+3.3V*%
X155839561Y-100789231D03*
%TD*%
D10*
%TO.P,R6,2*%
%TO.N,/BOOT0*%
X141407500Y-86800000D03*
%TO.P,R6,1*%
%TO.N,Net-(R6-Pad1)*%
X143232500Y-86800000D03*
%TD*%
D14*
%TO.P,C21,2*%
%TO.N,GND*%
X130900000Y-101849999D03*
%TO.P,C21,1*%
%TO.N,+3.3V*%
X130900000Y-99950001D03*
%TD*%
D15*
%TO.P,R8,2*%
%TO.N,Net-(U2-IN)*%
X124600000Y-103687500D03*
%TO.P,R8,1*%
%TO.N,Net-(U2-EN)*%
X124600000Y-105512500D03*
%TD*%
D16*
%TO.P,C2,2*%
%TO.N,GND*%
X147150001Y-84539231D03*
%TO.P,C2,1*%
%TO.N,+3.3V*%
X149049999Y-84539231D03*
%TD*%
D17*
%TO.P,U1,49,VSS*%
%TO.N,GND*%
X152950000Y-92439231D03*
D18*
%TO.P,U1,48,VDD*%
%TO.N,+3.3V*%
X149520000Y-95189231D03*
%TO.P,U1,47,PB7*%
%TO.N,/PB7*%
X149520000Y-94689231D03*
%TO.P,U1,46,PB6*%
%TO.N,/PB6*%
X149520000Y-94189231D03*
%TO.P,U1,45,PB5*%
%TO.N,/PB5*%
X149520000Y-93689231D03*
%TO.P,U1,44,PB4*%
%TO.N,/PB4*%
X149520000Y-93189231D03*
%TO.P,U1,43,PB3*%
%TO.N,/PB3*%
X149520000Y-92689231D03*
%TO.P,U1,42,PA15*%
%TO.N,/PA15*%
X149520000Y-92189231D03*
%TO.P,U1,41,PA14*%
%TO.N,/PA14*%
X149520000Y-91689231D03*
%TO.P,U1,40,VDDUSB*%
%TO.N,+3.3V*%
X149520000Y-91189231D03*
%TO.P,U1,39,PA13*%
%TO.N,/PA13*%
X149520000Y-90689231D03*
%TO.P,U1,38,PA12*%
%TO.N,/USB_D+*%
X149520000Y-90189231D03*
%TO.P,U1,37,PA11*%
%TO.N,/USB_D-*%
X149520000Y-89689231D03*
D19*
%TO.P,U1,36,PA10*%
%TO.N,/PA10*%
X150200000Y-89009231D03*
%TO.P,U1,35,VDD*%
%TO.N,+3.3V*%
X150700000Y-89009231D03*
%TO.P,U1,34,VDDSMPS*%
X151200000Y-89009231D03*
%TO.P,U1,33,VLXSMPS*%
%TO.N,/SMPS_LX*%
X151700000Y-89009231D03*
%TO.P,U1,32,VSSSMPS*%
%TO.N,GND*%
X152200000Y-89009231D03*
%TO.P,U1,31,VFBSMPS*%
%TO.N,/SMPS_FB*%
X152700000Y-89009231D03*
%TO.P,U1,30,PE4*%
%TO.N,/PE4*%
X153200000Y-89009231D03*
%TO.P,U1,29,PB1*%
%TO.N,/PB1*%
X153700000Y-89009231D03*
%TO.P,U1,28,PB0*%
%TO.N,/PB0*%
X154200000Y-89009231D03*
%TO.P,U1,27,AT1*%
%TO.N,unconnected-(U1-AT1-Pad27)*%
X154700000Y-89009231D03*
%TO.P,U1,26,AT0*%
%TO.N,unconnected-(U1-AT0-Pad26)*%
X155200000Y-89009231D03*
%TO.P,U1,25,OSC_IN*%
%TO.N,/HSE_IN*%
X155700000Y-89009231D03*
D18*
%TO.P,U1,24,OSC_OUT*%
%TO.N,/HSE_OUT*%
X156380000Y-89689231D03*
%TO.P,U1,23,VDDRF*%
%TO.N,+3.3V*%
X156380000Y-90189231D03*
%TO.P,U1,22,VSSRF*%
%TO.N,GND*%
X156380000Y-90689231D03*
%TO.P,U1,21,RF1*%
%TO.N,/RF*%
X156380000Y-91189231D03*
%TO.P,U1,20,VDD*%
%TO.N,+3.3V*%
X156380000Y-91689231D03*
%TO.P,U1,19,PB2*%
%TO.N,/PB2*%
X156380000Y-92189231D03*
%TO.P,U1,18,PA9*%
%TO.N,/PA9*%
X156380000Y-92689231D03*
%TO.P,U1,17,PA8*%
%TO.N,/PA8*%
X156380000Y-93189231D03*
%TO.P,U1,16,PA7*%
%TO.N,/PA7*%
X156380000Y-93689231D03*
%TO.P,U1,15,PA6*%
%TO.N,/PA6*%
X156380000Y-94189231D03*
%TO.P,U1,14,PA5*%
%TO.N,/PA5*%
X156380000Y-94689231D03*
%TO.P,U1,13,PA4*%
%TO.N,/PA4*%
X156380000Y-95189231D03*
D19*
%TO.P,U1,12,PA3*%
%TO.N,/PA3*%
X155700000Y-95869231D03*
%TO.P,U1,11,PA2*%
%TO.N,/PA2*%
X155200000Y-95869231D03*
%TO.P,U1,10,PA1*%
%TO.N,/PA1*%
X154700000Y-95869231D03*
%TO.P,U1,9,PA0*%
%TO.N,/PA0*%
X154200000Y-95869231D03*
%TO.P,U1,8,VDDA*%
%TO.N,+3.3V*%
X153700000Y-95869231D03*
%TO.P,U1,7,NRST*%
%TO.N,/NRST*%
X153200000Y-95869231D03*
%TO.P,U1,6,PB9*%
%TO.N,/PB9*%
X152700000Y-95869231D03*
%TO.P,U1,5,PB8*%
%TO.N,/PB8*%
X152200000Y-95869231D03*
%TO.P,U1,4,PH3*%
%TO.N,/BOOT0*%
X151700000Y-95869231D03*
%TO.P,U1,3,PC15*%
%TO.N,/LSE_OUT*%
X151200000Y-95869231D03*
%TO.P,U1,2,PC14*%
%TO.N,/LSE_IN*%
X150700000Y-95869231D03*
%TO.P,U1,1,VBAT*%
%TO.N,+3.3V*%
X150200000Y-95869231D03*
%TD*%
D20*
%TO.P,L1,2,2*%
%TO.N,/SMPS_LX1*%
X151621800Y-84437500D03*
%TO.P,L1,1,1*%
%TO.N,/SMPS_LX*%
X151621800Y-86562500D03*
%TD*%
D21*
%TO.P,J2,14,Pin_14*%
%TO.N,/PB8*%
X134380000Y-104489231D03*
%TO.P,J2,13,Pin_13*%
%TO.N,/PB9*%
X136920000Y-104489231D03*
%TO.P,J2,12,Pin_12*%
%TO.N,/PA0*%
X139460001Y-104489231D03*
%TO.P,J2,11,Pin_11*%
%TO.N,/PA1*%
X142000000Y-104489231D03*
%TO.P,J2,10,Pin_10*%
%TO.N,/PA2*%
X144540000Y-104489231D03*
%TO.P,J2,9,Pin_9*%
%TO.N,/PA3*%
X147080000Y-104489231D03*
%TO.P,J2,8,Pin_8*%
%TO.N,/PA4*%
X149619999Y-104489231D03*
%TO.P,J2,7,Pin_7*%
%TO.N,/PA5*%
X152160000Y-104489231D03*
%TO.P,J2,6,Pin_6*%
%TO.N,/PA6*%
X154700000Y-104489231D03*
%TO.P,J2,5,Pin_5*%
%TO.N,/PA7*%
X157240000Y-104489231D03*
%TO.P,J2,4,Pin_4*%
%TO.N,/PA8*%
X159780000Y-104489231D03*
%TO.P,J2,3,Pin_3*%
%TO.N,/PA9*%
X162320001Y-104489231D03*
%TO.P,J2,2,Pin_2*%
%TO.N,/PE4*%
X164860000Y-104489231D03*
D22*
%TO.P,J2,1,Pin_1*%
%TO.N,GND*%
X167400000Y-104489231D03*
%TD*%
D23*
%TO.P,U2,1,IN*%
%TO.N,Net-(U2-IN)*%
X126050000Y-99650000D03*
%TO.P,U2,2,GND*%
%TO.N,GND*%
X126050000Y-100600000D03*
%TO.P,U2,3,EN*%
%TO.N,Net-(U2-EN)*%
X126050000Y-101550000D03*
%TO.P,U2,4,NR*%
%TO.N,Net-(U2-NR)*%
X128750000Y-101550000D03*
%TO.P,U2,5,OUT*%
%TO.N,+3.3V*%
X128750000Y-99650000D03*
%TD*%
D14*
%TO.P,C20,2*%
%TO.N,GND*%
X130900000Y-105349999D03*
%TO.P,C20,1*%
%TO.N,Net-(U2-NR)*%
X130900000Y-103450001D03*
%TD*%
D24*
%TO.P,U3,1,I/O1*%
%TO.N,Net-(J1-D--PadA7)*%
X129731600Y-91850001D03*
%TO.P,U3,2,GND*%
%TO.N,GND*%
X129731600Y-92800001D03*
%TO.P,U3,3,I/O2*%
%TO.N,Net-(J1-D+-PadA6)*%
X129731600Y-93750001D03*
%TO.P,U3,4,I/O2*%
%TO.N,/USB_D+*%
X132068400Y-93750001D03*
%TO.P,U3,5,VBUS*%
%TO.N,VBUS (+5V)*%
X132068400Y-92800001D03*
%TO.P,U3,6,I/O1*%
%TO.N,/USB_D-*%
X132068400Y-91850001D03*
%TD*%
D11*
%TO.P,SW1,1,1*%
%TO.N,Net-(R1-Pad1)*%
X143370000Y-95800000D03*
%TO.P,SW1,2,2*%
%TO.N,GND*%
X135570002Y-95800000D03*
%TD*%
D13*
%TO.P,C9,1*%
%TO.N,+3.3V*%
X161750000Y-97039231D03*
%TO.P,C9,2*%
%TO.N,GND*%
X163650000Y-97039231D03*
%TD*%
D14*
%TO.P,C14,2*%
%TO.N,GND*%
X153700000Y-101039230D03*
%TO.P,C14,1*%
%TO.N,/LSE_OUT*%
X153700000Y-99139232D03*
%TD*%
D25*
%TO.P,C12,2*%
%TO.N,GND*%
X155400000Y-84550001D03*
%TO.P,C12,1*%
%TO.N,/SMPS_FB*%
X155400000Y-86449999D03*
%TD*%
D14*
%TO.P,C4,2*%
%TO.N,GND*%
X145500000Y-101039230D03*
%TO.P,C4,1*%
%TO.N,+3.3V*%
X145500000Y-99139232D03*
%TD*%
D13*
%TO.P,C5,2*%
%TO.N,GND*%
X157739560Y-98789231D03*
%TO.P,C5,1*%
%TO.N,+3.3V*%
X155839562Y-98789231D03*
%TD*%
D26*
%TO.P,C16,2*%
%TO.N,GND*%
X163000000Y-91292500D03*
%TO.P,C16,1*%
%TO.N,Net-(FL1-IN)*%
X163000000Y-92107500D03*
%TD*%
D14*
%TO.P,C19,1*%
%TO.N,Net-(U2-EN)*%
X128500000Y-103450001D03*
%TO.P,C19,2*%
%TO.N,GND*%
X128500000Y-105349999D03*
%TD*%
D27*
%TO.P,R2,2*%
%TO.N,GND*%
X122498163Y-100833500D03*
%TO.P,R2,1*%
%TO.N,Net-(J1-CC2)*%
X122498163Y-99008500D03*
%TD*%
D10*
%TO.P,R3,1*%
%TO.N,Net-(J1-CC1)*%
X123212500Y-86000001D03*
%TO.P,R3,2*%
%TO.N,GND*%
X121387500Y-86000001D03*
%TD*%
D28*
%TO.P,J1,A1,GND*%
%TO.N,GND*%
X127065000Y-89600001D03*
D29*
%TO.P,J1,A4,VBUS*%
%TO.N,VBUS (+5V)*%
X126990000Y-90400001D03*
D30*
%TO.P,J1,A5,CC1*%
%TO.N,Net-(J1-CC1)*%
X126989999Y-91550001D03*
%TO.P,J1,A6,D+*%
%TO.N,Net-(J1-D+-PadA6)*%
X126990000Y-92550001D03*
%TO.P,J1,A7,D-*%
%TO.N,Net-(J1-D--PadA7)*%
X126990000Y-93050001D03*
%TO.P,J1,A8,SBU1*%
%TO.N,unconnected-(J1-SBU1-PadA8)*%
X126989999Y-94050001D03*
D29*
%TO.P,J1,A9,VBUS*%
%TO.N,VBUS (+5V)*%
X126990000Y-95200001D03*
D28*
%TO.P,J1,A12,GND*%
%TO.N,GND*%
X127065000Y-96000001D03*
%TO.P,J1,B1,GND*%
X127065000Y-96000001D03*
D29*
%TO.P,J1,B4,VBUS*%
%TO.N,VBUS (+5V)*%
X126990000Y-95200001D03*
D30*
%TO.P,J1,B5,CC2*%
%TO.N,Net-(J1-CC2)*%
X126990000Y-94550001D03*
%TO.P,J1,B6,D+*%
%TO.N,Net-(J1-D+-PadA6)*%
X126990000Y-93550001D03*
%TO.P,J1,B7,D-*%
%TO.N,Net-(J1-D--PadA7)*%
X126990000Y-92050001D03*
%TO.P,J1,B8,SBU2*%
%TO.N,unconnected-(J1-SBU2-PadB8)*%
X126990000Y-91050001D03*
D29*
%TO.P,J1,B9,VBUS*%
%TO.N,VBUS (+5V)*%
X126990000Y-90400001D03*
D28*
%TO.P,J1,B12,GND*%
%TO.N,GND*%
X127065000Y-89600001D03*
D31*
%TO.P,J1,S1,SHIELD*%
%TO.N,Net-(J1-SHIELD)*%
X126415000Y-88480001D03*
D32*
X122235000Y-88480001D03*
D31*
X126415000Y-97120001D03*
D32*
X122235000Y-97120001D03*
%TD*%
D12*
%TO.P,R1,1*%
%TO.N,Net-(R1-Pad1)*%
X136737500Y-99050000D03*
%TO.P,R1,2*%
%TO.N,/NRST*%
X138562500Y-99050000D03*
%TD*%
D33*
%TO.P,C15,2*%
%TO.N,GND*%
X162080000Y-91200000D03*
%TO.P,C15,1*%
%TO.N,/RF*%
X161120000Y-91200000D03*
%TD*%
D25*
%TO.P,C7,1*%
%TO.N,+3.3V*%
X145500000Y-96989230D03*
%TO.P,C7,2*%
%TO.N,GND*%
X145500000Y-95089232D03*
%TD*%
D14*
%TO.P,C13,2*%
%TO.N,GND*%
X147700000Y-101039230D03*
%TO.P,C13,1*%
%TO.N,/LSE_IN*%
X147700000Y-99139232D03*
%TD*%
D34*
%TO.P,X2,2,2*%
%TO.N,/LSE_IN*%
X149450000Y-99539231D03*
%TO.P,X2,1,1*%
%TO.N,/LSE_OUT*%
X151950000Y-99539231D03*
%TD*%
D35*
%TO.P,L3,2,2*%
%TO.N,Net-(FL1-IN)*%
X162085000Y-92200000D03*
%TO.P,L3,1,1*%
%TO.N,/RF*%
X161115000Y-92200000D03*
%TD*%
D16*
%TO.P,C1,2*%
%TO.N,GND*%
X147150001Y-86539231D03*
%TO.P,C1,1*%
%TO.N,+3.3V*%
X149049999Y-86539231D03*
%TD*%
D36*
%TO.P,X1,1,1*%
%TO.N,/HSE_OUT*%
X159075000Y-87025000D03*
%TO.P,X1,2,2*%
%TO.N,GND*%
X159075000Y-85575000D03*
%TO.P,X1,3,3*%
%TO.N,/HSE_IN*%
X157925000Y-85575000D03*
%TO.P,X1,4,4*%
%TO.N,GND*%
X157925000Y-87025000D03*
%TD*%
D22*
%TO.P,J3,1,Pin_1*%
%TO.N,GND*%
X134390000Y-81089231D03*
D21*
%TO.P,J3,2,Pin_2*%
%TO.N,+3.3V*%
X136930000Y-81089231D03*
%TO.P,J3,3,Pin_3*%
%TO.N,/PB7*%
X139469999Y-81089231D03*
%TO.P,J3,4,Pin_4*%
%TO.N,/PB6*%
X142010000Y-81089231D03*
%TO.P,J3,5,Pin_5*%
%TO.N,/PB5*%
X144550000Y-81089231D03*
%TO.P,J3,6,Pin_6*%
%TO.N,/PB4*%
X147090000Y-81089231D03*
%TO.P,J3,7,Pin_7*%
%TO.N,/PB3*%
X149630000Y-81089231D03*
%TO.P,J3,8,Pin_8*%
%TO.N,/PA14*%
X152170001Y-81089231D03*
%TO.P,J3,9,Pin_9*%
%TO.N,/PA13*%
X154710000Y-81089231D03*
%TO.P,J3,10,Pin_10*%
%TO.N,/PA10*%
X157250000Y-81089231D03*
%TO.P,J3,11,Pin_11*%
%TO.N,/PA15*%
X159790000Y-81089231D03*
%TO.P,J3,12,Pin_12*%
%TO.N,/PB2*%
X162329999Y-81089231D03*
%TO.P,J3,13,Pin_13*%
%TO.N,/PB1*%
X164870000Y-81089231D03*
%TO.P,J3,14,Pin_14*%
%TO.N,/PB0*%
X167410000Y-81089231D03*
%TD*%
D37*
%TO.P,L2,2,2*%
%TO.N,/SMPS_FB*%
X153445900Y-86562500D03*
%TO.P,L2,1,1*%
%TO.N,/SMPS_LX1*%
X153445900Y-84437500D03*
%TD*%
D16*
%TO.P,C11,1*%
%TO.N,/NRST*%
X142349999Y-99050000D03*
%TO.P,C11,2*%
%TO.N,GND*%
X140450001Y-99050000D03*
%TD*%
D12*
%TO.P,R4,1*%
%TO.N,Net-(J1-SHIELD)*%
X125487500Y-86000001D03*
%TO.P,R4,2*%
%TO.N,GND*%
X127312500Y-86000001D03*
%TD*%
D25*
%TO.P,C18,1*%
%TO.N,Net-(U2-IN)*%
X122500000Y-104349999D03*
%TO.P,C18,2*%
%TO.N,GND*%
X122500000Y-102450001D03*
%TD*%
D38*
%TO.P,D1,1,K*%
%TO.N,Net-(D1-K)*%
X131600000Y-86312501D03*
%TO.P,D1,2,A*%
%TO.N,+3.3V*%
X131600000Y-89287501D03*
%TD*%
D13*
%TO.P,C3,1*%
%TO.N,+3.3V*%
X158950001Y-89300000D03*
%TO.P,C3,2*%
%TO.N,GND*%
X160849999Y-89300000D03*
%TD*%
D39*
%TO.P,FL1,6,GND*%
%TO.N,GND*%
X164100000Y-91130001D03*
%TO.P,FL1,5,OUT*%
%TO.N,/RF_Antenna*%
X164600000Y-91130000D03*
%TO.P,FL1,4,GND*%
%TO.N,GND*%
X165100000Y-91130001D03*
%TO.P,FL1,3,GND*%
X165100000Y-92269999D03*
%TO.P,FL1,2,IN*%
%TO.N,Net-(FL1-IN)*%
X164600000Y-92270000D03*
%TO.P,FL1,1,GND*%
%TO.N,GND*%
X164100000Y-92269999D03*
%TD*%
D10*
%TO.P,R7,1*%
%TO.N,Net-(U2-IN)*%
X131912500Y-95600000D03*
%TO.P,R7,2*%
%TO.N,VBUS (+5V)*%
X130087500Y-95600000D03*
%TD*%
D14*
%TO.P,C10,2*%
%TO.N,GND*%
X146300000Y-93449999D03*
%TO.P,C10,1*%
%TO.N,+3.3V*%
X146300000Y-91550001D03*
%TD*%
D13*
%TO.P,C8,1*%
%TO.N,+3.3V*%
X161750000Y-95000000D03*
%TO.P,C8,2*%
%TO.N,GND*%
X163650000Y-95000000D03*
%TD*%
D25*
%TO.P,C17,2*%
%TO.N,GND*%
X139570001Y-85100001D03*
%TO.P,C17,1*%
%TO.N,/BOOT0*%
X139570001Y-86999999D03*
%TD*%
D40*
%TO.P,J4,1,In*%
%TO.N,/RF_Antenna*%
X164600000Y-89150000D03*
D41*
%TO.P,J4,2,Ext*%
%TO.N,GND*%
X163125000Y-87625000D03*
X166075000Y-87625000D03*
%TD*%
D42*
%TO.N,/PE4*%
X153400000Y-87800000D03*
%TO.N,/PB0*%
X155400000Y-87800000D03*
%TO.N,/PB1*%
X154300000Y-87800000D03*
%TO.N,/PB2*%
X158000000Y-92700000D03*
%TO.N,/PA13*%
X147829231Y-90689231D03*
%TO.N,/NRST*%
X153105000Y-97089231D03*
D43*
%TO.N,GND*%
X120800000Y-101200000D03*
X124300000Y-99700000D03*
X126800000Y-105700000D03*
X132700000Y-101900000D03*
D42*
X145500000Y-102116901D03*
D43*
%TO.N,+3.3V*%
X143800000Y-84000000D03*
X143100000Y-101900000D03*
X134350000Y-99750000D03*
%TO.N,GND*%
X154300000Y-93900000D03*
X151500000Y-91100000D03*
D42*
%TO.N,/BOOT0*%
X151795000Y-97089231D03*
D43*
%TO.N,GND*%
X160400000Y-85100000D03*
X166075000Y-85400000D03*
X163100000Y-85400000D03*
X165100000Y-93500000D03*
X162600000Y-90100000D03*
%TO.N,+3.3V*%
X160400000Y-87600000D03*
D44*
%TO.N,GND*%
X164950000Y-95000000D03*
D42*
X157789561Y-102100000D03*
D44*
X128491617Y-92400000D03*
X120900000Y-84300001D03*
X140450001Y-100400000D03*
X128300000Y-84400001D03*
X149250000Y-101235789D03*
X144800000Y-93700000D03*
X140400000Y-83900001D03*
X147200000Y-87800000D03*
X134600000Y-87600000D03*
X128400000Y-89600001D03*
X152050000Y-101235789D03*
X159800000Y-90489231D03*
X128400000Y-96000001D03*
D42*
X152200000Y-87800000D03*
D44*
X161500000Y-87800000D03*
X164950000Y-97039231D03*
D42*
%TO.N,+3.3V*%
X155889561Y-102100000D03*
D43*
X161747099Y-93373177D03*
D44*
X134900000Y-83800001D03*
D43*
X162450000Y-98889231D03*
D42*
%TO.N,/NRST*%
X143700000Y-98600000D03*
%TO.N,/BOOT0*%
X143960439Y-85089231D03*
%TO.N,/PA2*%
X156187500Y-97089231D03*
%TO.N,/PA1*%
X155275000Y-97089231D03*
%TO.N,/PA10*%
X148400000Y-89000000D03*
%TO.N,/PA3*%
X157100000Y-97089231D03*
%TO.N,/PA0*%
X154362500Y-97089231D03*
%TO.N,/PB5*%
X147800000Y-95183332D03*
%TO.N,/PB6*%
X147800000Y-96041665D03*
%TO.N,/PB4*%
X147800000Y-94324999D03*
%TO.N,/PB7*%
X147800000Y-96900000D03*
%TO.N,/PA15*%
X147800000Y-92608333D03*
%TO.N,/PB3*%
X147800000Y-93466666D03*
D44*
%TO.N,GND*%
X135600000Y-97100000D03*
D42*
%TO.N,/PA14*%
X147800000Y-91750000D03*
%TD*%
D45*
%TO.N,Net-(J1-SHIELD)*%
X123200000Y-99800000D02*
X123700000Y-99300000D01*
X121578163Y-99478163D02*
X121900000Y-99800000D01*
X121900000Y-99800000D02*
X123200000Y-99800000D01*
X121578163Y-97776838D02*
X121578163Y-99478163D01*
X123700000Y-98700000D02*
X125279999Y-97120001D01*
X125279999Y-97120001D02*
X126415000Y-97120001D01*
X123700000Y-99300000D02*
X123700000Y-98700000D01*
X122235000Y-97120001D02*
X121578163Y-97776838D01*
D46*
%TO.N,Net-(U2-EN)*%
X125050000Y-101550000D02*
X126050000Y-101550000D01*
X121405000Y-105083489D02*
X121405000Y-103595000D01*
X121580199Y-103419801D02*
X123180199Y-103419801D01*
X121834011Y-105512500D02*
X121405000Y-105083489D01*
X124600000Y-105512500D02*
X121834011Y-105512500D01*
X121405000Y-103595000D02*
X121580199Y-103419801D01*
X123180199Y-103419801D02*
X125050000Y-101550000D01*
%TO.N,Net-(U2-IN)*%
X123937501Y-104349999D02*
X124600000Y-103687500D01*
X122500000Y-104349999D02*
X123937501Y-104349999D01*
D47*
%TO.N,/PA13*%
X147829231Y-90689231D02*
X149520000Y-90689231D01*
%TO.N,+3.3V*%
X147264607Y-91550001D02*
X146300000Y-91550001D01*
X147584608Y-91230000D02*
X147264607Y-91550001D01*
X148380769Y-91419231D02*
X148191538Y-91230000D01*
X148610769Y-91189231D02*
X148380769Y-91419231D01*
X148191538Y-91230000D02*
X147584608Y-91230000D01*
X149520000Y-91189231D02*
X148610769Y-91189231D01*
%TO.N,/NRST*%
X153200000Y-95869231D02*
X153105000Y-95964231D01*
X153105000Y-95964231D02*
X153105000Y-97183311D01*
%TO.N,/BOOT0*%
X151795000Y-95964231D02*
X151700000Y-95869231D01*
X151795000Y-97200000D02*
X151795000Y-95964231D01*
%TO.N,/PB9*%
X138339231Y-103070000D02*
X136920000Y-104489231D01*
X147811838Y-103070000D02*
X138339231Y-103070000D01*
X148471838Y-102410000D02*
X147811838Y-103070000D01*
X154890000Y-98327573D02*
X154890000Y-102410000D01*
X153231297Y-98045000D02*
X154607427Y-98045000D01*
X154890000Y-102410000D02*
X148471838Y-102410000D01*
X154607427Y-98045000D02*
X154890000Y-98327573D01*
X152585000Y-97398703D02*
X153231297Y-98045000D01*
X152585000Y-95984231D02*
X152585000Y-97398703D01*
X152700000Y-95869231D02*
X152585000Y-95984231D01*
%TO.N,/PB8*%
X152315000Y-97815000D02*
X152315000Y-95984231D01*
X154620000Y-98565000D02*
X154455000Y-98400000D01*
X152315000Y-95984231D02*
X152200000Y-95869231D01*
X154455000Y-98400000D02*
X152900000Y-98400000D01*
X154319693Y-101780789D02*
X154620000Y-101480482D01*
X148719211Y-101780789D02*
X154319693Y-101780789D01*
X154620000Y-101480482D02*
X154620000Y-98565000D01*
X152900000Y-98400000D02*
X152315000Y-97815000D01*
X147700000Y-102800000D02*
X148719211Y-101780789D01*
X136069231Y-102800000D02*
X147700000Y-102800000D01*
X134380000Y-104489231D02*
X136069231Y-102800000D01*
%TO.N,/PA3*%
X155700000Y-95869231D02*
X155880000Y-95869231D01*
X155880000Y-95869231D02*
X157100000Y-97089231D01*
%TO.N,/PA2*%
X155698269Y-96600000D02*
X156187500Y-97089231D01*
X155495769Y-96600000D02*
X155698269Y-96600000D01*
X155200000Y-95869231D02*
X155200000Y-96304231D01*
X155200000Y-96304231D02*
X155495769Y-96600000D01*
%TO.N,/PA1*%
X154700000Y-96514231D02*
X155275000Y-97089231D01*
X154700000Y-95869231D02*
X154700000Y-96514231D01*
%TO.N,/PA0*%
X154200000Y-96926731D02*
X154362500Y-97089231D01*
X154200000Y-95869231D02*
X154200000Y-96926731D01*
%TO.N,/PA4*%
X151425533Y-102683697D02*
X149619999Y-104489231D01*
X156041256Y-102683697D02*
X151425533Y-102683697D01*
X156534561Y-98632978D02*
X156534561Y-102190392D01*
X157620000Y-97547539D02*
X156534561Y-98632978D01*
X156534561Y-102190392D02*
X156041256Y-102683697D01*
X157620000Y-96429231D02*
X157620000Y-97547539D01*
X156380000Y-95189231D02*
X157620000Y-96429231D01*
%TO.N,/PA5*%
X153695534Y-102953697D02*
X152160000Y-104489231D01*
X157700000Y-102953697D02*
X153695534Y-102953697D01*
X158800000Y-96674231D02*
X158800000Y-101853697D01*
X158800000Y-101853697D02*
X157700000Y-102953697D01*
X156815000Y-94689231D02*
X158800000Y-96674231D01*
X156380000Y-94689231D02*
X156815000Y-94689231D01*
%TO.N,/PA6*%
X158123696Y-103223697D02*
X155965534Y-103223697D01*
X159230000Y-102117393D02*
X158123696Y-103223697D01*
X159230000Y-96604231D02*
X159230000Y-102117393D01*
X155965534Y-103223697D02*
X154700000Y-104489231D01*
X156815000Y-94189231D02*
X159230000Y-96604231D01*
X156380000Y-94189231D02*
X156815000Y-94189231D01*
%TO.N,/PA7*%
X159500000Y-102229231D02*
X157240000Y-104489231D01*
X159500000Y-96374231D02*
X159500000Y-102229231D01*
X156815000Y-93689231D02*
X159500000Y-96374231D01*
X156380000Y-93689231D02*
X156815000Y-93689231D01*
%TO.N,/PA8*%
X159780000Y-96154231D02*
X159780000Y-104489231D01*
X156815000Y-93189231D02*
X159780000Y-96154231D01*
X156380000Y-93189231D02*
X156815000Y-93189231D01*
%TO.N,/PA9*%
X161055000Y-103224230D02*
X162320001Y-104489231D01*
X161055000Y-96929231D02*
X161055000Y-103224230D01*
X156815000Y-92689231D02*
X161055000Y-96929231D01*
X156380000Y-92689231D02*
X156815000Y-92689231D01*
%TO.N,/PE4*%
X153200000Y-88000000D02*
X153400000Y-87800000D01*
X153200000Y-89009231D02*
X153200000Y-88000000D01*
D48*
%TO.N,/SMPS_FB*%
X152795000Y-88914231D02*
X152700000Y-89009231D01*
X153445900Y-86854100D02*
X152795000Y-87505000D01*
X153445900Y-86562500D02*
X153445900Y-86854100D01*
X152795000Y-87505000D02*
X152795000Y-88914231D01*
D47*
%TO.N,/PB2*%
X157489231Y-92189231D02*
X156380000Y-92189231D01*
X158000000Y-92700000D02*
X157489231Y-92189231D01*
D49*
%TO.N,+3.3V*%
X161750000Y-94100000D02*
X161750000Y-93376078D01*
X161750000Y-95039231D02*
X161750000Y-94100000D01*
D47*
%TO.N,/PB7*%
X148590000Y-96110000D02*
X147800000Y-96900000D01*
X149193064Y-94689231D02*
X148590000Y-95292295D01*
X148590000Y-95292295D02*
X148590000Y-96110000D01*
X149520000Y-94689231D02*
X149193064Y-94689231D01*
%TO.N,/PB6*%
X148320000Y-95791665D02*
X148070000Y-96041665D01*
X149085000Y-94189231D02*
X148320000Y-94954231D01*
X148320000Y-94954231D02*
X148320000Y-95791665D01*
X149520000Y-94189231D02*
X149085000Y-94189231D01*
%TO.N,/PB5*%
X149193064Y-93689231D02*
X147800000Y-95082295D01*
X149520000Y-93689231D02*
X149193064Y-93689231D01*
X147800000Y-95082295D02*
X147800000Y-95183332D01*
%TO.N,/PB4*%
X149520000Y-93189231D02*
X149085000Y-93189231D01*
X149085000Y-93189231D02*
X147949232Y-94324999D01*
X147949232Y-94324999D02*
X147800000Y-94324999D01*
%TO.N,/PB0*%
X155120769Y-88379231D02*
X154503064Y-88379231D01*
X155400000Y-88100000D02*
X155120769Y-88379231D01*
X154200000Y-88682295D02*
X154200000Y-89009231D01*
X155400000Y-87800000D02*
X155400000Y-88100000D01*
X154503064Y-88379231D02*
X154200000Y-88682295D01*
%TO.N,/PB1*%
X153700000Y-88400000D02*
X153700000Y-89009231D01*
X154300000Y-87800000D02*
X153700000Y-88400000D01*
%TO.N,/PB6*%
X147800000Y-95974231D02*
X147800000Y-96041665D01*
%TO.N,/PB3*%
X148307565Y-93466666D02*
X147800000Y-93466666D01*
X149085000Y-92689231D02*
X148307565Y-93466666D01*
X149520000Y-92689231D02*
X149085000Y-92689231D01*
%TO.N,/PA15*%
X148219102Y-92189231D02*
X147800000Y-92608333D01*
X149520000Y-92189231D02*
X148219102Y-92189231D01*
%TO.N,/PA14*%
X147860769Y-91689231D02*
X147800000Y-91750000D01*
X149520000Y-91689231D02*
X147860769Y-91689231D01*
D46*
%TO.N,GND*%
X124300000Y-100600000D02*
X124300000Y-99700000D01*
X126050000Y-100600000D02*
X124300000Y-100600000D01*
X127150001Y-105349999D02*
X126800000Y-105700000D01*
X128500000Y-105349999D02*
X127150001Y-105349999D01*
X132649999Y-101849999D02*
X132700000Y-101900000D01*
X130900000Y-101849999D02*
X132649999Y-101849999D01*
D48*
%TO.N,/NRST*%
X142799999Y-98600000D02*
X142349999Y-99050000D01*
X143700000Y-98600000D02*
X142799999Y-98600000D01*
%TO.N,GND*%
X145500000Y-102116901D02*
X145500000Y-101039230D01*
X145616902Y-102116901D02*
X145500000Y-101999999D01*
D49*
X145500000Y-101039230D02*
X147700000Y-101039230D01*
D48*
%TO.N,Net-(D1-K)*%
X132612500Y-85300001D02*
X131600000Y-86312501D01*
X132612500Y-84200000D02*
X132612500Y-85300001D01*
D46*
%TO.N,GND*%
X129500000Y-85487500D02*
X130787500Y-84200000D01*
X129500000Y-89200000D02*
X129500000Y-85487500D01*
X129099999Y-89600001D02*
X129500000Y-89200000D01*
X128400000Y-89600001D02*
X129099999Y-89600001D01*
D48*
%TO.N,+3.3V*%
X144400000Y-94583202D02*
X144180000Y-94363202D01*
X144400000Y-95456550D02*
X144400000Y-94583202D01*
X144802682Y-95859232D02*
X144400000Y-95456550D01*
X144180000Y-92945001D02*
X145575000Y-91550001D01*
X145575000Y-91550001D02*
X146300000Y-91550001D01*
X145259232Y-95859232D02*
X144802682Y-95859232D01*
X144180000Y-94363202D02*
X144180000Y-92945001D01*
X145500000Y-96100000D02*
X145259232Y-95859232D01*
X145500000Y-96989230D02*
X145500000Y-96100000D01*
X146500000Y-97989230D02*
X145500000Y-96989230D01*
D49*
X146500000Y-98000000D02*
X148400000Y-98000000D01*
X145500000Y-98000000D02*
X146500000Y-98000000D01*
D48*
X146500000Y-98000000D02*
X146500000Y-97989230D01*
%TO.N,GND*%
X144800000Y-93700000D02*
X144800000Y-94389232D01*
X144800000Y-94389232D02*
X145500000Y-95089232D01*
D49*
%TO.N,+3.3V*%
X143000000Y-83200000D02*
X143800000Y-84000000D01*
X143000000Y-82800000D02*
X143000000Y-83200000D01*
X143000000Y-82800000D02*
X148035768Y-82800000D01*
X137956987Y-82800000D02*
X143000000Y-82800000D01*
X133650000Y-100450000D02*
X134350000Y-99750000D01*
X142604671Y-101404671D02*
X143100000Y-101900000D01*
X142604671Y-101370000D02*
X142604671Y-101404671D01*
X133650000Y-100450000D02*
X133150001Y-99950001D01*
X134570000Y-101370000D02*
X133650000Y-100450000D01*
D46*
%TO.N,GND*%
X159925000Y-85575000D02*
X160400000Y-85100000D01*
X159075000Y-85575000D02*
X159925000Y-85575000D01*
X159075000Y-85100001D02*
X159075000Y-85575000D01*
X158525000Y-84550001D02*
X159075000Y-85100001D01*
X155400000Y-84550001D02*
X158525000Y-84550001D01*
D47*
%TO.N,/PA10*%
X149230000Y-89009231D02*
X150200000Y-89009231D01*
X149220769Y-89000000D02*
X149230000Y-89009231D01*
X148400000Y-89000000D02*
X149220769Y-89000000D01*
D46*
%TO.N,GND*%
X164950000Y-97039231D02*
X163650000Y-97039231D01*
X164950000Y-95000000D02*
X163650000Y-95000000D01*
X166075000Y-85400000D02*
X166075000Y-87625000D01*
X163100000Y-87600000D02*
X163125000Y-87625000D01*
X163100000Y-85400000D02*
X163100000Y-87600000D01*
X163125000Y-85425000D02*
X163100000Y-85400000D01*
D45*
%TO.N,/RF_Antenna*%
X164600000Y-91130000D02*
X164600000Y-89150000D01*
D48*
%TO.N,GND*%
X165100000Y-92269999D02*
X165100000Y-93500000D01*
D46*
X162080000Y-90620000D02*
X162600000Y-90100000D01*
X162080000Y-91200000D02*
X162080000Y-90620000D01*
D48*
X163162499Y-91130001D02*
X163000000Y-91292500D01*
X164100000Y-91130001D02*
X163162499Y-91130001D01*
X165100000Y-91130001D02*
X165100000Y-92269999D01*
X164100000Y-91130001D02*
X164100000Y-92269999D01*
D46*
X162907500Y-91200000D02*
X163000000Y-91292500D01*
X162080000Y-91200000D02*
X162907500Y-91200000D01*
D45*
%TO.N,Net-(FL1-IN)*%
X164200000Y-93200000D02*
X164600000Y-92800000D01*
X164600000Y-92800000D02*
X164600000Y-92270000D01*
X163300000Y-93200000D02*
X164200000Y-93200000D01*
X163000000Y-92107500D02*
X163000000Y-92900000D01*
X163000000Y-92900000D02*
X163300000Y-93200000D01*
X162907500Y-92200000D02*
X163000000Y-92107500D01*
X162085000Y-92200000D02*
X162907500Y-92200000D01*
%TO.N,/RF*%
X161120000Y-92195000D02*
X161115000Y-92200000D01*
X161120000Y-91200000D02*
X161120000Y-92195000D01*
X161109231Y-91189231D02*
X161120000Y-91200000D01*
X156380000Y-91189231D02*
X161109231Y-91189231D01*
D48*
%TO.N,+3.3V*%
X150100000Y-96800000D02*
X150200000Y-96700000D01*
X150200000Y-96700000D02*
X150200000Y-95869231D01*
X149600000Y-96800000D02*
X150100000Y-96800000D01*
X149200000Y-97200000D02*
X149600000Y-96800000D01*
X149200000Y-95509231D02*
X149520000Y-95189231D01*
X149200000Y-97200000D02*
X149200000Y-95509231D01*
D49*
X148400000Y-98000000D02*
X149200000Y-97200000D01*
X145500000Y-98000000D02*
X145500000Y-99139232D01*
X145500000Y-96989230D02*
X145500000Y-98000000D01*
D46*
%TO.N,GND*%
X145500000Y-95089232D02*
X145500000Y-94249999D01*
X145500000Y-94249999D02*
X146300000Y-93449999D01*
D50*
%TO.N,/USB_D-*%
X148802499Y-89754231D02*
X148867499Y-89689231D01*
X145884139Y-89754231D02*
X148802499Y-89754231D01*
X143023369Y-92615001D02*
X145884139Y-89754231D01*
X148867499Y-89689231D02*
X149520000Y-89689231D01*
X133740901Y-92615001D02*
X143023369Y-92615001D01*
%TO.N,/USB_D+*%
X148867499Y-90189231D02*
X149520000Y-90189231D01*
%TO.N,/USB_D-*%
X132975901Y-91850001D02*
X133740901Y-92615001D01*
%TO.N,/USB_D+*%
X148802499Y-90124231D02*
X148867499Y-90189231D01*
%TO.N,/USB_D-*%
X132068400Y-91850001D02*
X132975901Y-91850001D01*
%TO.N,/USB_D+*%
X146037399Y-90124231D02*
X148802499Y-90124231D01*
X132068400Y-93750001D02*
X132975901Y-93750001D01*
X132975901Y-93750001D02*
X133740901Y-92985001D01*
X143176629Y-92985001D02*
X146037399Y-90124231D01*
X133740901Y-92985001D02*
X143176629Y-92985001D01*
D49*
%TO.N,+3.3V*%
X136930000Y-83826988D02*
X136828494Y-83928494D01*
X136930000Y-81089231D02*
X136930000Y-83826988D01*
X136828494Y-83928494D02*
X137956987Y-82800000D01*
X135428493Y-85328494D02*
X136828494Y-83928494D01*
D48*
X154100000Y-97700000D02*
X153700000Y-97300000D01*
X154750331Y-97700000D02*
X154100000Y-97700000D01*
X155839562Y-98789231D02*
X154750331Y-97700000D01*
X153700000Y-97300000D02*
X153700000Y-95869231D01*
%TO.N,GND*%
X154700000Y-90689231D02*
X152950000Y-92439231D01*
X156380000Y-90689231D02*
X154700000Y-90689231D01*
X156405000Y-90714231D02*
X156380000Y-90689231D01*
X159575000Y-90714231D02*
X156405000Y-90714231D01*
X159800000Y-90489231D02*
X159575000Y-90714231D01*
D46*
%TO.N,+3.3V*%
X158950001Y-89049999D02*
X160400000Y-87600000D01*
X158950001Y-89300000D02*
X158950001Y-89049999D01*
%TO.N,GND*%
X160849999Y-88450001D02*
X160849999Y-89300000D01*
X161500000Y-87800000D02*
X160849999Y-88450001D01*
%TO.N,+3.3V*%
X158055770Y-90194231D02*
X156949424Y-90194231D01*
X158950001Y-89300000D02*
X158055770Y-90194231D01*
D48*
%TO.N,/HSE_OUT*%
X159075000Y-87325000D02*
X159075000Y-87025000D01*
X156710769Y-89689231D02*
X159075000Y-87325000D01*
X156380000Y-89689231D02*
X156710769Y-89689231D01*
%TO.N,/HSE_IN*%
X156900000Y-88400000D02*
X156290769Y-89009231D01*
X156900000Y-85700000D02*
X156900000Y-88400000D01*
X157025000Y-85575000D02*
X156900000Y-85700000D01*
X156290769Y-89009231D02*
X155700000Y-89009231D01*
X157925000Y-85575000D02*
X157025000Y-85575000D01*
D46*
%TO.N,/SMPS_FB*%
X153558401Y-86449999D02*
X153445900Y-86562500D01*
X155400000Y-86449999D02*
X153558401Y-86449999D01*
%TO.N,/SMPS_LX1*%
X151621800Y-84437500D02*
X153445900Y-84437500D01*
D48*
%TO.N,/SMPS_LX*%
X151400000Y-86784300D02*
X151621800Y-86562500D01*
X151400000Y-87841458D02*
X151400000Y-86784300D01*
X151700000Y-88141458D02*
X151400000Y-87841458D01*
X151700000Y-89009231D02*
X151700000Y-88141458D01*
%TO.N,+3.3V*%
X150200000Y-87600000D02*
X150200000Y-85689232D01*
X151200000Y-88600000D02*
X150200000Y-87600000D01*
X150200000Y-85689232D02*
X149049999Y-84539231D01*
X151200000Y-89009231D02*
X151200000Y-88600000D01*
X149049999Y-87649999D02*
X149049999Y-86539231D01*
X149704231Y-88304231D02*
X149049999Y-87649999D01*
X150428002Y-88304231D02*
X149704231Y-88304231D01*
X150700000Y-88576229D02*
X150428002Y-88304231D01*
X150700000Y-89009231D02*
X150700000Y-88576229D01*
%TO.N,GND*%
X152200000Y-87800000D02*
X152200000Y-89009231D01*
%TO.N,/LSE_IN*%
X149849999Y-99139232D02*
X147700000Y-99139232D01*
X150700000Y-98289231D02*
X149849999Y-99139232D01*
X150700000Y-95869231D02*
X150700000Y-98289231D01*
%TO.N,/LSE_OUT*%
X151200000Y-98789231D02*
X151950000Y-99539231D01*
X151200000Y-95869231D02*
X151200000Y-98789231D01*
D49*
%TO.N,+3.3V*%
X149049999Y-83814231D02*
X149049999Y-84539231D01*
X148035768Y-82800000D02*
X149049999Y-83814231D01*
D46*
%TO.N,GND*%
X147200000Y-87800000D02*
X147200000Y-86589230D01*
X147200000Y-86589230D02*
X147150001Y-86539231D01*
D49*
%TO.N,+3.3V*%
X149049999Y-84539231D02*
X149049999Y-86539231D01*
D46*
%TO.N,GND*%
X147150001Y-84539231D02*
X147150001Y-86539231D01*
D49*
%TO.N,+3.3V*%
X142604671Y-101370000D02*
X134570000Y-101370000D01*
X144835439Y-99139232D02*
X142604671Y-101370000D01*
X133150001Y-99950001D02*
X130900000Y-99950001D01*
X145560439Y-99139232D02*
X144835439Y-99139232D01*
D48*
%TO.N,GND*%
X140450001Y-99050000D02*
X140450001Y-100400000D01*
%TO.N,Net-(R1-Pad1)*%
X139987499Y-95800001D02*
X136737500Y-99050000D01*
X143362500Y-95800001D02*
X139987499Y-95800001D01*
%TO.N,GND*%
X140400000Y-100400000D02*
X140450001Y-100349999D01*
%TO.N,/NRST*%
X138562500Y-98967500D02*
X139530000Y-98000000D01*
X141299999Y-98000000D02*
X142349999Y-99050000D01*
X138562500Y-99050000D02*
X138562500Y-98967500D01*
X139530000Y-98000000D02*
X141299999Y-98000000D01*
D49*
%TO.N,+3.3V*%
X130599999Y-99650000D02*
X130900000Y-99950001D01*
X128750000Y-99650000D02*
X130599999Y-99650000D01*
D46*
%TO.N,GND*%
X157789561Y-100839231D02*
X157739561Y-100789231D01*
X157789561Y-102100000D02*
X157789561Y-100839231D01*
%TO.N,+3.3V*%
X155889561Y-102100000D02*
X155889561Y-100839231D01*
X155889561Y-100839231D02*
X155839561Y-100789231D01*
D48*
X155839562Y-98789231D02*
X155839562Y-98578793D01*
D49*
%TO.N,GND*%
X157739560Y-100789230D02*
X157739561Y-100789231D01*
%TO.N,+3.3V*%
X155839561Y-98789232D02*
X155839562Y-98789231D01*
X155839561Y-100789231D02*
X155839561Y-98789232D01*
%TO.N,GND*%
X157739560Y-98789231D02*
X157739560Y-100789230D01*
D47*
X150479231Y-91700000D02*
X150490000Y-91689231D01*
D46*
X135570002Y-97070002D02*
X135600000Y-97100000D01*
X135570002Y-95800000D02*
X135570002Y-97070002D01*
D49*
%TO.N,+3.3V*%
X134299999Y-90200000D02*
X135570002Y-90200000D01*
X133387500Y-89287501D02*
X134299999Y-90200000D01*
D46*
%TO.N,Net-(U2-IN)*%
X128400000Y-98000000D02*
X126750000Y-99650000D01*
X130800000Y-98000000D02*
X128400000Y-98000000D01*
X131912500Y-96887500D02*
X130800000Y-98000000D01*
X131912500Y-95600000D02*
X131912500Y-96887500D01*
X126750000Y-99650000D02*
X126050000Y-99650000D01*
D47*
%TO.N,/BOOT0*%
X142110769Y-85089231D02*
X141407500Y-85792500D01*
X143960439Y-85089231D02*
X142110769Y-85089231D01*
X141407500Y-85792500D02*
X141407500Y-86800000D01*
D46*
%TO.N,GND*%
X128500000Y-105349999D02*
X130900000Y-105349999D01*
%TO.N,Net-(U2-NR)*%
X130650001Y-103450001D02*
X128750000Y-101550000D01*
X130900000Y-103450001D02*
X130650001Y-103450001D01*
%TO.N,Net-(U2-EN)*%
X128500000Y-103450001D02*
X126662499Y-103450001D01*
X126662499Y-103450001D02*
X124600000Y-105512500D01*
%TO.N,Net-(U2-IN)*%
X127200000Y-100000000D02*
X126850000Y-99650000D01*
X127200000Y-101937572D02*
X127200000Y-100000000D01*
X125450072Y-103687500D02*
X127200000Y-101937572D01*
X126850000Y-99650000D02*
X126050000Y-99650000D01*
X124600000Y-103687500D02*
X125450072Y-103687500D01*
%TO.N,/BOOT0*%
X139770000Y-86800000D02*
X139570001Y-86999999D01*
X141407500Y-86800000D02*
X139770000Y-86800000D01*
X139370002Y-86800000D02*
X139570001Y-86999999D01*
X137732500Y-86800000D02*
X139370002Y-86800000D01*
%TO.N,GND*%
X140400000Y-84270002D02*
X139570001Y-85100001D01*
X140400000Y-83900001D02*
X140400000Y-84270002D01*
X135107500Y-87600000D02*
X135907500Y-86800000D01*
X134600000Y-87600000D02*
X135107500Y-87600000D01*
%TO.N,VBUS (+5V)*%
X130087500Y-94889339D02*
X131000000Y-93976839D01*
X130087500Y-95600000D02*
X130087500Y-94889339D01*
X129687501Y-95200001D02*
X130087500Y-95600000D01*
X126990000Y-95200001D02*
X129687501Y-95200001D01*
X131000000Y-93263401D02*
X131463400Y-92800001D01*
X131000000Y-93976839D02*
X131000000Y-93263401D01*
%TO.N,GND*%
X120900000Y-84300001D02*
X121387500Y-84787501D01*
D48*
X157925000Y-86799914D02*
X159075000Y-85649914D01*
D46*
X147700000Y-101039230D02*
X149053441Y-101039230D01*
X149053441Y-101039230D02*
X149250000Y-101235789D01*
D48*
X129731600Y-92800001D02*
X128891618Y-92800001D01*
D46*
X126990000Y-89600001D02*
X128400000Y-89600001D01*
X152246559Y-101039230D02*
X152050000Y-101235789D01*
X140400001Y-83900002D02*
X140400000Y-83900001D01*
X126990000Y-96000001D02*
X128400000Y-96000001D01*
X127312500Y-85387501D02*
X127312500Y-86000001D01*
X128300000Y-84400001D02*
X127312500Y-85387501D01*
D48*
X128891618Y-92800001D02*
X128491617Y-92400000D01*
D46*
X153700000Y-101039230D02*
X152246559Y-101039230D01*
X121387500Y-84787501D02*
X121387500Y-86000001D01*
D49*
%TO.N,+3.3V*%
X161750000Y-93376078D02*
X161747099Y-93373177D01*
X161750000Y-98189231D02*
X162450000Y-98889231D01*
X133387500Y-87369487D02*
X135428493Y-85328494D01*
D46*
X161747099Y-95036330D02*
X161750000Y-95039231D01*
D49*
X161750000Y-97039231D02*
X161750000Y-95039231D01*
D48*
X161750000Y-94689231D02*
X161750000Y-95039231D01*
D49*
X135428493Y-84328494D02*
X135428493Y-85328494D01*
X134900000Y-83800001D02*
X135428493Y-84328494D01*
X133387500Y-89287501D02*
X131600000Y-89287501D01*
X133387500Y-89287501D02*
X133387500Y-87369487D01*
X161750000Y-97039231D02*
X161750000Y-98189231D01*
%TO.N,/LSE_IN*%
X147700000Y-99139232D02*
X149050001Y-99139232D01*
X149050001Y-99139232D02*
X149450000Y-99539231D01*
%TO.N,/LSE_OUT*%
X153700000Y-99139232D02*
X152349999Y-99139232D01*
X152349999Y-99139232D02*
X151950000Y-99539231D01*
D51*
%TO.N,Net-(J1-SHIELD)*%
X122704900Y-84975001D02*
X122235000Y-85444901D01*
X125487500Y-87552501D02*
X126415000Y-88480001D01*
X122235000Y-85444901D02*
X122235000Y-88480001D01*
D46*
X122235000Y-88480001D02*
X122235000Y-97120001D01*
D51*
X124462500Y-84975001D02*
X122704900Y-84975001D01*
X125487500Y-86000001D02*
X124462500Y-84975001D01*
X125487500Y-86000001D02*
X125487500Y-87552501D01*
D46*
%TO.N,VBUS (+5V)*%
X131463400Y-92800001D02*
X132068400Y-92800001D01*
X131000000Y-91623163D02*
X131000000Y-92336601D01*
X129776838Y-90400001D02*
X131000000Y-91623163D01*
X131000000Y-92336601D02*
X131463400Y-92800001D01*
X126990000Y-90400001D02*
X129776838Y-90400001D01*
D48*
%TO.N,Net-(J1-D--PadA7)*%
X129731600Y-91850001D02*
X129581600Y-91700001D01*
X126311880Y-93050001D02*
X126065000Y-92803121D01*
X126990000Y-93050001D02*
X126311880Y-93050001D01*
X126065000Y-92803121D02*
X126065000Y-92235001D01*
X128018119Y-91700001D02*
X127668119Y-92050001D01*
X126065000Y-92235001D02*
X126250000Y-92050001D01*
X127668119Y-92050001D02*
X126990000Y-92050001D01*
X126250000Y-92050001D02*
X126990000Y-92050001D01*
X129581600Y-91700001D02*
X128018119Y-91700001D01*
D51*
%TO.N,Net-(J1-CC1)*%
X126347236Y-91550001D02*
X126989999Y-91550001D01*
X125200000Y-90402765D02*
X126347236Y-91550001D01*
X125200000Y-88981727D02*
X125200000Y-90402765D01*
X123212500Y-86994227D02*
X125200000Y-88981727D01*
X123212500Y-86000001D02*
X123212500Y-86994227D01*
D48*
%TO.N,Net-(J1-D+-PadA6)*%
X127915000Y-93465001D02*
X128000000Y-93550001D01*
X127668120Y-92550001D02*
X127915000Y-92796881D01*
X126990000Y-92550001D02*
X127668120Y-92550001D01*
X127915000Y-92796881D02*
X127915000Y-93465001D01*
X129581600Y-93900001D02*
X128350000Y-93900001D01*
X128350000Y-93900001D02*
X128000000Y-93550001D01*
X129731600Y-93750001D02*
X129581600Y-93900001D01*
X128000000Y-93550001D02*
X126990000Y-93550001D01*
D46*
%TO.N,Net-(R6-Pad1)*%
X143300000Y-86818750D02*
X143300000Y-89981250D01*
X143300000Y-89981250D02*
X143537500Y-90218750D01*
D45*
%TO.N,GND*%
X150540001Y-90639232D02*
X150590000Y-90689231D01*
D48*
%TO.N,+3.3V*%
X157477135Y-91689231D02*
X156380000Y-91689231D01*
X157887904Y-92100000D02*
X157477135Y-91689231D01*
X159100000Y-92100000D02*
X157887904Y-92100000D01*
X161100000Y-94100000D02*
X159100000Y-92100000D01*
X161750000Y-94100000D02*
X161100000Y-94100000D01*
%TO.N,Net-(J1-CC2)*%
X125180000Y-95420000D02*
X123405000Y-97195000D01*
X125180000Y-95385554D02*
X125180000Y-95420000D01*
X126990000Y-94550001D02*
X126015553Y-94550001D01*
X123405000Y-98101663D02*
X122498163Y-99008500D01*
X123405000Y-97195000D02*
X123405000Y-98101663D01*
X126015553Y-94550001D02*
X125180000Y-95385554D01*
D49*
%TO.N,GND*%
X122498163Y-100833500D02*
X122498163Y-102448164D01*
X122498163Y-102448164D02*
X122500000Y-102450001D01*
D46*
X124300000Y-100600000D02*
X122731663Y-100600000D01*
X122731663Y-100600000D02*
X122498163Y-100833500D01*
X122498163Y-100833500D02*
X121166500Y-100833500D01*
X121166500Y-100833500D02*
X120800000Y-101200000D01*
%TD*%
M02*
