%TF.GenerationSoftware,KiCad,Pcbnew,8.0.4*%
%TF.CreationDate,2024-08-23T17:35:39+03:00*%
%TF.ProjectId,STM32-Pill,53544d33-322d-4506-996c-6c2e6b696361,rev?*%
%TF.SameCoordinates,Original*%
%TF.FileFunction,Copper,L5,Inr*%
%TF.FilePolarity,Positive*%
%FSLAX46Y46*%
G04 Gerber Fmt 4.6, Leading zero omitted, Abs format (unit mm)*
G04 Created by KiCad (PCBNEW 8.0.4) date 2024-08-23 17:35:39*
%MOMM*%
%LPD*%
G01*
G04 APERTURE LIST*
%TA.AperFunction,ComponentPad*%
%ADD10O,1.700000X1.700000*%
%TD*%
%TA.AperFunction,ComponentPad*%
%ADD11R,1.700000X1.700000*%
%TD*%
%TA.AperFunction,ComponentPad*%
%ADD12O,2.100000X1.000000*%
%TD*%
%TA.AperFunction,ComponentPad*%
%ADD13O,1.800000X1.000000*%
%TD*%
%TA.AperFunction,ViaPad*%
%ADD14C,0.650000*%
%TD*%
%TA.AperFunction,ViaPad*%
%ADD15C,0.900000*%
%TD*%
%TA.AperFunction,ViaPad*%
%ADD16C,0.700000*%
%TD*%
G04 APERTURE END LIST*
D10*
%TO.N,/PB8*%
%TO.C,J2*%
X134380000Y-104489231D03*
%TO.N,/PB9*%
X136920000Y-104489231D03*
%TO.N,/PA0*%
X139460001Y-104489231D03*
%TO.N,/PA1*%
X142000000Y-104489231D03*
%TO.N,/PA2*%
X144540000Y-104489231D03*
%TO.N,/PA3*%
X147080000Y-104489231D03*
%TO.N,/PA4*%
X149619999Y-104489231D03*
%TO.N,/PA5*%
X152160000Y-104489231D03*
%TO.N,/PA6*%
X154700000Y-104489231D03*
%TO.N,/PA7*%
X157240000Y-104489231D03*
%TO.N,/PA8*%
X159780000Y-104489231D03*
%TO.N,/PA9*%
X162320001Y-104489231D03*
%TO.N,/PE4*%
X164860000Y-104489231D03*
D11*
%TO.N,GND*%
X167400000Y-104489231D03*
%TD*%
D12*
%TO.N,Net-(J1-SHIELD)*%
%TO.C,J1*%
X126415000Y-88480001D03*
D13*
X122235000Y-88480001D03*
D12*
X126415000Y-97120001D03*
D13*
X122235000Y-97120001D03*
%TD*%
D11*
%TO.N,GND*%
%TO.C,J3*%
X134390000Y-81089231D03*
D10*
%TO.N,+3.3V*%
X136930000Y-81089231D03*
%TO.N,/PB7*%
X139469999Y-81089231D03*
%TO.N,/PB6*%
X142010000Y-81089231D03*
%TO.N,/PB5*%
X144550000Y-81089231D03*
%TO.N,/PB4*%
X147090000Y-81089231D03*
%TO.N,/PB3*%
X149630000Y-81089231D03*
%TO.N,/PA14*%
X152170001Y-81089231D03*
%TO.N,/PA13*%
X154710000Y-81089231D03*
%TO.N,/PA10*%
X157250000Y-81089231D03*
%TO.N,/PA15*%
X159790000Y-81089231D03*
%TO.N,/PB2*%
X162329999Y-81089231D03*
%TO.N,/PB1*%
X164870000Y-81089231D03*
%TO.N,/PB0*%
X167410000Y-81089231D03*
%TD*%
D14*
%TO.N,/PE4*%
X153400000Y-87800000D03*
%TO.N,/PB0*%
X155400000Y-87800000D03*
%TO.N,/PB1*%
X154300000Y-87800000D03*
%TO.N,/PB2*%
X158000000Y-92700000D03*
%TO.N,/PA13*%
X147829231Y-90689231D03*
%TO.N,/NRST*%
X153105000Y-97089231D03*
D15*
%TO.N,GND*%
X120800000Y-101200000D03*
X124300000Y-99700000D03*
X126800000Y-105700000D03*
X132700000Y-101900000D03*
D14*
X145500000Y-102116901D03*
D15*
%TO.N,+3.3V*%
X143800000Y-84000000D03*
X143100000Y-101900000D03*
X134350000Y-99750000D03*
%TO.N,GND*%
X154300000Y-93900000D03*
X151500000Y-91100000D03*
D14*
%TO.N,/BOOT0*%
X151795000Y-97089231D03*
D15*
%TO.N,GND*%
X160400000Y-85100000D03*
X166075000Y-85400000D03*
X163100000Y-85400000D03*
X165100000Y-93500000D03*
X162600000Y-90100000D03*
%TO.N,+3.3V*%
X160400000Y-87600000D03*
D16*
%TO.N,GND*%
X164950000Y-95000000D03*
D14*
X157789561Y-102100000D03*
D16*
X128491617Y-92400000D03*
X120900000Y-84300001D03*
X140450001Y-100400000D03*
X128300000Y-84400001D03*
X149250000Y-101235789D03*
X144800000Y-93700000D03*
X140400000Y-83900001D03*
X147200000Y-87800000D03*
X134600000Y-87600000D03*
X128400000Y-89600001D03*
X152050000Y-101235789D03*
X159800000Y-90489231D03*
X128400000Y-96000001D03*
D14*
X152200000Y-87800000D03*
D16*
X161500000Y-87800000D03*
X164950000Y-97039231D03*
D14*
%TO.N,+3.3V*%
X155889561Y-102100000D03*
D15*
X161747099Y-93373177D03*
D16*
X134900000Y-83800001D03*
D15*
X162450000Y-98889231D03*
D14*
%TO.N,/NRST*%
X143700000Y-98600000D03*
%TO.N,/BOOT0*%
X143960439Y-85089231D03*
%TO.N,/PA2*%
X156187500Y-97089231D03*
%TO.N,/PA1*%
X155275000Y-97089231D03*
%TO.N,/PA10*%
X148400000Y-89000000D03*
%TO.N,/PA3*%
X157100000Y-97089231D03*
%TO.N,/PA0*%
X154362500Y-97089231D03*
%TO.N,/PB5*%
X147800000Y-95183332D03*
%TO.N,/PB6*%
X147800000Y-96041665D03*
%TO.N,/PB4*%
X147800000Y-94324999D03*
%TO.N,/PB7*%
X147800000Y-96900000D03*
%TO.N,/PA15*%
X147800000Y-92608333D03*
%TO.N,/PB3*%
X147800000Y-93466666D03*
D16*
%TO.N,GND*%
X135600000Y-97100000D03*
D14*
%TO.N,/PA14*%
X147800000Y-91750000D03*
%TD*%
%TA.AperFunction,Conductor*%
%TO.N,GND*%
G36*
X169500811Y-79198646D02*
G01*
X169711040Y-79215194D01*
X169722505Y-79217010D01*
X169924715Y-79265559D01*
X169935755Y-79269146D01*
X170127889Y-79348733D01*
X170138223Y-79353998D01*
X170315549Y-79462666D01*
X170324933Y-79469486D01*
X170342075Y-79484126D01*
X170483060Y-79604542D01*
X170491271Y-79612753D01*
X170626332Y-79770893D01*
X170633157Y-79780287D01*
X170741812Y-79957599D01*
X170747083Y-79967945D01*
X170826659Y-80160066D01*
X170830247Y-80171109D01*
X170878794Y-80373326D01*
X170880611Y-80384796D01*
X170897189Y-80595488D01*
X170897417Y-80601293D01*
X170897417Y-80651467D01*
X170897418Y-80651480D01*
X170897418Y-104995004D01*
X170897190Y-105000811D01*
X170880642Y-105211041D01*
X170878825Y-105222510D01*
X170830277Y-105424719D01*
X170826689Y-105435762D01*
X170747104Y-105627894D01*
X170741832Y-105638240D01*
X170633175Y-105815551D01*
X170626350Y-105824945D01*
X170491291Y-105983080D01*
X170483080Y-105991291D01*
X170324945Y-106126350D01*
X170315551Y-106133175D01*
X170138240Y-106241832D01*
X170127894Y-106247104D01*
X169935762Y-106326689D01*
X169924719Y-106330277D01*
X169722510Y-106378825D01*
X169711040Y-106380642D01*
X169500809Y-106397189D01*
X169495022Y-106397417D01*
X169491125Y-106397417D01*
X169491107Y-106397418D01*
X169447280Y-106397418D01*
X169447252Y-106397419D01*
X121206785Y-106399501D01*
X121202909Y-106399501D01*
X121197103Y-106399273D01*
X120986872Y-106382727D01*
X120975403Y-106380910D01*
X120773195Y-106332365D01*
X120762151Y-106328777D01*
X120570018Y-106249192D01*
X120559672Y-106243920D01*
X120382360Y-106135263D01*
X120372966Y-106128438D01*
X120214831Y-105993379D01*
X120206620Y-105985168D01*
X120122518Y-105886697D01*
X120071561Y-105827033D01*
X120064736Y-105817639D01*
X120063456Y-105815551D01*
X120007596Y-105724395D01*
X119956079Y-105640327D01*
X119950807Y-105629981D01*
X119906711Y-105523525D01*
X119871219Y-105437840D01*
X119867636Y-105426812D01*
X119819088Y-105224592D01*
X119817272Y-105213127D01*
X119810654Y-105129040D01*
X119800727Y-105002897D01*
X119800499Y-104997091D01*
X119800499Y-104489227D01*
X133224571Y-104489227D01*
X133224571Y-104489234D01*
X133244242Y-104701534D01*
X133244243Y-104701540D01*
X133302593Y-104906614D01*
X133302596Y-104906624D01*
X133397632Y-105097483D01*
X133397634Y-105097486D01*
X133526128Y-105267638D01*
X133683698Y-105411283D01*
X133864981Y-105523529D01*
X134063802Y-105600552D01*
X134273390Y-105639731D01*
X134486610Y-105639731D01*
X134696198Y-105600552D01*
X134895019Y-105523529D01*
X135076302Y-105411283D01*
X135233872Y-105267638D01*
X135362366Y-105097486D01*
X135457405Y-104906620D01*
X135515756Y-104701541D01*
X135521684Y-104637572D01*
X135535429Y-104489234D01*
X135535429Y-104489227D01*
X135764571Y-104489227D01*
X135764571Y-104489234D01*
X135784242Y-104701534D01*
X135784243Y-104701540D01*
X135842593Y-104906614D01*
X135842596Y-104906624D01*
X135937632Y-105097483D01*
X135937634Y-105097486D01*
X136066128Y-105267638D01*
X136223698Y-105411283D01*
X136404981Y-105523529D01*
X136603802Y-105600552D01*
X136813390Y-105639731D01*
X137026610Y-105639731D01*
X137236198Y-105600552D01*
X137435019Y-105523529D01*
X137616302Y-105411283D01*
X137773872Y-105267638D01*
X137902366Y-105097486D01*
X137997405Y-104906620D01*
X138055756Y-104701541D01*
X138061684Y-104637572D01*
X138075429Y-104489234D01*
X138075429Y-104489227D01*
X138304572Y-104489227D01*
X138304572Y-104489234D01*
X138324243Y-104701534D01*
X138324244Y-104701540D01*
X138382594Y-104906614D01*
X138382597Y-104906624D01*
X138477633Y-105097483D01*
X138477635Y-105097486D01*
X138606129Y-105267638D01*
X138763699Y-105411283D01*
X138944982Y-105523529D01*
X139143803Y-105600552D01*
X139353391Y-105639731D01*
X139566611Y-105639731D01*
X139776199Y-105600552D01*
X139975020Y-105523529D01*
X140156303Y-105411283D01*
X140313873Y-105267638D01*
X140442367Y-105097486D01*
X140537406Y-104906620D01*
X140595757Y-104701541D01*
X140601685Y-104637572D01*
X140615430Y-104489234D01*
X140615430Y-104489227D01*
X140844571Y-104489227D01*
X140844571Y-104489234D01*
X140864242Y-104701534D01*
X140864243Y-104701540D01*
X140922593Y-104906614D01*
X140922596Y-104906624D01*
X141017632Y-105097483D01*
X141017634Y-105097486D01*
X141146128Y-105267638D01*
X141303698Y-105411283D01*
X141484981Y-105523529D01*
X141683802Y-105600552D01*
X141893390Y-105639731D01*
X142106610Y-105639731D01*
X142316198Y-105600552D01*
X142515019Y-105523529D01*
X142696302Y-105411283D01*
X142853872Y-105267638D01*
X142982366Y-105097486D01*
X143077405Y-104906620D01*
X143135756Y-104701541D01*
X143141684Y-104637572D01*
X143155429Y-104489234D01*
X143155429Y-104489227D01*
X143384571Y-104489227D01*
X143384571Y-104489234D01*
X143404242Y-104701534D01*
X143404243Y-104701540D01*
X143462593Y-104906614D01*
X143462596Y-104906624D01*
X143557632Y-105097483D01*
X143557634Y-105097486D01*
X143686128Y-105267638D01*
X143843698Y-105411283D01*
X144024981Y-105523529D01*
X144223802Y-105600552D01*
X144433390Y-105639731D01*
X144646610Y-105639731D01*
X144856198Y-105600552D01*
X145055019Y-105523529D01*
X145236302Y-105411283D01*
X145393872Y-105267638D01*
X145522366Y-105097486D01*
X145617405Y-104906620D01*
X145675756Y-104701541D01*
X145681684Y-104637572D01*
X145695429Y-104489234D01*
X145695429Y-104489227D01*
X145924571Y-104489227D01*
X145924571Y-104489234D01*
X145944242Y-104701534D01*
X145944243Y-104701540D01*
X146002593Y-104906614D01*
X146002596Y-104906624D01*
X146097632Y-105097483D01*
X146097634Y-105097486D01*
X146226128Y-105267638D01*
X146383698Y-105411283D01*
X146564981Y-105523529D01*
X146763802Y-105600552D01*
X146973390Y-105639731D01*
X147186610Y-105639731D01*
X147396198Y-105600552D01*
X147595019Y-105523529D01*
X147776302Y-105411283D01*
X147933872Y-105267638D01*
X148062366Y-105097486D01*
X148157405Y-104906620D01*
X148215756Y-104701541D01*
X148221684Y-104637572D01*
X148235429Y-104489234D01*
X148235429Y-104489227D01*
X148464570Y-104489227D01*
X148464570Y-104489234D01*
X148484241Y-104701534D01*
X148484242Y-104701540D01*
X148542592Y-104906614D01*
X148542595Y-104906624D01*
X148637631Y-105097483D01*
X148637633Y-105097486D01*
X148766127Y-105267638D01*
X148923697Y-105411283D01*
X149104980Y-105523529D01*
X149303801Y-105600552D01*
X149513389Y-105639731D01*
X149726609Y-105639731D01*
X149936197Y-105600552D01*
X150135018Y-105523529D01*
X150316301Y-105411283D01*
X150473871Y-105267638D01*
X150602365Y-105097486D01*
X150697404Y-104906620D01*
X150755755Y-104701541D01*
X150761683Y-104637572D01*
X150775428Y-104489234D01*
X150775428Y-104489227D01*
X151004571Y-104489227D01*
X151004571Y-104489234D01*
X151024242Y-104701534D01*
X151024243Y-104701540D01*
X151082593Y-104906614D01*
X151082596Y-104906624D01*
X151177632Y-105097483D01*
X151177634Y-105097486D01*
X151306128Y-105267638D01*
X151463698Y-105411283D01*
X151644981Y-105523529D01*
X151843802Y-105600552D01*
X152053390Y-105639731D01*
X152266610Y-105639731D01*
X152476198Y-105600552D01*
X152675019Y-105523529D01*
X152856302Y-105411283D01*
X153013872Y-105267638D01*
X153142366Y-105097486D01*
X153237405Y-104906620D01*
X153295756Y-104701541D01*
X153301684Y-104637572D01*
X153315429Y-104489234D01*
X153315429Y-104489227D01*
X153544571Y-104489227D01*
X153544571Y-104489234D01*
X153564242Y-104701534D01*
X153564243Y-104701540D01*
X153622593Y-104906614D01*
X153622596Y-104906624D01*
X153717632Y-105097483D01*
X153717634Y-105097486D01*
X153846128Y-105267638D01*
X154003698Y-105411283D01*
X154184981Y-105523529D01*
X154383802Y-105600552D01*
X154593390Y-105639731D01*
X154806610Y-105639731D01*
X155016198Y-105600552D01*
X155215019Y-105523529D01*
X155396302Y-105411283D01*
X155553872Y-105267638D01*
X155682366Y-105097486D01*
X155777405Y-104906620D01*
X155835756Y-104701541D01*
X155841684Y-104637572D01*
X155855429Y-104489234D01*
X155855429Y-104489227D01*
X156084571Y-104489227D01*
X156084571Y-104489234D01*
X156104242Y-104701534D01*
X156104243Y-104701540D01*
X156162593Y-104906614D01*
X156162596Y-104906624D01*
X156257632Y-105097483D01*
X156257634Y-105097486D01*
X156386128Y-105267638D01*
X156543698Y-105411283D01*
X156724981Y-105523529D01*
X156923802Y-105600552D01*
X157133390Y-105639731D01*
X157346610Y-105639731D01*
X157556198Y-105600552D01*
X157755019Y-105523529D01*
X157936302Y-105411283D01*
X158093872Y-105267638D01*
X158222366Y-105097486D01*
X158317405Y-104906620D01*
X158375756Y-104701541D01*
X158381684Y-104637572D01*
X158395429Y-104489234D01*
X158395429Y-104489227D01*
X158624571Y-104489227D01*
X158624571Y-104489234D01*
X158644242Y-104701534D01*
X158644243Y-104701540D01*
X158702593Y-104906614D01*
X158702596Y-104906624D01*
X158797632Y-105097483D01*
X158797634Y-105097486D01*
X158926128Y-105267638D01*
X159083698Y-105411283D01*
X159264981Y-105523529D01*
X159463802Y-105600552D01*
X159673390Y-105639731D01*
X159886610Y-105639731D01*
X160096198Y-105600552D01*
X160295019Y-105523529D01*
X160476302Y-105411283D01*
X160633872Y-105267638D01*
X160762366Y-105097486D01*
X160857405Y-104906620D01*
X160915756Y-104701541D01*
X160921684Y-104637572D01*
X160935429Y-104489234D01*
X160935429Y-104489227D01*
X161164572Y-104489227D01*
X161164572Y-104489234D01*
X161184243Y-104701534D01*
X161184244Y-104701540D01*
X161242594Y-104906614D01*
X161242597Y-104906624D01*
X161337633Y-105097483D01*
X161337635Y-105097486D01*
X161466129Y-105267638D01*
X161623699Y-105411283D01*
X161804982Y-105523529D01*
X162003803Y-105600552D01*
X162213391Y-105639731D01*
X162426611Y-105639731D01*
X162636199Y-105600552D01*
X162835020Y-105523529D01*
X163016303Y-105411283D01*
X163173873Y-105267638D01*
X163302367Y-105097486D01*
X163397406Y-104906620D01*
X163455757Y-104701541D01*
X163461685Y-104637572D01*
X163475430Y-104489234D01*
X163475430Y-104489227D01*
X163704571Y-104489227D01*
X163704571Y-104489234D01*
X163724242Y-104701534D01*
X163724243Y-104701540D01*
X163782593Y-104906614D01*
X163782596Y-104906624D01*
X163877632Y-105097483D01*
X163877634Y-105097486D01*
X164006128Y-105267638D01*
X164163698Y-105411283D01*
X164344981Y-105523529D01*
X164543802Y-105600552D01*
X164753390Y-105639731D01*
X164966610Y-105639731D01*
X165176198Y-105600552D01*
X165375019Y-105523529D01*
X165556302Y-105411283D01*
X165713872Y-105267638D01*
X165842366Y-105097486D01*
X165937405Y-104906620D01*
X165995756Y-104701541D01*
X166002316Y-104630744D01*
X166028725Y-104580642D01*
X166082827Y-104563888D01*
X166132930Y-104590297D01*
X166150000Y-104637572D01*
X166150000Y-105370712D01*
X166164834Y-105464379D01*
X166164835Y-105464380D01*
X166222360Y-105577277D01*
X166311953Y-105666870D01*
X166424850Y-105724395D01*
X166518518Y-105739230D01*
X167275000Y-105739230D01*
X167275000Y-104973375D01*
X167334174Y-104989231D01*
X167465826Y-104989231D01*
X167525000Y-104973375D01*
X167525000Y-105739230D01*
X168281481Y-105739230D01*
X168375148Y-105724396D01*
X168375149Y-105724395D01*
X168488046Y-105666870D01*
X168577639Y-105577277D01*
X168635164Y-105464380D01*
X168635164Y-105464379D01*
X168650000Y-105370712D01*
X168650000Y-104614231D01*
X167884144Y-104614231D01*
X167900000Y-104555057D01*
X167900000Y-104423405D01*
X167884144Y-104364231D01*
X168649999Y-104364231D01*
X168649999Y-103607748D01*
X168635165Y-103514082D01*
X168635164Y-103514081D01*
X168577639Y-103401184D01*
X168488046Y-103311591D01*
X168375149Y-103254066D01*
X168281482Y-103239231D01*
X167525000Y-103239231D01*
X167525000Y-104005086D01*
X167465826Y-103989231D01*
X167334174Y-103989231D01*
X167275000Y-104005086D01*
X167275000Y-103239231D01*
X166518518Y-103239231D01*
X166424851Y-103254065D01*
X166424850Y-103254066D01*
X166311953Y-103311591D01*
X166222360Y-103401184D01*
X166164835Y-103514081D01*
X166164835Y-103514082D01*
X166150000Y-103607749D01*
X166150000Y-104340887D01*
X166128326Y-104393213D01*
X166076000Y-104414887D01*
X166023674Y-104393213D01*
X166002316Y-104347714D01*
X165995757Y-104276928D01*
X165995756Y-104276921D01*
X165968812Y-104182224D01*
X165937405Y-104071842D01*
X165913237Y-104023306D01*
X165842367Y-103880978D01*
X165842363Y-103880972D01*
X165838843Y-103876310D01*
X165713872Y-103710824D01*
X165556302Y-103567179D01*
X165375019Y-103454933D01*
X165176198Y-103377910D01*
X165084150Y-103360703D01*
X164966613Y-103338731D01*
X164966610Y-103338731D01*
X164753390Y-103338731D01*
X164753386Y-103338731D01*
X164596670Y-103368027D01*
X164543802Y-103377910D01*
X164543800Y-103377910D01*
X164543798Y-103377911D01*
X164344986Y-103454931D01*
X164344981Y-103454933D01*
X164344976Y-103454935D01*
X164344976Y-103454936D01*
X164163700Y-103567177D01*
X164006130Y-103710821D01*
X163877636Y-103880972D01*
X163877632Y-103880978D01*
X163782596Y-104071837D01*
X163782593Y-104071847D01*
X163724243Y-104276921D01*
X163724242Y-104276927D01*
X163704571Y-104489227D01*
X163475430Y-104489227D01*
X163455758Y-104276927D01*
X163455757Y-104276921D01*
X163428813Y-104182224D01*
X163397406Y-104071842D01*
X163373238Y-104023306D01*
X163302368Y-103880978D01*
X163302364Y-103880972D01*
X163298844Y-103876310D01*
X163173873Y-103710824D01*
X163016303Y-103567179D01*
X162835020Y-103454933D01*
X162636199Y-103377910D01*
X162544151Y-103360703D01*
X162426614Y-103338731D01*
X162426611Y-103338731D01*
X162213391Y-103338731D01*
X162213387Y-103338731D01*
X162056671Y-103368027D01*
X162003803Y-103377910D01*
X162003801Y-103377910D01*
X162003799Y-103377911D01*
X161804987Y-103454931D01*
X161804982Y-103454933D01*
X161804977Y-103454935D01*
X161804977Y-103454936D01*
X161623701Y-103567177D01*
X161466131Y-103710821D01*
X161337637Y-103880972D01*
X161337633Y-103880978D01*
X161242597Y-104071837D01*
X161242594Y-104071847D01*
X161184244Y-104276921D01*
X161184243Y-104276927D01*
X161164572Y-104489227D01*
X160935429Y-104489227D01*
X160915757Y-104276927D01*
X160915756Y-104276921D01*
X160888812Y-104182224D01*
X160857405Y-104071842D01*
X160833237Y-104023306D01*
X160762367Y-103880978D01*
X160762363Y-103880972D01*
X160758843Y-103876310D01*
X160633872Y-103710824D01*
X160476302Y-103567179D01*
X160295019Y-103454933D01*
X160096198Y-103377910D01*
X160004150Y-103360703D01*
X159886613Y-103338731D01*
X159886610Y-103338731D01*
X159673390Y-103338731D01*
X159673386Y-103338731D01*
X159516670Y-103368027D01*
X159463802Y-103377910D01*
X159463800Y-103377910D01*
X159463798Y-103377911D01*
X159264986Y-103454931D01*
X159264981Y-103454933D01*
X159264976Y-103454935D01*
X159264976Y-103454936D01*
X159083700Y-103567177D01*
X158926130Y-103710821D01*
X158797636Y-103880972D01*
X158797632Y-103880978D01*
X158702596Y-104071837D01*
X158702593Y-104071847D01*
X158644243Y-104276921D01*
X158644242Y-104276927D01*
X158624571Y-104489227D01*
X158395429Y-104489227D01*
X158375757Y-104276927D01*
X158375756Y-104276921D01*
X158348812Y-104182224D01*
X158317405Y-104071842D01*
X158293237Y-104023306D01*
X158222367Y-103880978D01*
X158222363Y-103880972D01*
X158218843Y-103876310D01*
X158093872Y-103710824D01*
X157936302Y-103567179D01*
X157755019Y-103454933D01*
X157556198Y-103377910D01*
X157464150Y-103360703D01*
X157346613Y-103338731D01*
X157346610Y-103338731D01*
X157133390Y-103338731D01*
X157133386Y-103338731D01*
X156976670Y-103368027D01*
X156923802Y-103377910D01*
X156923800Y-103377910D01*
X156923798Y-103377911D01*
X156724986Y-103454931D01*
X156724981Y-103454933D01*
X156724976Y-103454935D01*
X156724976Y-103454936D01*
X156543700Y-103567177D01*
X156386130Y-103710821D01*
X156257636Y-103880972D01*
X156257632Y-103880978D01*
X156162596Y-104071837D01*
X156162593Y-104071847D01*
X156104243Y-104276921D01*
X156104242Y-104276927D01*
X156084571Y-104489227D01*
X155855429Y-104489227D01*
X155835757Y-104276927D01*
X155835756Y-104276921D01*
X155808812Y-104182224D01*
X155777405Y-104071842D01*
X155753237Y-104023306D01*
X155682367Y-103880978D01*
X155682363Y-103880972D01*
X155678843Y-103876310D01*
X155553872Y-103710824D01*
X155396302Y-103567179D01*
X155215019Y-103454933D01*
X155016198Y-103377910D01*
X154924150Y-103360703D01*
X154806613Y-103338731D01*
X154806610Y-103338731D01*
X154593390Y-103338731D01*
X154593386Y-103338731D01*
X154436670Y-103368027D01*
X154383802Y-103377910D01*
X154383800Y-103377910D01*
X154383798Y-103377911D01*
X154184986Y-103454931D01*
X154184981Y-103454933D01*
X154184976Y-103454935D01*
X154184976Y-103454936D01*
X154003700Y-103567177D01*
X153846130Y-103710821D01*
X153717636Y-103880972D01*
X153717632Y-103880978D01*
X153622596Y-104071837D01*
X153622593Y-104071847D01*
X153564243Y-104276921D01*
X153564242Y-104276927D01*
X153544571Y-104489227D01*
X153315429Y-104489227D01*
X153295757Y-104276927D01*
X153295756Y-104276921D01*
X153268812Y-104182224D01*
X153237405Y-104071842D01*
X153213237Y-104023306D01*
X153142367Y-103880978D01*
X153142363Y-103880972D01*
X153138843Y-103876310D01*
X153013872Y-103710824D01*
X152856302Y-103567179D01*
X152675019Y-103454933D01*
X152476198Y-103377910D01*
X152384150Y-103360703D01*
X152266613Y-103338731D01*
X152266610Y-103338731D01*
X152053390Y-103338731D01*
X152053386Y-103338731D01*
X151896670Y-103368027D01*
X151843802Y-103377910D01*
X151843800Y-103377910D01*
X151843798Y-103377911D01*
X151644986Y-103454931D01*
X151644981Y-103454933D01*
X151644976Y-103454935D01*
X151644976Y-103454936D01*
X151463700Y-103567177D01*
X151306130Y-103710821D01*
X151177636Y-103880972D01*
X151177632Y-103880978D01*
X151082596Y-104071837D01*
X151082593Y-104071847D01*
X151024243Y-104276921D01*
X151024242Y-104276927D01*
X151004571Y-104489227D01*
X150775428Y-104489227D01*
X150755756Y-104276927D01*
X150755755Y-104276921D01*
X150728811Y-104182224D01*
X150697404Y-104071842D01*
X150673236Y-104023306D01*
X150602366Y-103880978D01*
X150602362Y-103880972D01*
X150598842Y-103876310D01*
X150473871Y-103710824D01*
X150316301Y-103567179D01*
X150135018Y-103454933D01*
X149936197Y-103377910D01*
X149844149Y-103360703D01*
X149726612Y-103338731D01*
X149726609Y-103338731D01*
X149513389Y-103338731D01*
X149513385Y-103338731D01*
X149356669Y-103368027D01*
X149303801Y-103377910D01*
X149303799Y-103377910D01*
X149303797Y-103377911D01*
X149104985Y-103454931D01*
X149104980Y-103454933D01*
X149104975Y-103454935D01*
X149104975Y-103454936D01*
X148923699Y-103567177D01*
X148766129Y-103710821D01*
X148637635Y-103880972D01*
X148637631Y-103880978D01*
X148542595Y-104071837D01*
X148542592Y-104071847D01*
X148484242Y-104276921D01*
X148484241Y-104276927D01*
X148464570Y-104489227D01*
X148235429Y-104489227D01*
X148215757Y-104276927D01*
X148215756Y-104276921D01*
X148188812Y-104182224D01*
X148157405Y-104071842D01*
X148133237Y-104023306D01*
X148062367Y-103880978D01*
X148062363Y-103880972D01*
X148058843Y-103876310D01*
X147933872Y-103710824D01*
X147776302Y-103567179D01*
X147595019Y-103454933D01*
X147396198Y-103377910D01*
X147304150Y-103360703D01*
X147186613Y-103338731D01*
X147186610Y-103338731D01*
X146973390Y-103338731D01*
X146973386Y-103338731D01*
X146816670Y-103368027D01*
X146763802Y-103377910D01*
X146763800Y-103377910D01*
X146763798Y-103377911D01*
X146564986Y-103454931D01*
X146564981Y-103454933D01*
X146564976Y-103454935D01*
X146564976Y-103454936D01*
X146383700Y-103567177D01*
X146226130Y-103710821D01*
X146097636Y-103880972D01*
X146097632Y-103880978D01*
X146002596Y-104071837D01*
X146002593Y-104071847D01*
X145944243Y-104276921D01*
X145944242Y-104276927D01*
X145924571Y-104489227D01*
X145695429Y-104489227D01*
X145675757Y-104276927D01*
X145675756Y-104276921D01*
X145648812Y-104182224D01*
X145617405Y-104071842D01*
X145593237Y-104023306D01*
X145522367Y-103880978D01*
X145522363Y-103880972D01*
X145518843Y-103876310D01*
X145393872Y-103710824D01*
X145236302Y-103567179D01*
X145055019Y-103454933D01*
X144856198Y-103377910D01*
X144764150Y-103360703D01*
X144646613Y-103338731D01*
X144646610Y-103338731D01*
X144433390Y-103338731D01*
X144433386Y-103338731D01*
X144276670Y-103368027D01*
X144223802Y-103377910D01*
X144223800Y-103377910D01*
X144223798Y-103377911D01*
X144024986Y-103454931D01*
X144024981Y-103454933D01*
X144024976Y-103454935D01*
X144024976Y-103454936D01*
X143843700Y-103567177D01*
X143686130Y-103710821D01*
X143557636Y-103880972D01*
X143557632Y-103880978D01*
X143462596Y-104071837D01*
X143462593Y-104071847D01*
X143404243Y-104276921D01*
X143404242Y-104276927D01*
X143384571Y-104489227D01*
X143155429Y-104489227D01*
X143135757Y-104276927D01*
X143135756Y-104276921D01*
X143108812Y-104182224D01*
X143077405Y-104071842D01*
X143053237Y-104023306D01*
X142982367Y-103880978D01*
X142982363Y-103880972D01*
X142978843Y-103876310D01*
X142853872Y-103710824D01*
X142696302Y-103567179D01*
X142515019Y-103454933D01*
X142316198Y-103377910D01*
X142224150Y-103360703D01*
X142106613Y-103338731D01*
X142106610Y-103338731D01*
X141893390Y-103338731D01*
X141893386Y-103338731D01*
X141736670Y-103368027D01*
X141683802Y-103377910D01*
X141683800Y-103377910D01*
X141683798Y-103377911D01*
X141484986Y-103454931D01*
X141484981Y-103454933D01*
X141484976Y-103454935D01*
X141484976Y-103454936D01*
X141303700Y-103567177D01*
X141146130Y-103710821D01*
X141017636Y-103880972D01*
X141017632Y-103880978D01*
X140922596Y-104071837D01*
X140922593Y-104071847D01*
X140864243Y-104276921D01*
X140864242Y-104276927D01*
X140844571Y-104489227D01*
X140615430Y-104489227D01*
X140595758Y-104276927D01*
X140595757Y-104276921D01*
X140568813Y-104182224D01*
X140537406Y-104071842D01*
X140513238Y-104023306D01*
X140442368Y-103880978D01*
X140442364Y-103880972D01*
X140438844Y-103876310D01*
X140313873Y-103710824D01*
X140156303Y-103567179D01*
X139975020Y-103454933D01*
X139776199Y-103377910D01*
X139684151Y-103360703D01*
X139566614Y-103338731D01*
X139566611Y-103338731D01*
X139353391Y-103338731D01*
X139353387Y-103338731D01*
X139196671Y-103368027D01*
X139143803Y-103377910D01*
X139143801Y-103377910D01*
X139143799Y-103377911D01*
X138944987Y-103454931D01*
X138944982Y-103454933D01*
X138944977Y-103454935D01*
X138944977Y-103454936D01*
X138763701Y-103567177D01*
X138606131Y-103710821D01*
X138477637Y-103880972D01*
X138477633Y-103880978D01*
X138382597Y-104071837D01*
X138382594Y-104071847D01*
X138324244Y-104276921D01*
X138324243Y-104276927D01*
X138304572Y-104489227D01*
X138075429Y-104489227D01*
X138055757Y-104276927D01*
X138055756Y-104276921D01*
X138028812Y-104182224D01*
X137997405Y-104071842D01*
X137973237Y-104023306D01*
X137902367Y-103880978D01*
X137902363Y-103880972D01*
X137898843Y-103876310D01*
X137773872Y-103710824D01*
X137616302Y-103567179D01*
X137435019Y-103454933D01*
X137236198Y-103377910D01*
X137144150Y-103360703D01*
X137026613Y-103338731D01*
X137026610Y-103338731D01*
X136813390Y-103338731D01*
X136813386Y-103338731D01*
X136656670Y-103368027D01*
X136603802Y-103377910D01*
X136603800Y-103377910D01*
X136603798Y-103377911D01*
X136404986Y-103454931D01*
X136404981Y-103454933D01*
X136404976Y-103454935D01*
X136404976Y-103454936D01*
X136223700Y-103567177D01*
X136066130Y-103710821D01*
X135937636Y-103880972D01*
X135937632Y-103880978D01*
X135842596Y-104071837D01*
X135842593Y-104071847D01*
X135784243Y-104276921D01*
X135784242Y-104276927D01*
X135764571Y-104489227D01*
X135535429Y-104489227D01*
X135515757Y-104276927D01*
X135515756Y-104276921D01*
X135488812Y-104182224D01*
X135457405Y-104071842D01*
X135433237Y-104023306D01*
X135362367Y-103880978D01*
X135362363Y-103880972D01*
X135358843Y-103876310D01*
X135233872Y-103710824D01*
X135076302Y-103567179D01*
X134895019Y-103454933D01*
X134696198Y-103377910D01*
X134604150Y-103360703D01*
X134486613Y-103338731D01*
X134486610Y-103338731D01*
X134273390Y-103338731D01*
X134273386Y-103338731D01*
X134116670Y-103368027D01*
X134063802Y-103377910D01*
X134063800Y-103377910D01*
X134063798Y-103377911D01*
X133864986Y-103454931D01*
X133864981Y-103454933D01*
X133864976Y-103454935D01*
X133864976Y-103454936D01*
X133683700Y-103567177D01*
X133526130Y-103710821D01*
X133397636Y-103880972D01*
X133397632Y-103880978D01*
X133302596Y-104071837D01*
X133302593Y-104071847D01*
X133244243Y-104276921D01*
X133244242Y-104276927D01*
X133224571Y-104489227D01*
X119800499Y-104489227D01*
X119800499Y-101900000D01*
X142344751Y-101900000D01*
X142363687Y-102068059D01*
X142363689Y-102068067D01*
X142419544Y-102227691D01*
X142509519Y-102370885D01*
X142509521Y-102370887D01*
X142509523Y-102370890D01*
X142629110Y-102490477D01*
X142629112Y-102490478D01*
X142629114Y-102490480D01*
X142772308Y-102580455D01*
X142772310Y-102580456D01*
X142931941Y-102636313D01*
X143100000Y-102655249D01*
X143268059Y-102636313D01*
X143427690Y-102580456D01*
X143570890Y-102490477D01*
X143690477Y-102370890D01*
X143780456Y-102227690D01*
X143825138Y-102099996D01*
X155259467Y-102099996D01*
X155259467Y-102100003D01*
X155277775Y-102250790D01*
X155331639Y-102392818D01*
X155399051Y-102490480D01*
X155417929Y-102517830D01*
X155531627Y-102618557D01*
X155531628Y-102618557D01*
X155531630Y-102618559D01*
X155666123Y-102689146D01*
X155666127Y-102689148D01*
X155813612Y-102725500D01*
X155813616Y-102725500D01*
X155965506Y-102725500D01*
X155965510Y-102725500D01*
X156112995Y-102689148D01*
X156247495Y-102618557D01*
X156361193Y-102517830D01*
X156447482Y-102392819D01*
X156501346Y-102250791D01*
X156519655Y-102100000D01*
X156501346Y-101949209D01*
X156447482Y-101807181D01*
X156361193Y-101682170D01*
X156247495Y-101581443D01*
X156247493Y-101581442D01*
X156247491Y-101581440D01*
X156112998Y-101510853D01*
X156112995Y-101510852D01*
X155965510Y-101474500D01*
X155813612Y-101474500D01*
X155666123Y-101510853D01*
X155531630Y-101581440D01*
X155417928Y-101682170D01*
X155331639Y-101807181D01*
X155277775Y-101949209D01*
X155259467Y-102099996D01*
X143825138Y-102099996D01*
X143836313Y-102068059D01*
X143855249Y-101900000D01*
X143836313Y-101731941D01*
X143780456Y-101572310D01*
X143741840Y-101510853D01*
X143690480Y-101429114D01*
X143690478Y-101429112D01*
X143690477Y-101429110D01*
X143570890Y-101309523D01*
X143570887Y-101309521D01*
X143570885Y-101309519D01*
X143427691Y-101219544D01*
X143268067Y-101163689D01*
X143268059Y-101163687D01*
X143100000Y-101144751D01*
X142931940Y-101163687D01*
X142931932Y-101163689D01*
X142772308Y-101219544D01*
X142629114Y-101309519D01*
X142509519Y-101429114D01*
X142419544Y-101572308D01*
X142363689Y-101731932D01*
X142363687Y-101731940D01*
X142344751Y-101900000D01*
X119800499Y-101900000D01*
X119800499Y-99750000D01*
X133594751Y-99750000D01*
X133613687Y-99918059D01*
X133613689Y-99918067D01*
X133669544Y-100077691D01*
X133759519Y-100220885D01*
X133759521Y-100220887D01*
X133759523Y-100220890D01*
X133879110Y-100340477D01*
X133879112Y-100340478D01*
X133879114Y-100340480D01*
X134022308Y-100430455D01*
X134022310Y-100430456D01*
X134181941Y-100486313D01*
X134350000Y-100505249D01*
X134518059Y-100486313D01*
X134677690Y-100430456D01*
X134820890Y-100340477D01*
X134940477Y-100220890D01*
X135030456Y-100077690D01*
X135086313Y-99918059D01*
X135105249Y-99750000D01*
X135086313Y-99581941D01*
X135030456Y-99422310D01*
X134940477Y-99279110D01*
X134820890Y-99159523D01*
X134820887Y-99159521D01*
X134820885Y-99159519D01*
X134677691Y-99069544D01*
X134518067Y-99013689D01*
X134518059Y-99013687D01*
X134350000Y-98994751D01*
X134181940Y-99013687D01*
X134181932Y-99013689D01*
X134022308Y-99069544D01*
X133879114Y-99159519D01*
X133759519Y-99279114D01*
X133669544Y-99422308D01*
X133613689Y-99581932D01*
X133613687Y-99581940D01*
X133594751Y-99750000D01*
X119800499Y-99750000D01*
X119800499Y-98599996D01*
X143069906Y-98599996D01*
X143069906Y-98600003D01*
X143088214Y-98750790D01*
X143142078Y-98892818D01*
X143225510Y-99013689D01*
X143228368Y-99017830D01*
X143342066Y-99118557D01*
X143342067Y-99118557D01*
X143342069Y-99118559D01*
X143420120Y-99159523D01*
X143476566Y-99189148D01*
X143624051Y-99225500D01*
X143624055Y-99225500D01*
X143775945Y-99225500D01*
X143775949Y-99225500D01*
X143923434Y-99189148D01*
X144057934Y-99118557D01*
X144171632Y-99017830D01*
X144257921Y-98892819D01*
X144259282Y-98889231D01*
X161694751Y-98889231D01*
X161713687Y-99057290D01*
X161713689Y-99057298D01*
X161769544Y-99216922D01*
X161859519Y-99360116D01*
X161859521Y-99360118D01*
X161859523Y-99360121D01*
X161979110Y-99479708D01*
X161979112Y-99479709D01*
X161979114Y-99479711D01*
X162122308Y-99569686D01*
X162122310Y-99569687D01*
X162281941Y-99625544D01*
X162450000Y-99644480D01*
X162618059Y-99625544D01*
X162777690Y-99569687D01*
X162920890Y-99479708D01*
X163040477Y-99360121D01*
X163130456Y-99216921D01*
X163186313Y-99057290D01*
X163205249Y-98889231D01*
X163186313Y-98721172D01*
X163130456Y-98561541D01*
X163040477Y-98418341D01*
X162920890Y-98298754D01*
X162920887Y-98298752D01*
X162920885Y-98298750D01*
X162777691Y-98208775D01*
X162618067Y-98152920D01*
X162618059Y-98152918D01*
X162450000Y-98133982D01*
X162281940Y-98152918D01*
X162281932Y-98152920D01*
X162122308Y-98208775D01*
X161979114Y-98298750D01*
X161859519Y-98418345D01*
X161769544Y-98561539D01*
X161713689Y-98721163D01*
X161713687Y-98721171D01*
X161694751Y-98889231D01*
X144259282Y-98889231D01*
X144311785Y-98750791D01*
X144330094Y-98600000D01*
X144325424Y-98561541D01*
X144311785Y-98449209D01*
X144257921Y-98307181D01*
X144171632Y-98182170D01*
X144138613Y-98152918D01*
X144057934Y-98081443D01*
X144057932Y-98081442D01*
X144057930Y-98081440D01*
X143923437Y-98010853D01*
X143923434Y-98010852D01*
X143775949Y-97974500D01*
X143624051Y-97974500D01*
X143476562Y-98010853D01*
X143342069Y-98081440D01*
X143228367Y-98182170D01*
X143142078Y-98307181D01*
X143088214Y-98449209D01*
X143069906Y-98599996D01*
X119800499Y-98599996D01*
X119800499Y-97041160D01*
X121034500Y-97041160D01*
X121034500Y-97198841D01*
X121065261Y-97353492D01*
X121065264Y-97353502D01*
X121125603Y-97499175D01*
X121125605Y-97499178D01*
X121125606Y-97499180D01*
X121156680Y-97545686D01*
X121198175Y-97607788D01*
X121213211Y-97630290D01*
X121324711Y-97741790D01*
X121455821Y-97829395D01*
X121455826Y-97829397D01*
X121455825Y-97829397D01*
X121601498Y-97889736D01*
X121601503Y-97889738D01*
X121756158Y-97920501D01*
X121756160Y-97920501D01*
X122713840Y-97920501D01*
X122713842Y-97920501D01*
X122868497Y-97889738D01*
X123014179Y-97829395D01*
X123145289Y-97741790D01*
X123256789Y-97630290D01*
X123344394Y-97499180D01*
X123404737Y-97353498D01*
X123435500Y-97198843D01*
X123435500Y-97041160D01*
X125064500Y-97041160D01*
X125064500Y-97198841D01*
X125095261Y-97353492D01*
X125095264Y-97353502D01*
X125155603Y-97499175D01*
X125155605Y-97499178D01*
X125155606Y-97499180D01*
X125186680Y-97545686D01*
X125228175Y-97607788D01*
X125243211Y-97630290D01*
X125354711Y-97741790D01*
X125485821Y-97829395D01*
X125485826Y-97829397D01*
X125485825Y-97829397D01*
X125631498Y-97889736D01*
X125631503Y-97889738D01*
X125786158Y-97920501D01*
X125786160Y-97920501D01*
X127043840Y-97920501D01*
X127043842Y-97920501D01*
X127198497Y-97889738D01*
X127344179Y-97829395D01*
X127475289Y-97741790D01*
X127586789Y-97630290D01*
X127674394Y-97499180D01*
X127734737Y-97353498D01*
X127765500Y-97198843D01*
X127765500Y-97041159D01*
X127734737Y-96886504D01*
X127716291Y-96841970D01*
X127674396Y-96740826D01*
X127674395Y-96740824D01*
X127674394Y-96740822D01*
X127586789Y-96609712D01*
X127475289Y-96498212D01*
X127451280Y-96482170D01*
X127434312Y-96470832D01*
X127344179Y-96410607D01*
X127344175Y-96410605D01*
X127344173Y-96410604D01*
X127344174Y-96410604D01*
X127198501Y-96350265D01*
X127198491Y-96350262D01*
X127094925Y-96329662D01*
X127043842Y-96319501D01*
X126271845Y-96319501D01*
X126219519Y-96297827D01*
X126197845Y-96245501D01*
X126219519Y-96193175D01*
X126234845Y-96181415D01*
X126249066Y-96173204D01*
X126274505Y-96158517D01*
X126383516Y-96049506D01*
X126460599Y-95915995D01*
X126500499Y-95767086D01*
X126500500Y-95767086D01*
X126500500Y-95612916D01*
X126500499Y-95612915D01*
X126489123Y-95570461D01*
X126460599Y-95464007D01*
X126385610Y-95334123D01*
X126383518Y-95330499D01*
X126383517Y-95330498D01*
X126383516Y-95330496D01*
X126274505Y-95221485D01*
X126274502Y-95221483D01*
X126274501Y-95221482D01*
X126140995Y-95144402D01*
X126140990Y-95144400D01*
X125992085Y-95104501D01*
X125992083Y-95104501D01*
X125837917Y-95104501D01*
X125837915Y-95104501D01*
X125689009Y-95144400D01*
X125689004Y-95144402D01*
X125555498Y-95221482D01*
X125446481Y-95330499D01*
X125369401Y-95464005D01*
X125369399Y-95464010D01*
X125329500Y-95612915D01*
X125329500Y-95767086D01*
X125369399Y-95915991D01*
X125369401Y-95915996D01*
X125446481Y-96049502D01*
X125446482Y-96049503D01*
X125446484Y-96049506D01*
X125555495Y-96158517D01*
X125555497Y-96158518D01*
X125555498Y-96158519D01*
X125651711Y-96214068D01*
X125686190Y-96259002D01*
X125678797Y-96315154D01*
X125634877Y-96348854D01*
X125634985Y-96349208D01*
X125634045Y-96349493D01*
X125633863Y-96349633D01*
X125632659Y-96349913D01*
X125631498Y-96350265D01*
X125485825Y-96410604D01*
X125354711Y-96498211D01*
X125354710Y-96498213D01*
X125243212Y-96609711D01*
X125243210Y-96609712D01*
X125155603Y-96740826D01*
X125095264Y-96886499D01*
X125095261Y-96886509D01*
X125064500Y-97041160D01*
X123435500Y-97041160D01*
X123435500Y-97041159D01*
X123404737Y-96886504D01*
X123386291Y-96841970D01*
X123344396Y-96740826D01*
X123344395Y-96740824D01*
X123344394Y-96740822D01*
X123256789Y-96609712D01*
X123145289Y-96498212D01*
X123121280Y-96482170D01*
X123104312Y-96470832D01*
X123014179Y-96410607D01*
X123014175Y-96410605D01*
X123014173Y-96410604D01*
X123014174Y-96410604D01*
X122868501Y-96350265D01*
X122868491Y-96350262D01*
X122764925Y-96329662D01*
X122713842Y-96319501D01*
X121756158Y-96319501D01*
X121712315Y-96328221D01*
X121601508Y-96350262D01*
X121601498Y-96350265D01*
X121455825Y-96410604D01*
X121324711Y-96498211D01*
X121324710Y-96498213D01*
X121213212Y-96609711D01*
X121213210Y-96609712D01*
X121125603Y-96740826D01*
X121065264Y-96886499D01*
X121065261Y-96886509D01*
X121034500Y-97041160D01*
X119800499Y-97041160D01*
X119800499Y-92782696D01*
X119800499Y-91749996D01*
X147169906Y-91749996D01*
X147169906Y-91750003D01*
X147188214Y-91900790D01*
X147242078Y-92042818D01*
X147242079Y-92042819D01*
X147307175Y-92137127D01*
X147307177Y-92137129D01*
X147319064Y-92192505D01*
X147307177Y-92221203D01*
X147242078Y-92315514D01*
X147188214Y-92457542D01*
X147169906Y-92608329D01*
X147169906Y-92608336D01*
X147188214Y-92759123D01*
X147242078Y-92901151D01*
X147242079Y-92901152D01*
X147307175Y-92995460D01*
X147307177Y-92995462D01*
X147319064Y-93050838D01*
X147307177Y-93079536D01*
X147242078Y-93173847D01*
X147188214Y-93315875D01*
X147169906Y-93466662D01*
X147169906Y-93466669D01*
X147188214Y-93617456D01*
X147242078Y-93759484D01*
X147242079Y-93759485D01*
X147307175Y-93853793D01*
X147307177Y-93853795D01*
X147319064Y-93909171D01*
X147307177Y-93937869D01*
X147242078Y-94032180D01*
X147188214Y-94174208D01*
X147169906Y-94324995D01*
X147169906Y-94325002D01*
X147188214Y-94475789D01*
X147242078Y-94617817D01*
X147242079Y-94617818D01*
X147307175Y-94712126D01*
X147307177Y-94712128D01*
X147319064Y-94767504D01*
X147307177Y-94796202D01*
X147242078Y-94890513D01*
X147188214Y-95032541D01*
X147169906Y-95183328D01*
X147169906Y-95183335D01*
X147188214Y-95334122D01*
X147242078Y-95476150D01*
X147242079Y-95476151D01*
X147307175Y-95570459D01*
X147307177Y-95570461D01*
X147319064Y-95625837D01*
X147307177Y-95654535D01*
X147242078Y-95748846D01*
X147188214Y-95890874D01*
X147169906Y-96041661D01*
X147169906Y-96041668D01*
X147188214Y-96192455D01*
X147242078Y-96334483D01*
X147307177Y-96428795D01*
X147319064Y-96484171D01*
X147307177Y-96512868D01*
X147242080Y-96607177D01*
X147242079Y-96607179D01*
X147188214Y-96749209D01*
X147169906Y-96899996D01*
X147169906Y-96900003D01*
X147188214Y-97050790D01*
X147242078Y-97192818D01*
X147292293Y-97265566D01*
X147328368Y-97317830D01*
X147442066Y-97418557D01*
X147442067Y-97418557D01*
X147442069Y-97418559D01*
X147576562Y-97489146D01*
X147576566Y-97489148D01*
X147724051Y-97525500D01*
X147724055Y-97525500D01*
X147875945Y-97525500D01*
X147875949Y-97525500D01*
X148023434Y-97489148D01*
X148157934Y-97418557D01*
X148271632Y-97317830D01*
X148357921Y-97192819D01*
X148397208Y-97089227D01*
X151164906Y-97089227D01*
X151164906Y-97089234D01*
X151183214Y-97240021D01*
X151237078Y-97382049D01*
X151317925Y-97499175D01*
X151323368Y-97507061D01*
X151437066Y-97607788D01*
X151437067Y-97607788D01*
X151437069Y-97607790D01*
X151571562Y-97678377D01*
X151571566Y-97678379D01*
X151719051Y-97714731D01*
X151719055Y-97714731D01*
X151870945Y-97714731D01*
X151870949Y-97714731D01*
X152018434Y-97678379D01*
X152152934Y-97607788D01*
X152266632Y-97507061D01*
X152352921Y-97382050D01*
X152370848Y-97334780D01*
X152380809Y-97308516D01*
X152419630Y-97267276D01*
X152476241Y-97265566D01*
X152517481Y-97304387D01*
X152519191Y-97308516D01*
X152547078Y-97382049D01*
X152627925Y-97499175D01*
X152633368Y-97507061D01*
X152747066Y-97607788D01*
X152747067Y-97607788D01*
X152747069Y-97607790D01*
X152881562Y-97678377D01*
X152881566Y-97678379D01*
X153029051Y-97714731D01*
X153029055Y-97714731D01*
X153180945Y-97714731D01*
X153180949Y-97714731D01*
X153328434Y-97678379D01*
X153462934Y-97607788D01*
X153576632Y-97507061D01*
X153662921Y-97382050D01*
X153664559Y-97377730D01*
X153703378Y-97336492D01*
X153759990Y-97334780D01*
X153801230Y-97373600D01*
X153802934Y-97377714D01*
X153804579Y-97382049D01*
X153804580Y-97382052D01*
X153885428Y-97499180D01*
X153890868Y-97507061D01*
X154004566Y-97607788D01*
X154004567Y-97607788D01*
X154004569Y-97607790D01*
X154139062Y-97678377D01*
X154139066Y-97678379D01*
X154286551Y-97714731D01*
X154286555Y-97714731D01*
X154438445Y-97714731D01*
X154438449Y-97714731D01*
X154585934Y-97678379D01*
X154720434Y-97607788D01*
X154769679Y-97564161D01*
X154823218Y-97545686D01*
X154867821Y-97564161D01*
X154917066Y-97607788D01*
X155051566Y-97678379D01*
X155199051Y-97714731D01*
X155199055Y-97714731D01*
X155350945Y-97714731D01*
X155350949Y-97714731D01*
X155498434Y-97678379D01*
X155632934Y-97607788D01*
X155682179Y-97564161D01*
X155735718Y-97545686D01*
X155780321Y-97564161D01*
X155829566Y-97607788D01*
X155964066Y-97678379D01*
X156111551Y-97714731D01*
X156111555Y-97714731D01*
X156263445Y-97714731D01*
X156263449Y-97714731D01*
X156410934Y-97678379D01*
X156545434Y-97607788D01*
X156594679Y-97564161D01*
X156648218Y-97545686D01*
X156692821Y-97564161D01*
X156742066Y-97607788D01*
X156876566Y-97678379D01*
X157024051Y-97714731D01*
X157024055Y-97714731D01*
X157175945Y-97714731D01*
X157175949Y-97714731D01*
X157323434Y-97678379D01*
X157457934Y-97607788D01*
X157571632Y-97507061D01*
X157657921Y-97382050D01*
X157711785Y-97240022D01*
X157717516Y-97192819D01*
X157730094Y-97089234D01*
X157730094Y-97089227D01*
X157711785Y-96938440D01*
X157657921Y-96796412D01*
X157571632Y-96671401D01*
X157499142Y-96607181D01*
X157457934Y-96570674D01*
X157457932Y-96570673D01*
X157457930Y-96570671D01*
X157323437Y-96500084D01*
X157323434Y-96500083D01*
X157175949Y-96463731D01*
X157024051Y-96463731D01*
X156949242Y-96482170D01*
X156876562Y-96500084D01*
X156742069Y-96570671D01*
X156692820Y-96614301D01*
X156639280Y-96632775D01*
X156594680Y-96614301D01*
X156572107Y-96594304D01*
X156545434Y-96570674D01*
X156545432Y-96570673D01*
X156545430Y-96570671D01*
X156410937Y-96500084D01*
X156410934Y-96500083D01*
X156263449Y-96463731D01*
X156111551Y-96463731D01*
X156036742Y-96482170D01*
X155964062Y-96500084D01*
X155829569Y-96570671D01*
X155780320Y-96614301D01*
X155726780Y-96632775D01*
X155682180Y-96614301D01*
X155659607Y-96594304D01*
X155632934Y-96570674D01*
X155632932Y-96570673D01*
X155632930Y-96570671D01*
X155498437Y-96500084D01*
X155498434Y-96500083D01*
X155350949Y-96463731D01*
X155199051Y-96463731D01*
X155124242Y-96482170D01*
X155051562Y-96500084D01*
X154917069Y-96570671D01*
X154867820Y-96614301D01*
X154814280Y-96632775D01*
X154769680Y-96614301D01*
X154747107Y-96594304D01*
X154720434Y-96570674D01*
X154720432Y-96570673D01*
X154720430Y-96570671D01*
X154585937Y-96500084D01*
X154585934Y-96500083D01*
X154438449Y-96463731D01*
X154286551Y-96463731D01*
X154211742Y-96482170D01*
X154139062Y-96500084D01*
X154004569Y-96570671D01*
X153890867Y-96671401D01*
X153804579Y-96796411D01*
X153802941Y-96800731D01*
X153764119Y-96841970D01*
X153707508Y-96843680D01*
X153666269Y-96804858D01*
X153664559Y-96800731D01*
X153664500Y-96800577D01*
X153662921Y-96796412D01*
X153576632Y-96671401D01*
X153462934Y-96570674D01*
X153462932Y-96570673D01*
X153462930Y-96570671D01*
X153328437Y-96500084D01*
X153328434Y-96500083D01*
X153180949Y-96463731D01*
X153029051Y-96463731D01*
X152954242Y-96482170D01*
X152881562Y-96500084D01*
X152747069Y-96570671D01*
X152633367Y-96671401D01*
X152547078Y-96796412D01*
X152519191Y-96869945D01*
X152480370Y-96911185D01*
X152423759Y-96912895D01*
X152382519Y-96874074D01*
X152380809Y-96869945D01*
X152352921Y-96796412D01*
X152266632Y-96671401D01*
X152194142Y-96607181D01*
X152152934Y-96570674D01*
X152152932Y-96570673D01*
X152152930Y-96570671D01*
X152018437Y-96500084D01*
X152018434Y-96500083D01*
X151870949Y-96463731D01*
X151719051Y-96463731D01*
X151644242Y-96482170D01*
X151571562Y-96500084D01*
X151437069Y-96570671D01*
X151323367Y-96671401D01*
X151237078Y-96796412D01*
X151183214Y-96938440D01*
X151164906Y-97089227D01*
X148397208Y-97089227D01*
X148411785Y-97050791D01*
X148425427Y-96938440D01*
X148430094Y-96900003D01*
X148430094Y-96899996D01*
X148411785Y-96749209D01*
X148357921Y-96607181D01*
X148292822Y-96512869D01*
X148280935Y-96457493D01*
X148292820Y-96428797D01*
X148357921Y-96334484D01*
X148411785Y-96192456D01*
X148429142Y-96049506D01*
X148430094Y-96041668D01*
X148430094Y-96041661D01*
X148411785Y-95890874D01*
X148357921Y-95748846D01*
X148292822Y-95654534D01*
X148280935Y-95599158D01*
X148292820Y-95570465D01*
X148357921Y-95476151D01*
X148411785Y-95334123D01*
X148416362Y-95296425D01*
X148430094Y-95183335D01*
X148430094Y-95183328D01*
X148411785Y-95032541D01*
X148357921Y-94890513D01*
X148292822Y-94796201D01*
X148280935Y-94740825D01*
X148292820Y-94712132D01*
X148357921Y-94617818D01*
X148411785Y-94475790D01*
X148430094Y-94324999D01*
X148411785Y-94174208D01*
X148357921Y-94032180D01*
X148292821Y-93937867D01*
X148280935Y-93882492D01*
X148292820Y-93853799D01*
X148357921Y-93759485D01*
X148411785Y-93617457D01*
X148430094Y-93466666D01*
X148418743Y-93373177D01*
X160991850Y-93373177D01*
X161010786Y-93541236D01*
X161010788Y-93541244D01*
X161066643Y-93700868D01*
X161156618Y-93844062D01*
X161156620Y-93844064D01*
X161156622Y-93844067D01*
X161276209Y-93963654D01*
X161276211Y-93963655D01*
X161276213Y-93963657D01*
X161419407Y-94053632D01*
X161419409Y-94053633D01*
X161579040Y-94109490D01*
X161747099Y-94128426D01*
X161915158Y-94109490D01*
X162074789Y-94053633D01*
X162217989Y-93963654D01*
X162337576Y-93844067D01*
X162427555Y-93700867D01*
X162483412Y-93541236D01*
X162502348Y-93373177D01*
X162483412Y-93205118D01*
X162427555Y-93045487D01*
X162396121Y-92995460D01*
X162337579Y-92902291D01*
X162337577Y-92902289D01*
X162337576Y-92902287D01*
X162217989Y-92782700D01*
X162217986Y-92782698D01*
X162217984Y-92782696D01*
X162074790Y-92692721D01*
X161915166Y-92636866D01*
X161915158Y-92636864D01*
X161747099Y-92617928D01*
X161579039Y-92636864D01*
X161579031Y-92636866D01*
X161419407Y-92692721D01*
X161276213Y-92782696D01*
X161156618Y-92902291D01*
X161066643Y-93045485D01*
X161010788Y-93205109D01*
X161010786Y-93205117D01*
X160991850Y-93373177D01*
X148418743Y-93373177D01*
X148411785Y-93315875D01*
X148357921Y-93173847D01*
X148292821Y-93079534D01*
X148280935Y-93024159D01*
X148292820Y-92995466D01*
X148357921Y-92901152D01*
X148411785Y-92759124D01*
X148416362Y-92721426D01*
X148418964Y-92699996D01*
X157369906Y-92699996D01*
X157369906Y-92700003D01*
X157388214Y-92850790D01*
X157442078Y-92992818D01*
X157501936Y-93079536D01*
X157528368Y-93117830D01*
X157642066Y-93218557D01*
X157642067Y-93218557D01*
X157642069Y-93218559D01*
X157776562Y-93289146D01*
X157776566Y-93289148D01*
X157924051Y-93325500D01*
X157924055Y-93325500D01*
X158075945Y-93325500D01*
X158075949Y-93325500D01*
X158223434Y-93289148D01*
X158357934Y-93218557D01*
X158471632Y-93117830D01*
X158557921Y-92992819D01*
X158611785Y-92850791D01*
X158630094Y-92700000D01*
X158629210Y-92692721D01*
X158611785Y-92549209D01*
X158557921Y-92407181D01*
X158471632Y-92282170D01*
X158370420Y-92192505D01*
X158357934Y-92181443D01*
X158357932Y-92181442D01*
X158357930Y-92181440D01*
X158223437Y-92110853D01*
X158223434Y-92110852D01*
X158075949Y-92074500D01*
X157924051Y-92074500D01*
X157776562Y-92110853D01*
X157642069Y-92181440D01*
X157528367Y-92282170D01*
X157442078Y-92407181D01*
X157388214Y-92549209D01*
X157369906Y-92699996D01*
X148418964Y-92699996D01*
X148430094Y-92608336D01*
X148430094Y-92608329D01*
X148411785Y-92457542D01*
X148357921Y-92315514D01*
X148292822Y-92221202D01*
X148280935Y-92165826D01*
X148292820Y-92137133D01*
X148357921Y-92042819D01*
X148411785Y-91900791D01*
X148430094Y-91750000D01*
X148411785Y-91599209D01*
X148357921Y-91457181D01*
X148271632Y-91332170D01*
X148221720Y-91287952D01*
X148196927Y-91237031D01*
X148215402Y-91183492D01*
X148221722Y-91177173D01*
X148300861Y-91107063D01*
X148300861Y-91107062D01*
X148300863Y-91107061D01*
X148387152Y-90982050D01*
X148441016Y-90840022D01*
X148459325Y-90689231D01*
X148441016Y-90538440D01*
X148387152Y-90396412D01*
X148300863Y-90271401D01*
X148187165Y-90170674D01*
X148187163Y-90170673D01*
X148187161Y-90170671D01*
X148052668Y-90100084D01*
X148052665Y-90100083D01*
X147905180Y-90063731D01*
X147753282Y-90063731D01*
X147605793Y-90100084D01*
X147471300Y-90170671D01*
X147357598Y-90271401D01*
X147271309Y-90396412D01*
X147217445Y-90538440D01*
X147199137Y-90689227D01*
X147199137Y-90689234D01*
X147217445Y-90840021D01*
X147271309Y-90982049D01*
X147357598Y-91107060D01*
X147407509Y-91151277D01*
X147432303Y-91202199D01*
X147413828Y-91255738D01*
X147407509Y-91262057D01*
X147328368Y-91332170D01*
X147242078Y-91457181D01*
X147188214Y-91599209D01*
X147169906Y-91749996D01*
X119800499Y-91749996D01*
X119800499Y-88401160D01*
X121034500Y-88401160D01*
X121034500Y-88558841D01*
X121065261Y-88713492D01*
X121065264Y-88713502D01*
X121125603Y-88859175D01*
X121125605Y-88859178D01*
X121125606Y-88859180D01*
X121213211Y-88990290D01*
X121324711Y-89101790D01*
X121455821Y-89189395D01*
X121455826Y-89189397D01*
X121455825Y-89189397D01*
X121601498Y-89249736D01*
X121601503Y-89249738D01*
X121756158Y-89280501D01*
X121756160Y-89280501D01*
X122713840Y-89280501D01*
X122713842Y-89280501D01*
X122868497Y-89249738D01*
X123014179Y-89189395D01*
X123145289Y-89101790D01*
X123256789Y-88990290D01*
X123344394Y-88859180D01*
X123404737Y-88713498D01*
X123435500Y-88558843D01*
X123435500Y-88401160D01*
X125064500Y-88401160D01*
X125064500Y-88558841D01*
X125095261Y-88713492D01*
X125095264Y-88713502D01*
X125155603Y-88859175D01*
X125155605Y-88859178D01*
X125155606Y-88859180D01*
X125243211Y-88990290D01*
X125354711Y-89101790D01*
X125485821Y-89189395D01*
X125485826Y-89189397D01*
X125485825Y-89189397D01*
X125631498Y-89249736D01*
X125631503Y-89249738D01*
X125631507Y-89249738D01*
X125634985Y-89250794D01*
X125634382Y-89252780D01*
X125676217Y-89280701D01*
X125687297Y-89336244D01*
X125655857Y-89383353D01*
X125651712Y-89385933D01*
X125555497Y-89441483D01*
X125446481Y-89550499D01*
X125369401Y-89684005D01*
X125369399Y-89684010D01*
X125329500Y-89832915D01*
X125329500Y-89987086D01*
X125369399Y-90135991D01*
X125369401Y-90135996D01*
X125446481Y-90269502D01*
X125446482Y-90269503D01*
X125446484Y-90269506D01*
X125555495Y-90378517D01*
X125555497Y-90378518D01*
X125555498Y-90378519D01*
X125689004Y-90455599D01*
X125689006Y-90455600D01*
X125689007Y-90455600D01*
X125689009Y-90455601D01*
X125763461Y-90475550D01*
X125837914Y-90495500D01*
X125837915Y-90495501D01*
X125837917Y-90495501D01*
X125992085Y-90495501D01*
X125992085Y-90495500D01*
X126140994Y-90455600D01*
X126274505Y-90378517D01*
X126383516Y-90269506D01*
X126460599Y-90135995D01*
X126500499Y-89987086D01*
X126500500Y-89987086D01*
X126500500Y-89832916D01*
X126500499Y-89832915D01*
X126460600Y-89684010D01*
X126460598Y-89684005D01*
X126383518Y-89550499D01*
X126383517Y-89550498D01*
X126383516Y-89550496D01*
X126274505Y-89441485D01*
X126274502Y-89441483D01*
X126274501Y-89441482D01*
X126234845Y-89418587D01*
X126200367Y-89373654D01*
X126207759Y-89317501D01*
X126252692Y-89283023D01*
X126271845Y-89280501D01*
X127043840Y-89280501D01*
X127043842Y-89280501D01*
X127198497Y-89249738D01*
X127344179Y-89189395D01*
X127475289Y-89101790D01*
X127577083Y-88999996D01*
X147769906Y-88999996D01*
X147769906Y-89000003D01*
X147788214Y-89150790D01*
X147842078Y-89292818D01*
X147863948Y-89324501D01*
X147928368Y-89417830D01*
X148042066Y-89518557D01*
X148042067Y-89518557D01*
X148042069Y-89518559D01*
X148102926Y-89550499D01*
X148176566Y-89589148D01*
X148324051Y-89625500D01*
X148324055Y-89625500D01*
X148475945Y-89625500D01*
X148475949Y-89625500D01*
X148623434Y-89589148D01*
X148757934Y-89518557D01*
X148871632Y-89417830D01*
X148957921Y-89292819D01*
X149011785Y-89150791D01*
X149030094Y-89000000D01*
X149028915Y-88990291D01*
X149011785Y-88849209D01*
X148957921Y-88707181D01*
X148894292Y-88614999D01*
X163650000Y-88614999D01*
X163650001Y-88615000D01*
X165549999Y-88615000D01*
X165550000Y-86525000D01*
X163650000Y-86525000D01*
X163650000Y-88614999D01*
X148894292Y-88614999D01*
X148871632Y-88582170D01*
X148845299Y-88558841D01*
X148757934Y-88481443D01*
X148757932Y-88481442D01*
X148757930Y-88481440D01*
X148623437Y-88410853D01*
X148623434Y-88410852D01*
X148475949Y-88374500D01*
X148324051Y-88374500D01*
X148176562Y-88410853D01*
X148042069Y-88481440D01*
X147928367Y-88582170D01*
X147842078Y-88707181D01*
X147788214Y-88849209D01*
X147769906Y-88999996D01*
X127577083Y-88999996D01*
X127586789Y-88990290D01*
X127674394Y-88859180D01*
X127734737Y-88713498D01*
X127765500Y-88558843D01*
X127765500Y-88401159D01*
X127734737Y-88246504D01*
X127722859Y-88217828D01*
X127674396Y-88100826D01*
X127674395Y-88100824D01*
X127674394Y-88100822D01*
X127586789Y-87969712D01*
X127475289Y-87858212D01*
X127388163Y-87799996D01*
X152769906Y-87799996D01*
X152769906Y-87800003D01*
X152788214Y-87950790D01*
X152842078Y-88092818D01*
X152928367Y-88217828D01*
X152928368Y-88217830D01*
X153042066Y-88318557D01*
X153042067Y-88318557D01*
X153042069Y-88318559D01*
X153176562Y-88389146D01*
X153176566Y-88389148D01*
X153324051Y-88425500D01*
X153324055Y-88425500D01*
X153475945Y-88425500D01*
X153475949Y-88425500D01*
X153623434Y-88389148D01*
X153757934Y-88318557D01*
X153800929Y-88280467D01*
X153854468Y-88261992D01*
X153899071Y-88280467D01*
X153942066Y-88318557D01*
X154048656Y-88374500D01*
X154076566Y-88389148D01*
X154224051Y-88425500D01*
X154224055Y-88425500D01*
X154375945Y-88425500D01*
X154375949Y-88425500D01*
X154523434Y-88389148D01*
X154657934Y-88318557D01*
X154771632Y-88217830D01*
X154789099Y-88192525D01*
X154836661Y-88161773D01*
X154892036Y-88173660D01*
X154910901Y-88192525D01*
X154928366Y-88217828D01*
X154928367Y-88217829D01*
X154928368Y-88217830D01*
X155042066Y-88318557D01*
X155042067Y-88318557D01*
X155042069Y-88318559D01*
X155176562Y-88389146D01*
X155176566Y-88389148D01*
X155324051Y-88425500D01*
X155324055Y-88425500D01*
X155475945Y-88425500D01*
X155475949Y-88425500D01*
X155623434Y-88389148D01*
X155757934Y-88318557D01*
X155871632Y-88217830D01*
X155957921Y-88092819D01*
X156011785Y-87950791D01*
X156030094Y-87800000D01*
X156026525Y-87770607D01*
X156011785Y-87649209D01*
X155993123Y-87600000D01*
X159644751Y-87600000D01*
X159663687Y-87768059D01*
X159663689Y-87768067D01*
X159719544Y-87927691D01*
X159809519Y-88070885D01*
X159809521Y-88070887D01*
X159809523Y-88070890D01*
X159929110Y-88190477D01*
X159929112Y-88190478D01*
X159929114Y-88190480D01*
X160072308Y-88280455D01*
X160072310Y-88280456D01*
X160231941Y-88336313D01*
X160400000Y-88355249D01*
X160568059Y-88336313D01*
X160727690Y-88280456D01*
X160870890Y-88190477D01*
X160990477Y-88070890D01*
X161080456Y-87927690D01*
X161136313Y-87768059D01*
X161155249Y-87600000D01*
X161136313Y-87431941D01*
X161134352Y-87426338D01*
X161096980Y-87319533D01*
X161080456Y-87272310D01*
X161041840Y-87210853D01*
X160990480Y-87129114D01*
X160990478Y-87129112D01*
X160990477Y-87129110D01*
X160870890Y-87009523D01*
X160870887Y-87009521D01*
X160870885Y-87009519D01*
X160727691Y-86919544D01*
X160568067Y-86863689D01*
X160568059Y-86863687D01*
X160400000Y-86844751D01*
X160231940Y-86863687D01*
X160231932Y-86863689D01*
X160072308Y-86919544D01*
X159929114Y-87009519D01*
X159809519Y-87129114D01*
X159719544Y-87272308D01*
X159663689Y-87431932D01*
X159663687Y-87431940D01*
X159644751Y-87600000D01*
X155993123Y-87600000D01*
X155957921Y-87507181D01*
X155871632Y-87382170D01*
X155800929Y-87319533D01*
X155757934Y-87281443D01*
X155757932Y-87281442D01*
X155757930Y-87281440D01*
X155623437Y-87210853D01*
X155623434Y-87210852D01*
X155475949Y-87174500D01*
X155324051Y-87174500D01*
X155176562Y-87210853D01*
X155042069Y-87281440D01*
X154928366Y-87382171D01*
X154928364Y-87382173D01*
X154910900Y-87407475D01*
X154863338Y-87438226D01*
X154807963Y-87426338D01*
X154789100Y-87407475D01*
X154771635Y-87382173D01*
X154771633Y-87382171D01*
X154700929Y-87319533D01*
X154657934Y-87281443D01*
X154657932Y-87281442D01*
X154657930Y-87281440D01*
X154523437Y-87210853D01*
X154523434Y-87210852D01*
X154375949Y-87174500D01*
X154224051Y-87174500D01*
X154076562Y-87210853D01*
X153942069Y-87281440D01*
X153899070Y-87319533D01*
X153845530Y-87338007D01*
X153800930Y-87319533D01*
X153780380Y-87301328D01*
X153757934Y-87281443D01*
X153757932Y-87281442D01*
X153757930Y-87281440D01*
X153623437Y-87210853D01*
X153623434Y-87210852D01*
X153475949Y-87174500D01*
X153324051Y-87174500D01*
X153176562Y-87210853D01*
X153042069Y-87281440D01*
X152928367Y-87382170D01*
X152842078Y-87507181D01*
X152788214Y-87649209D01*
X152769906Y-87799996D01*
X127388163Y-87799996D01*
X127344179Y-87770607D01*
X127344175Y-87770605D01*
X127344173Y-87770604D01*
X127344174Y-87770604D01*
X127198501Y-87710265D01*
X127198491Y-87710262D01*
X127094925Y-87689662D01*
X127043842Y-87679501D01*
X125786158Y-87679501D01*
X125742315Y-87688221D01*
X125631508Y-87710262D01*
X125631498Y-87710265D01*
X125485825Y-87770604D01*
X125354711Y-87858211D01*
X125354710Y-87858213D01*
X125243212Y-87969711D01*
X125243210Y-87969712D01*
X125155603Y-88100826D01*
X125095264Y-88246499D01*
X125095261Y-88246509D01*
X125064500Y-88401160D01*
X123435500Y-88401160D01*
X123435500Y-88401159D01*
X123404737Y-88246504D01*
X123392859Y-88217828D01*
X123344396Y-88100826D01*
X123344395Y-88100824D01*
X123344394Y-88100822D01*
X123256789Y-87969712D01*
X123145289Y-87858212D01*
X123014179Y-87770607D01*
X123014175Y-87770605D01*
X123014173Y-87770604D01*
X123014174Y-87770604D01*
X122868501Y-87710265D01*
X122868491Y-87710262D01*
X122764925Y-87689662D01*
X122713842Y-87679501D01*
X121756158Y-87679501D01*
X121712315Y-87688221D01*
X121601508Y-87710262D01*
X121601498Y-87710265D01*
X121455825Y-87770604D01*
X121324711Y-87858211D01*
X121324710Y-87858213D01*
X121213212Y-87969711D01*
X121213210Y-87969712D01*
X121125603Y-88100826D01*
X121065264Y-88246499D01*
X121065261Y-88246509D01*
X121034500Y-88401160D01*
X119800499Y-88401160D01*
X119800499Y-83799997D01*
X134244722Y-83799997D01*
X134244722Y-83800004D01*
X134263761Y-83956809D01*
X134263764Y-83956823D01*
X134319778Y-84104522D01*
X134363640Y-84168067D01*
X134409517Y-84234531D01*
X134527760Y-84339284D01*
X134667635Y-84412697D01*
X134821015Y-84450501D01*
X134821019Y-84450501D01*
X134978981Y-84450501D01*
X134978985Y-84450501D01*
X135132365Y-84412697D01*
X135272240Y-84339284D01*
X135390483Y-84234531D01*
X135480220Y-84104524D01*
X135519861Y-84000000D01*
X143044751Y-84000000D01*
X143063687Y-84168059D01*
X143063689Y-84168067D01*
X143119544Y-84327691D01*
X143209519Y-84470885D01*
X143209521Y-84470887D01*
X143209523Y-84470890D01*
X143329110Y-84590477D01*
X143414034Y-84643839D01*
X143446809Y-84690029D01*
X143437322Y-84745866D01*
X143435566Y-84748532D01*
X143402517Y-84796412D01*
X143348653Y-84938440D01*
X143330345Y-85089227D01*
X143330345Y-85089234D01*
X143348653Y-85240021D01*
X143402517Y-85382049D01*
X143402518Y-85382050D01*
X143488807Y-85507061D01*
X143602505Y-85607788D01*
X143602506Y-85607788D01*
X143602508Y-85607790D01*
X143737001Y-85678377D01*
X143737005Y-85678379D01*
X143884490Y-85714731D01*
X143884494Y-85714731D01*
X144036384Y-85714731D01*
X144036388Y-85714731D01*
X144183873Y-85678379D01*
X144318373Y-85607788D01*
X144432071Y-85507061D01*
X144518360Y-85382050D01*
X144572224Y-85240022D01*
X144590533Y-85089231D01*
X144572224Y-84938440D01*
X144518360Y-84796412D01*
X144432071Y-84671401D01*
X144362536Y-84609799D01*
X144337743Y-84558878D01*
X144356218Y-84505339D01*
X144359272Y-84502094D01*
X144390477Y-84470890D01*
X144480456Y-84327690D01*
X144536313Y-84168059D01*
X144555249Y-84000000D01*
X144536313Y-83831941D01*
X144480456Y-83672310D01*
X144390477Y-83529110D01*
X144270890Y-83409523D01*
X144270887Y-83409521D01*
X144270885Y-83409519D01*
X144127691Y-83319544D01*
X143968067Y-83263689D01*
X143968059Y-83263687D01*
X143800000Y-83244751D01*
X143631940Y-83263687D01*
X143631932Y-83263689D01*
X143472308Y-83319544D01*
X143329114Y-83409519D01*
X143209519Y-83529114D01*
X143119544Y-83672308D01*
X143063689Y-83831932D01*
X143063687Y-83831940D01*
X143044751Y-84000000D01*
X135519861Y-84000000D01*
X135536237Y-83956819D01*
X135555278Y-83800001D01*
X135536237Y-83643183D01*
X135528213Y-83622026D01*
X135480221Y-83495479D01*
X135390483Y-83365471D01*
X135272240Y-83260718D01*
X135241818Y-83244751D01*
X135132366Y-83187305D01*
X134978987Y-83149501D01*
X134978985Y-83149501D01*
X134821015Y-83149501D01*
X134821012Y-83149501D01*
X134667633Y-83187305D01*
X134527761Y-83260717D01*
X134409516Y-83365471D01*
X134319779Y-83495479D01*
X134319778Y-83495479D01*
X134263764Y-83643178D01*
X134263761Y-83643192D01*
X134244722Y-83799997D01*
X119800499Y-83799997D01*
X119800499Y-80602883D01*
X119800725Y-80597130D01*
X119817273Y-80386868D01*
X119819089Y-80375410D01*
X119859340Y-80207749D01*
X133140000Y-80207749D01*
X133140000Y-80964231D01*
X133905856Y-80964231D01*
X133890000Y-81023405D01*
X133890000Y-81155057D01*
X133905856Y-81214231D01*
X133140001Y-81214231D01*
X133140001Y-81970713D01*
X133154834Y-82064379D01*
X133154835Y-82064380D01*
X133212360Y-82177277D01*
X133301953Y-82266870D01*
X133414850Y-82324395D01*
X133508518Y-82339230D01*
X134265000Y-82339230D01*
X134265000Y-81573375D01*
X134324174Y-81589231D01*
X134455826Y-81589231D01*
X134515000Y-81573375D01*
X134515000Y-82339230D01*
X135271481Y-82339230D01*
X135365148Y-82324396D01*
X135365149Y-82324395D01*
X135478046Y-82266870D01*
X135567639Y-82177277D01*
X135625164Y-82064380D01*
X135625164Y-82064379D01*
X135639999Y-81970712D01*
X135639999Y-81237574D01*
X135661673Y-81185248D01*
X135713999Y-81163574D01*
X135766325Y-81185248D01*
X135787683Y-81230746D01*
X135794242Y-81301534D01*
X135794243Y-81301540D01*
X135852593Y-81506614D01*
X135852596Y-81506624D01*
X135947632Y-81697483D01*
X135947634Y-81697486D01*
X136076128Y-81867638D01*
X136233698Y-82011283D01*
X136414981Y-82123529D01*
X136613802Y-82200552D01*
X136823390Y-82239731D01*
X137036610Y-82239731D01*
X137246198Y-82200552D01*
X137445019Y-82123529D01*
X137626302Y-82011283D01*
X137783872Y-81867638D01*
X137912366Y-81697486D01*
X138007405Y-81506620D01*
X138065756Y-81301541D01*
X138071684Y-81237574D01*
X138085429Y-81089234D01*
X138085429Y-81089227D01*
X138314570Y-81089227D01*
X138314570Y-81089234D01*
X138334241Y-81301534D01*
X138334242Y-81301540D01*
X138392592Y-81506614D01*
X138392595Y-81506624D01*
X138487631Y-81697483D01*
X138487633Y-81697486D01*
X138616127Y-81867638D01*
X138773697Y-82011283D01*
X138954980Y-82123529D01*
X139153801Y-82200552D01*
X139363389Y-82239731D01*
X139576609Y-82239731D01*
X139786197Y-82200552D01*
X139985018Y-82123529D01*
X140166301Y-82011283D01*
X140323871Y-81867638D01*
X140452365Y-81697486D01*
X140547404Y-81506620D01*
X140605755Y-81301541D01*
X140611683Y-81237574D01*
X140625428Y-81089234D01*
X140625428Y-81089227D01*
X140854571Y-81089227D01*
X140854571Y-81089234D01*
X140874242Y-81301534D01*
X140874243Y-81301540D01*
X140932593Y-81506614D01*
X140932596Y-81506624D01*
X141027632Y-81697483D01*
X141027634Y-81697486D01*
X141156128Y-81867638D01*
X141313698Y-82011283D01*
X141494981Y-82123529D01*
X141693802Y-82200552D01*
X141903390Y-82239731D01*
X142116610Y-82239731D01*
X142326198Y-82200552D01*
X142525019Y-82123529D01*
X142706302Y-82011283D01*
X142863872Y-81867638D01*
X142992366Y-81697486D01*
X143087405Y-81506620D01*
X143145756Y-81301541D01*
X143151684Y-81237574D01*
X143165429Y-81089234D01*
X143165429Y-81089227D01*
X143394571Y-81089227D01*
X143394571Y-81089234D01*
X143414242Y-81301534D01*
X143414243Y-81301540D01*
X143472593Y-81506614D01*
X143472596Y-81506624D01*
X143567632Y-81697483D01*
X143567634Y-81697486D01*
X143696128Y-81867638D01*
X143853698Y-82011283D01*
X144034981Y-82123529D01*
X144233802Y-82200552D01*
X144443390Y-82239731D01*
X144656610Y-82239731D01*
X144866198Y-82200552D01*
X145065019Y-82123529D01*
X145246302Y-82011283D01*
X145403872Y-81867638D01*
X145532366Y-81697486D01*
X145627405Y-81506620D01*
X145685756Y-81301541D01*
X145691684Y-81237574D01*
X145705429Y-81089234D01*
X145705429Y-81089227D01*
X145934571Y-81089227D01*
X145934571Y-81089234D01*
X145954242Y-81301534D01*
X145954243Y-81301540D01*
X146012593Y-81506614D01*
X146012596Y-81506624D01*
X146107632Y-81697483D01*
X146107634Y-81697486D01*
X146236128Y-81867638D01*
X146393698Y-82011283D01*
X146574981Y-82123529D01*
X146773802Y-82200552D01*
X146983390Y-82239731D01*
X147196610Y-82239731D01*
X147406198Y-82200552D01*
X147605019Y-82123529D01*
X147786302Y-82011283D01*
X147943872Y-81867638D01*
X148072366Y-81697486D01*
X148167405Y-81506620D01*
X148225756Y-81301541D01*
X148231684Y-81237574D01*
X148245429Y-81089234D01*
X148245429Y-81089227D01*
X148474571Y-81089227D01*
X148474571Y-81089234D01*
X148494242Y-81301534D01*
X148494243Y-81301540D01*
X148552593Y-81506614D01*
X148552596Y-81506624D01*
X148647632Y-81697483D01*
X148647634Y-81697486D01*
X148776128Y-81867638D01*
X148933698Y-82011283D01*
X149114981Y-82123529D01*
X149313802Y-82200552D01*
X149523390Y-82239731D01*
X149736610Y-82239731D01*
X149946198Y-82200552D01*
X150145019Y-82123529D01*
X150326302Y-82011283D01*
X150483872Y-81867638D01*
X150612366Y-81697486D01*
X150707405Y-81506620D01*
X150765756Y-81301541D01*
X150771684Y-81237574D01*
X150785429Y-81089234D01*
X150785429Y-81089227D01*
X151014572Y-81089227D01*
X151014572Y-81089234D01*
X151034243Y-81301534D01*
X151034244Y-81301540D01*
X151092594Y-81506614D01*
X151092597Y-81506624D01*
X151187633Y-81697483D01*
X151187635Y-81697486D01*
X151316129Y-81867638D01*
X151473699Y-82011283D01*
X151654982Y-82123529D01*
X151853803Y-82200552D01*
X152063391Y-82239731D01*
X152276611Y-82239731D01*
X152486199Y-82200552D01*
X152685020Y-82123529D01*
X152866303Y-82011283D01*
X153023873Y-81867638D01*
X153152367Y-81697486D01*
X153247406Y-81506620D01*
X153305757Y-81301541D01*
X153311685Y-81237574D01*
X153325430Y-81089234D01*
X153325430Y-81089227D01*
X153554571Y-81089227D01*
X153554571Y-81089234D01*
X153574242Y-81301534D01*
X153574243Y-81301540D01*
X153632593Y-81506614D01*
X153632596Y-81506624D01*
X153727632Y-81697483D01*
X153727634Y-81697486D01*
X153856128Y-81867638D01*
X154013698Y-82011283D01*
X154194981Y-82123529D01*
X154393802Y-82200552D01*
X154603390Y-82239731D01*
X154816610Y-82239731D01*
X155026198Y-82200552D01*
X155225019Y-82123529D01*
X155406302Y-82011283D01*
X155563872Y-81867638D01*
X155692366Y-81697486D01*
X155787405Y-81506620D01*
X155845756Y-81301541D01*
X155851684Y-81237574D01*
X155865429Y-81089234D01*
X155865429Y-81089227D01*
X156094571Y-81089227D01*
X156094571Y-81089234D01*
X156114242Y-81301534D01*
X156114243Y-81301540D01*
X156172593Y-81506614D01*
X156172596Y-81506624D01*
X156267632Y-81697483D01*
X156267634Y-81697486D01*
X156396128Y-81867638D01*
X156553698Y-82011283D01*
X156734981Y-82123529D01*
X156933802Y-82200552D01*
X157143390Y-82239731D01*
X157356610Y-82239731D01*
X157566198Y-82200552D01*
X157765019Y-82123529D01*
X157946302Y-82011283D01*
X158103872Y-81867638D01*
X158232366Y-81697486D01*
X158327405Y-81506620D01*
X158385756Y-81301541D01*
X158391684Y-81237574D01*
X158405429Y-81089234D01*
X158405429Y-81089227D01*
X158634571Y-81089227D01*
X158634571Y-81089234D01*
X158654242Y-81301534D01*
X158654243Y-81301540D01*
X158712593Y-81506614D01*
X158712596Y-81506624D01*
X158807632Y-81697483D01*
X158807634Y-81697486D01*
X158936128Y-81867638D01*
X159093698Y-82011283D01*
X159274981Y-82123529D01*
X159473802Y-82200552D01*
X159683390Y-82239731D01*
X159896610Y-82239731D01*
X160106198Y-82200552D01*
X160305019Y-82123529D01*
X160486302Y-82011283D01*
X160643872Y-81867638D01*
X160772366Y-81697486D01*
X160867405Y-81506620D01*
X160925756Y-81301541D01*
X160931684Y-81237574D01*
X160945429Y-81089234D01*
X160945429Y-81089227D01*
X161174570Y-81089227D01*
X161174570Y-81089234D01*
X161194241Y-81301534D01*
X161194242Y-81301540D01*
X161252592Y-81506614D01*
X161252595Y-81506624D01*
X161347631Y-81697483D01*
X161347633Y-81697486D01*
X161476127Y-81867638D01*
X161633697Y-82011283D01*
X161814980Y-82123529D01*
X162013801Y-82200552D01*
X162223389Y-82239731D01*
X162436609Y-82239731D01*
X162646197Y-82200552D01*
X162845018Y-82123529D01*
X163026301Y-82011283D01*
X163183871Y-81867638D01*
X163312365Y-81697486D01*
X163407404Y-81506620D01*
X163465755Y-81301541D01*
X163471683Y-81237574D01*
X163485428Y-81089234D01*
X163485428Y-81089227D01*
X163714571Y-81089227D01*
X163714571Y-81089234D01*
X163734242Y-81301534D01*
X163734243Y-81301540D01*
X163792593Y-81506614D01*
X163792596Y-81506624D01*
X163887632Y-81697483D01*
X163887634Y-81697486D01*
X164016128Y-81867638D01*
X164173698Y-82011283D01*
X164354981Y-82123529D01*
X164553802Y-82200552D01*
X164763390Y-82239731D01*
X164976610Y-82239731D01*
X165186198Y-82200552D01*
X165385019Y-82123529D01*
X165566302Y-82011283D01*
X165723872Y-81867638D01*
X165852366Y-81697486D01*
X165947405Y-81506620D01*
X166005756Y-81301541D01*
X166011684Y-81237574D01*
X166025429Y-81089234D01*
X166025429Y-81089227D01*
X166254571Y-81089227D01*
X166254571Y-81089234D01*
X166274242Y-81301534D01*
X166274243Y-81301540D01*
X166332593Y-81506614D01*
X166332596Y-81506624D01*
X166427632Y-81697483D01*
X166427634Y-81697486D01*
X166556128Y-81867638D01*
X166713698Y-82011283D01*
X166894981Y-82123529D01*
X167093802Y-82200552D01*
X167303390Y-82239731D01*
X167516610Y-82239731D01*
X167726198Y-82200552D01*
X167925019Y-82123529D01*
X168106302Y-82011283D01*
X168263872Y-81867638D01*
X168392366Y-81697486D01*
X168487405Y-81506620D01*
X168545756Y-81301541D01*
X168551684Y-81237574D01*
X168565429Y-81089234D01*
X168565429Y-81089227D01*
X168545757Y-80876927D01*
X168545756Y-80876921D01*
X168518812Y-80782224D01*
X168487405Y-80671842D01*
X168474293Y-80645510D01*
X168392367Y-80480978D01*
X168392363Y-80480972D01*
X168321302Y-80386873D01*
X168263872Y-80310824D01*
X168106302Y-80167179D01*
X167925019Y-80054933D01*
X167726198Y-79977910D01*
X167628639Y-79959673D01*
X167516613Y-79938731D01*
X167516610Y-79938731D01*
X167303390Y-79938731D01*
X167303386Y-79938731D01*
X167164784Y-79964641D01*
X167093802Y-79977910D01*
X167093800Y-79977910D01*
X167093798Y-79977911D01*
X166894986Y-80054931D01*
X166894981Y-80054933D01*
X166894976Y-80054935D01*
X166894976Y-80054936D01*
X166713700Y-80167177D01*
X166556130Y-80310821D01*
X166427636Y-80480972D01*
X166427632Y-80480978D01*
X166332596Y-80671837D01*
X166332593Y-80671847D01*
X166274243Y-80876921D01*
X166274242Y-80876927D01*
X166254571Y-81089227D01*
X166025429Y-81089227D01*
X166005757Y-80876927D01*
X166005756Y-80876921D01*
X165978812Y-80782224D01*
X165947405Y-80671842D01*
X165934293Y-80645510D01*
X165852367Y-80480978D01*
X165852363Y-80480972D01*
X165781302Y-80386873D01*
X165723872Y-80310824D01*
X165566302Y-80167179D01*
X165385019Y-80054933D01*
X165186198Y-79977910D01*
X165088639Y-79959673D01*
X164976613Y-79938731D01*
X164976610Y-79938731D01*
X164763390Y-79938731D01*
X164763386Y-79938731D01*
X164624784Y-79964641D01*
X164553802Y-79977910D01*
X164553800Y-79977910D01*
X164553798Y-79977911D01*
X164354986Y-80054931D01*
X164354981Y-80054933D01*
X164354976Y-80054935D01*
X164354976Y-80054936D01*
X164173700Y-80167177D01*
X164016130Y-80310821D01*
X163887636Y-80480972D01*
X163887632Y-80480978D01*
X163792596Y-80671837D01*
X163792593Y-80671847D01*
X163734243Y-80876921D01*
X163734242Y-80876927D01*
X163714571Y-81089227D01*
X163485428Y-81089227D01*
X163465756Y-80876927D01*
X163465755Y-80876921D01*
X163438811Y-80782224D01*
X163407404Y-80671842D01*
X163394292Y-80645510D01*
X163312366Y-80480978D01*
X163312362Y-80480972D01*
X163241301Y-80386873D01*
X163183871Y-80310824D01*
X163026301Y-80167179D01*
X162845018Y-80054933D01*
X162646197Y-79977910D01*
X162548638Y-79959673D01*
X162436612Y-79938731D01*
X162436609Y-79938731D01*
X162223389Y-79938731D01*
X162223385Y-79938731D01*
X162084783Y-79964641D01*
X162013801Y-79977910D01*
X162013799Y-79977910D01*
X162013797Y-79977911D01*
X161814985Y-80054931D01*
X161814980Y-80054933D01*
X161814975Y-80054935D01*
X161814975Y-80054936D01*
X161633699Y-80167177D01*
X161476129Y-80310821D01*
X161347635Y-80480972D01*
X161347631Y-80480978D01*
X161252595Y-80671837D01*
X161252592Y-80671847D01*
X161194242Y-80876921D01*
X161194241Y-80876927D01*
X161174570Y-81089227D01*
X160945429Y-81089227D01*
X160925757Y-80876927D01*
X160925756Y-80876921D01*
X160898812Y-80782224D01*
X160867405Y-80671842D01*
X160854293Y-80645510D01*
X160772367Y-80480978D01*
X160772363Y-80480972D01*
X160701302Y-80386873D01*
X160643872Y-80310824D01*
X160486302Y-80167179D01*
X160305019Y-80054933D01*
X160106198Y-79977910D01*
X160008639Y-79959673D01*
X159896613Y-79938731D01*
X159896610Y-79938731D01*
X159683390Y-79938731D01*
X159683386Y-79938731D01*
X159544784Y-79964641D01*
X159473802Y-79977910D01*
X159473800Y-79977910D01*
X159473798Y-79977911D01*
X159274986Y-80054931D01*
X159274981Y-80054933D01*
X159274976Y-80054935D01*
X159274976Y-80054936D01*
X159093700Y-80167177D01*
X158936130Y-80310821D01*
X158807636Y-80480972D01*
X158807632Y-80480978D01*
X158712596Y-80671837D01*
X158712593Y-80671847D01*
X158654243Y-80876921D01*
X158654242Y-80876927D01*
X158634571Y-81089227D01*
X158405429Y-81089227D01*
X158385757Y-80876927D01*
X158385756Y-80876921D01*
X158358812Y-80782224D01*
X158327405Y-80671842D01*
X158314293Y-80645510D01*
X158232367Y-80480978D01*
X158232363Y-80480972D01*
X158161302Y-80386873D01*
X158103872Y-80310824D01*
X157946302Y-80167179D01*
X157765019Y-80054933D01*
X157566198Y-79977910D01*
X157468639Y-79959673D01*
X157356613Y-79938731D01*
X157356610Y-79938731D01*
X157143390Y-79938731D01*
X157143386Y-79938731D01*
X157004784Y-79964641D01*
X156933802Y-79977910D01*
X156933800Y-79977910D01*
X156933798Y-79977911D01*
X156734986Y-80054931D01*
X156734981Y-80054933D01*
X156734976Y-80054935D01*
X156734976Y-80054936D01*
X156553700Y-80167177D01*
X156396130Y-80310821D01*
X156267636Y-80480972D01*
X156267632Y-80480978D01*
X156172596Y-80671837D01*
X156172593Y-80671847D01*
X156114243Y-80876921D01*
X156114242Y-80876927D01*
X156094571Y-81089227D01*
X155865429Y-81089227D01*
X155845757Y-80876927D01*
X155845756Y-80876921D01*
X155818812Y-80782224D01*
X155787405Y-80671842D01*
X155774293Y-80645510D01*
X155692367Y-80480978D01*
X155692363Y-80480972D01*
X155621302Y-80386873D01*
X155563872Y-80310824D01*
X155406302Y-80167179D01*
X155225019Y-80054933D01*
X155026198Y-79977910D01*
X154928639Y-79959673D01*
X154816613Y-79938731D01*
X154816610Y-79938731D01*
X154603390Y-79938731D01*
X154603386Y-79938731D01*
X154464784Y-79964641D01*
X154393802Y-79977910D01*
X154393800Y-79977910D01*
X154393798Y-79977911D01*
X154194986Y-80054931D01*
X154194981Y-80054933D01*
X154194976Y-80054935D01*
X154194976Y-80054936D01*
X154013700Y-80167177D01*
X153856130Y-80310821D01*
X153727636Y-80480972D01*
X153727632Y-80480978D01*
X153632596Y-80671837D01*
X153632593Y-80671847D01*
X153574243Y-80876921D01*
X153574242Y-80876927D01*
X153554571Y-81089227D01*
X153325430Y-81089227D01*
X153305758Y-80876927D01*
X153305757Y-80876921D01*
X153278813Y-80782224D01*
X153247406Y-80671842D01*
X153234294Y-80645510D01*
X153152368Y-80480978D01*
X153152364Y-80480972D01*
X153081303Y-80386873D01*
X153023873Y-80310824D01*
X152866303Y-80167179D01*
X152685020Y-80054933D01*
X152486199Y-79977910D01*
X152388640Y-79959673D01*
X152276614Y-79938731D01*
X152276611Y-79938731D01*
X152063391Y-79938731D01*
X152063387Y-79938731D01*
X151924785Y-79964641D01*
X151853803Y-79977910D01*
X151853801Y-79977910D01*
X151853799Y-79977911D01*
X151654987Y-80054931D01*
X151654982Y-80054933D01*
X151654977Y-80054935D01*
X151654977Y-80054936D01*
X151473701Y-80167177D01*
X151316131Y-80310821D01*
X151187637Y-80480972D01*
X151187633Y-80480978D01*
X151092597Y-80671837D01*
X151092594Y-80671847D01*
X151034244Y-80876921D01*
X151034243Y-80876927D01*
X151014572Y-81089227D01*
X150785429Y-81089227D01*
X150765757Y-80876927D01*
X150765756Y-80876921D01*
X150738812Y-80782224D01*
X150707405Y-80671842D01*
X150694293Y-80645510D01*
X150612367Y-80480978D01*
X150612363Y-80480972D01*
X150541302Y-80386873D01*
X150483872Y-80310824D01*
X150326302Y-80167179D01*
X150145019Y-80054933D01*
X149946198Y-79977910D01*
X149848639Y-79959673D01*
X149736613Y-79938731D01*
X149736610Y-79938731D01*
X149523390Y-79938731D01*
X149523386Y-79938731D01*
X149384784Y-79964641D01*
X149313802Y-79977910D01*
X149313800Y-79977910D01*
X149313798Y-79977911D01*
X149114986Y-80054931D01*
X149114981Y-80054933D01*
X149114976Y-80054935D01*
X149114976Y-80054936D01*
X148933700Y-80167177D01*
X148776130Y-80310821D01*
X148647636Y-80480972D01*
X148647632Y-80480978D01*
X148552596Y-80671837D01*
X148552593Y-80671847D01*
X148494243Y-80876921D01*
X148494242Y-80876927D01*
X148474571Y-81089227D01*
X148245429Y-81089227D01*
X148225757Y-80876927D01*
X148225756Y-80876921D01*
X148198812Y-80782224D01*
X148167405Y-80671842D01*
X148154293Y-80645510D01*
X148072367Y-80480978D01*
X148072363Y-80480972D01*
X148001302Y-80386873D01*
X147943872Y-80310824D01*
X147786302Y-80167179D01*
X147605019Y-80054933D01*
X147406198Y-79977910D01*
X147308639Y-79959673D01*
X147196613Y-79938731D01*
X147196610Y-79938731D01*
X146983390Y-79938731D01*
X146983386Y-79938731D01*
X146844784Y-79964641D01*
X146773802Y-79977910D01*
X146773800Y-79977910D01*
X146773798Y-79977911D01*
X146574986Y-80054931D01*
X146574981Y-80054933D01*
X146574976Y-80054935D01*
X146574976Y-80054936D01*
X146393700Y-80167177D01*
X146236130Y-80310821D01*
X146107636Y-80480972D01*
X146107632Y-80480978D01*
X146012596Y-80671837D01*
X146012593Y-80671847D01*
X145954243Y-80876921D01*
X145954242Y-80876927D01*
X145934571Y-81089227D01*
X145705429Y-81089227D01*
X145685757Y-80876927D01*
X145685756Y-80876921D01*
X145658812Y-80782224D01*
X145627405Y-80671842D01*
X145614293Y-80645510D01*
X145532367Y-80480978D01*
X145532363Y-80480972D01*
X145461302Y-80386873D01*
X145403872Y-80310824D01*
X145246302Y-80167179D01*
X145065019Y-80054933D01*
X144866198Y-79977910D01*
X144768639Y-79959673D01*
X144656613Y-79938731D01*
X144656610Y-79938731D01*
X144443390Y-79938731D01*
X144443386Y-79938731D01*
X144304784Y-79964641D01*
X144233802Y-79977910D01*
X144233800Y-79977910D01*
X144233798Y-79977911D01*
X144034986Y-80054931D01*
X144034981Y-80054933D01*
X144034976Y-80054935D01*
X144034976Y-80054936D01*
X143853700Y-80167177D01*
X143696130Y-80310821D01*
X143567636Y-80480972D01*
X143567632Y-80480978D01*
X143472596Y-80671837D01*
X143472593Y-80671847D01*
X143414243Y-80876921D01*
X143414242Y-80876927D01*
X143394571Y-81089227D01*
X143165429Y-81089227D01*
X143145757Y-80876927D01*
X143145756Y-80876921D01*
X143118812Y-80782224D01*
X143087405Y-80671842D01*
X143074293Y-80645510D01*
X142992367Y-80480978D01*
X142992363Y-80480972D01*
X142921302Y-80386873D01*
X142863872Y-80310824D01*
X142706302Y-80167179D01*
X142525019Y-80054933D01*
X142326198Y-79977910D01*
X142228639Y-79959673D01*
X142116613Y-79938731D01*
X142116610Y-79938731D01*
X141903390Y-79938731D01*
X141903386Y-79938731D01*
X141764784Y-79964641D01*
X141693802Y-79977910D01*
X141693800Y-79977910D01*
X141693798Y-79977911D01*
X141494986Y-80054931D01*
X141494981Y-80054933D01*
X141494976Y-80054935D01*
X141494976Y-80054936D01*
X141313700Y-80167177D01*
X141156130Y-80310821D01*
X141027636Y-80480972D01*
X141027632Y-80480978D01*
X140932596Y-80671837D01*
X140932593Y-80671847D01*
X140874243Y-80876921D01*
X140874242Y-80876927D01*
X140854571Y-81089227D01*
X140625428Y-81089227D01*
X140605756Y-80876927D01*
X140605755Y-80876921D01*
X140578811Y-80782224D01*
X140547404Y-80671842D01*
X140534292Y-80645510D01*
X140452366Y-80480978D01*
X140452362Y-80480972D01*
X140381301Y-80386873D01*
X140323871Y-80310824D01*
X140166301Y-80167179D01*
X139985018Y-80054933D01*
X139786197Y-79977910D01*
X139688638Y-79959673D01*
X139576612Y-79938731D01*
X139576609Y-79938731D01*
X139363389Y-79938731D01*
X139363385Y-79938731D01*
X139224783Y-79964641D01*
X139153801Y-79977910D01*
X139153799Y-79977910D01*
X139153797Y-79977911D01*
X138954985Y-80054931D01*
X138954980Y-80054933D01*
X138954975Y-80054935D01*
X138954975Y-80054936D01*
X138773699Y-80167177D01*
X138616129Y-80310821D01*
X138487635Y-80480972D01*
X138487631Y-80480978D01*
X138392595Y-80671837D01*
X138392592Y-80671847D01*
X138334242Y-80876921D01*
X138334241Y-80876927D01*
X138314570Y-81089227D01*
X138085429Y-81089227D01*
X138065757Y-80876927D01*
X138065756Y-80876921D01*
X138038812Y-80782224D01*
X138007405Y-80671842D01*
X137994293Y-80645510D01*
X137912367Y-80480978D01*
X137912363Y-80480972D01*
X137841302Y-80386873D01*
X137783872Y-80310824D01*
X137626302Y-80167179D01*
X137445019Y-80054933D01*
X137246198Y-79977910D01*
X137148639Y-79959673D01*
X137036613Y-79938731D01*
X137036610Y-79938731D01*
X136823390Y-79938731D01*
X136823386Y-79938731D01*
X136684784Y-79964641D01*
X136613802Y-79977910D01*
X136613800Y-79977910D01*
X136613798Y-79977911D01*
X136414986Y-80054931D01*
X136414981Y-80054933D01*
X136414976Y-80054935D01*
X136414976Y-80054936D01*
X136233700Y-80167177D01*
X136076130Y-80310821D01*
X135947636Y-80480972D01*
X135947632Y-80480978D01*
X135852596Y-80671837D01*
X135852593Y-80671847D01*
X135794243Y-80876921D01*
X135794242Y-80876927D01*
X135787683Y-80947717D01*
X135761274Y-80997820D01*
X135707171Y-81014573D01*
X135657068Y-80988164D01*
X135639999Y-80940889D01*
X135639999Y-80207748D01*
X135625165Y-80114082D01*
X135625164Y-80114081D01*
X135567639Y-80001184D01*
X135478046Y-79911591D01*
X135365149Y-79854066D01*
X135271482Y-79839231D01*
X134515000Y-79839231D01*
X134515000Y-80605086D01*
X134455826Y-80589231D01*
X134324174Y-80589231D01*
X134265000Y-80605086D01*
X134265000Y-79839231D01*
X133508518Y-79839231D01*
X133414851Y-79854065D01*
X133414850Y-79854066D01*
X133301953Y-79911591D01*
X133212360Y-80001184D01*
X133154835Y-80114081D01*
X133154835Y-80114082D01*
X133140000Y-80207749D01*
X119859340Y-80207749D01*
X119867638Y-80173184D01*
X119871219Y-80162163D01*
X119950809Y-79970015D01*
X119956072Y-79959686D01*
X120064746Y-79782344D01*
X120071556Y-79772973D01*
X120206628Y-79614824D01*
X120214824Y-79606628D01*
X120372972Y-79471557D01*
X120382352Y-79464742D01*
X120559675Y-79356077D01*
X120570014Y-79350809D01*
X120762163Y-79271219D01*
X120773184Y-79267638D01*
X120975409Y-79219088D01*
X120986867Y-79217273D01*
X121197086Y-79200728D01*
X121202892Y-79200501D01*
X121254642Y-79200501D01*
X121254658Y-79200498D01*
X169491110Y-79198419D01*
X169495005Y-79198419D01*
X169500811Y-79198646D01*
G37*
%TD.AperFunction*%
%TD*%
M02*
