%TF.GenerationSoftware,KiCad,Pcbnew,8.0.4*%
%TF.CreationDate,2024-08-23T17:35:39+03:00*%
%TF.ProjectId,STM32-Pill,53544d33-322d-4506-996c-6c2e6b696361,rev?*%
%TF.SameCoordinates,Original*%
%TF.FileFunction,Copper,L3,Inr*%
%TF.FilePolarity,Positive*%
%FSLAX46Y46*%
G04 Gerber Fmt 4.6, Leading zero omitted, Abs format (unit mm)*
G04 Created by KiCad (PCBNEW 8.0.4) date 2024-08-23 17:35:39*
%MOMM*%
%LPD*%
G01*
G04 APERTURE LIST*
%TA.AperFunction,ComponentPad*%
%ADD10O,1.700000X1.700000*%
%TD*%
%TA.AperFunction,ComponentPad*%
%ADD11R,1.700000X1.700000*%
%TD*%
%TA.AperFunction,ComponentPad*%
%ADD12O,2.100000X1.000000*%
%TD*%
%TA.AperFunction,ComponentPad*%
%ADD13O,1.800000X1.000000*%
%TD*%
%TA.AperFunction,ViaPad*%
%ADD14C,0.650000*%
%TD*%
%TA.AperFunction,ViaPad*%
%ADD15C,0.900000*%
%TD*%
%TA.AperFunction,ViaPad*%
%ADD16C,0.700000*%
%TD*%
%TA.AperFunction,Conductor*%
%ADD17C,0.150000*%
%TD*%
G04 APERTURE END LIST*
D10*
%TO.N,/PB8*%
%TO.C,J2*%
X134380000Y-104489231D03*
%TO.N,/PB9*%
X136920000Y-104489231D03*
%TO.N,/PA0*%
X139460001Y-104489231D03*
%TO.N,/PA1*%
X142000000Y-104489231D03*
%TO.N,/PA2*%
X144540000Y-104489231D03*
%TO.N,/PA3*%
X147080000Y-104489231D03*
%TO.N,/PA4*%
X149619999Y-104489231D03*
%TO.N,/PA5*%
X152160000Y-104489231D03*
%TO.N,/PA6*%
X154700000Y-104489231D03*
%TO.N,/PA7*%
X157240000Y-104489231D03*
%TO.N,/PA8*%
X159780000Y-104489231D03*
%TO.N,/PA9*%
X162320001Y-104489231D03*
%TO.N,/PE4*%
X164860000Y-104489231D03*
D11*
%TO.N,GND*%
X167400000Y-104489231D03*
%TD*%
D12*
%TO.N,Net-(J1-SHIELD)*%
%TO.C,J1*%
X126415000Y-88480001D03*
D13*
X122235000Y-88480001D03*
D12*
X126415000Y-97120001D03*
D13*
X122235000Y-97120001D03*
%TD*%
D11*
%TO.N,GND*%
%TO.C,J3*%
X134390000Y-81089231D03*
D10*
%TO.N,+3.3V*%
X136930000Y-81089231D03*
%TO.N,/PB7*%
X139469999Y-81089231D03*
%TO.N,/PB6*%
X142010000Y-81089231D03*
%TO.N,/PB5*%
X144550000Y-81089231D03*
%TO.N,/PB4*%
X147090000Y-81089231D03*
%TO.N,/PB3*%
X149630000Y-81089231D03*
%TO.N,/PA14*%
X152170001Y-81089231D03*
%TO.N,/PA13*%
X154710000Y-81089231D03*
%TO.N,/PA10*%
X157250000Y-81089231D03*
%TO.N,/PA15*%
X159790000Y-81089231D03*
%TO.N,/PB2*%
X162329999Y-81089231D03*
%TO.N,/PB1*%
X164870000Y-81089231D03*
%TO.N,/PB0*%
X167410000Y-81089231D03*
%TD*%
D14*
%TO.N,/PE4*%
X153400000Y-87800000D03*
%TO.N,/PB0*%
X155400000Y-87800000D03*
%TO.N,/PB1*%
X154300000Y-87800000D03*
%TO.N,/PB2*%
X158000000Y-92700000D03*
%TO.N,/PA13*%
X147829231Y-90689231D03*
%TO.N,/NRST*%
X153105000Y-97089231D03*
D15*
%TO.N,GND*%
X120800000Y-101200000D03*
X124300000Y-99700000D03*
X126800000Y-105700000D03*
X132700000Y-101900000D03*
D14*
X145500000Y-102116901D03*
D15*
%TO.N,+3.3V*%
X143800000Y-84000000D03*
X143100000Y-101900000D03*
X134350000Y-99750000D03*
%TO.N,GND*%
X154300000Y-93900000D03*
X151500000Y-91100000D03*
D14*
%TO.N,/BOOT0*%
X151795000Y-97089231D03*
D15*
%TO.N,GND*%
X160400000Y-85100000D03*
X166075000Y-85400000D03*
X163100000Y-85400000D03*
X165100000Y-93500000D03*
X162600000Y-90100000D03*
%TO.N,+3.3V*%
X160400000Y-87600000D03*
D16*
%TO.N,GND*%
X164950000Y-95000000D03*
D14*
X157789561Y-102100000D03*
D16*
X128491617Y-92400000D03*
X120900000Y-84300001D03*
X140450001Y-100400000D03*
X128300000Y-84400001D03*
X149250000Y-101235789D03*
X144800000Y-93700000D03*
X140400000Y-83900001D03*
X147200000Y-87800000D03*
X134600000Y-87600000D03*
X128400000Y-89600001D03*
X152050000Y-101235789D03*
X159800000Y-90489231D03*
X128400000Y-96000001D03*
D14*
X152200000Y-87800000D03*
D16*
X161500000Y-87800000D03*
X164950000Y-97039231D03*
D14*
%TO.N,+3.3V*%
X155889561Y-102100000D03*
D15*
X161747099Y-93373177D03*
D16*
X134900000Y-83800001D03*
D15*
X162450000Y-98889231D03*
D14*
%TO.N,/NRST*%
X143700000Y-98600000D03*
%TO.N,/BOOT0*%
X143960439Y-85089231D03*
%TO.N,/PA2*%
X156187500Y-97089231D03*
%TO.N,/PA1*%
X155275000Y-97089231D03*
%TO.N,/PA10*%
X148400000Y-89000000D03*
%TO.N,/PA3*%
X157100000Y-97089231D03*
%TO.N,/PA0*%
X154362500Y-97089231D03*
%TO.N,/PB5*%
X147800000Y-95183332D03*
%TO.N,/PB6*%
X147800000Y-96041665D03*
%TO.N,/PB4*%
X147800000Y-94324999D03*
%TO.N,/PB7*%
X147800000Y-96900000D03*
%TO.N,/PA15*%
X147800000Y-92608333D03*
%TO.N,/PB3*%
X147800000Y-93466666D03*
D16*
%TO.N,GND*%
X135600000Y-97100000D03*
D14*
%TO.N,/PA14*%
X147800000Y-91750000D03*
%TD*%
D17*
%TO.N,/PA3*%
X150052853Y-105534231D02*
X148125000Y-105534231D01*
X148125000Y-105534231D02*
X147080000Y-104489231D01*
X150994143Y-103444231D02*
X150994143Y-104592941D01*
X157100000Y-97338374D02*
X150994143Y-103444231D01*
X150994143Y-104592941D02*
X150052853Y-105534231D01*
X157100000Y-97089231D02*
X157100000Y-97338374D01*
%TO.N,/PA2*%
X145585000Y-103444231D02*
X144540000Y-104489231D01*
X149124730Y-103444231D02*
X145585000Y-103444231D01*
X152275747Y-101780789D02*
X150788172Y-101780789D01*
X156187500Y-97869036D02*
X152275747Y-101780789D01*
X156187500Y-97089231D02*
X156187500Y-97869036D01*
X150788172Y-101780789D02*
X149124730Y-103444231D01*
%TO.N,/PA1*%
X149087123Y-103100000D02*
X143389231Y-103100000D01*
X155097892Y-97089231D02*
X149087123Y-103100000D01*
X143389231Y-103100000D02*
X142000000Y-104489231D01*
X155275000Y-97089231D02*
X155097892Y-97089231D01*
%TO.N,/PA0*%
X141149232Y-102800000D02*
X139460001Y-104489231D01*
X148651731Y-102800000D02*
X141149232Y-102800000D01*
X154362500Y-97089231D02*
X148651731Y-102800000D01*
%TO.N,/PA15*%
X157479231Y-83400000D02*
X159790000Y-81089231D01*
X151270000Y-89138333D02*
X151270000Y-87994608D01*
X151270000Y-87994608D02*
X155864608Y-83400000D01*
X155864608Y-83400000D02*
X157479231Y-83400000D01*
X147800000Y-92608333D02*
X151270000Y-89138333D01*
%TO.N,/PB7*%
X147229253Y-96900000D02*
X147800000Y-96900000D01*
X139469999Y-89140746D02*
X147229253Y-96900000D01*
X139469999Y-81089231D02*
X139469999Y-89140746D01*
%TO.N,/PB6*%
X147800000Y-95929253D02*
X147800000Y-96041665D01*
X142010000Y-90139253D02*
X147800000Y-95929253D01*
X142010000Y-81089231D02*
X142010000Y-90139253D01*
%TO.N,/PB5*%
X144550000Y-91933332D02*
X147800000Y-95183332D01*
X144550000Y-81089231D02*
X144550000Y-91933332D01*
%TO.N,/PB4*%
X146240000Y-81939231D02*
X146240000Y-92764999D01*
X146240000Y-92764999D02*
X147800000Y-94324999D01*
X147090000Y-81089231D02*
X146240000Y-81939231D01*
%TO.N,/PA10*%
X150730000Y-86670000D02*
X148400000Y-89000000D01*
X151287146Y-80044231D02*
X150730000Y-80601377D01*
X156205000Y-80044231D02*
X151287146Y-80044231D01*
X157250000Y-81089231D02*
X156205000Y-80044231D01*
X150730000Y-80601377D02*
X150730000Y-86670000D01*
%TO.N,/PB0*%
X161065769Y-82134231D02*
X155400000Y-87800000D01*
X166365000Y-82134231D02*
X161065769Y-82134231D01*
X167410000Y-81089231D02*
X166365000Y-82134231D01*
%TO.N,/PB3*%
X149630000Y-86970000D02*
X149630000Y-81089231D01*
X147280000Y-89320000D02*
X149630000Y-86970000D01*
X147280000Y-92946666D02*
X147280000Y-89320000D01*
X147800000Y-93466666D02*
X147280000Y-92946666D01*
%TO.N,/PA14*%
X151000000Y-88550000D02*
X151000000Y-82259232D01*
X147800000Y-91750000D02*
X151000000Y-88550000D01*
X151000000Y-82259232D02*
X152170001Y-81089231D01*
%TD*%
M02*
