M48
; DRILL file {KiCad 8.0.4} date 2024-08-23T17:35:37+0300
; FORMAT={-:-/ absolute / metric / decimal}
; #@! TF.CreationDate,2024-08-23T17:35:37+03:00
; #@! TF.GenerationSoftware,Kicad,Pcbnew,8.0.4
; #@! TF.FileFunction,Plated,1,6,PTH
FMAT,2
METRIC
; #@! TA.AperFunction,Plated,PTH,ViaDrill
T1C0.250
; #@! TA.AperFunction,Plated,PTH,ViaDrill
T2C0.300
; #@! TA.AperFunction,Plated,PTH,ViaDrill
T3C0.400
; #@! TA.AperFunction,Plated,PTH,ComponentDrill
T4C0.600
; #@! TA.AperFunction,Plated,PTH,ComponentDrill
T5C1.000
%
G90
G05
T1
X143.7Y-98.6
X143.96Y-85.089
X145.5Y-102.117
X147.8Y-91.75
X147.8Y-92.608
X147.8Y-93.467
X147.8Y-94.325
X147.8Y-95.183
X147.8Y-96.042
X147.8Y-96.9
X147.829Y-90.689
X148.4Y-89.0
X151.795Y-97.089
X152.2Y-87.8
X153.105Y-97.089
X153.4Y-87.8
X154.3Y-87.8
X154.362Y-97.089
X155.275Y-97.089
X155.4Y-87.8
X155.89Y-102.1
X156.188Y-97.089
X157.1Y-97.089
X157.79Y-102.1
X158.0Y-92.7
T2
X120.9Y-84.3
X128.3Y-84.4
X128.4Y-89.6
X128.4Y-96.0
X128.492Y-92.4
X134.6Y-87.6
X134.9Y-83.8
X135.6Y-97.1
X140.4Y-83.9
X140.45Y-100.4
X144.8Y-93.7
X147.2Y-87.8
X149.25Y-101.236
X152.05Y-101.236
X159.8Y-90.489
X161.5Y-87.8
X164.95Y-95.0
X164.95Y-97.039
T3
X120.8Y-101.2
X124.3Y-99.7
X126.8Y-105.7
X132.7Y-101.9
X134.35Y-99.75
X143.1Y-101.9
X143.8Y-84.0
X151.5Y-91.1
X154.3Y-93.9
X160.4Y-85.1
X160.4Y-87.6
X161.747Y-93.373
X162.45Y-98.889
X162.6Y-90.1
X163.1Y-85.4
X165.1Y-93.5
X166.075Y-85.4
T5
X134.38Y-104.489
X134.39Y-81.089
X136.92Y-104.489
X136.93Y-81.089
X139.46Y-104.489
X139.47Y-81.089
X142.0Y-104.489
X142.01Y-81.089
X144.54Y-104.489
X144.55Y-81.089
X147.08Y-104.489
X147.09Y-81.089
X149.62Y-104.489
X149.63Y-81.089
X152.16Y-104.489
X152.17Y-81.089
X154.7Y-104.489
X154.71Y-81.089
X157.24Y-104.489
X157.25Y-81.089
X159.78Y-104.489
X159.79Y-81.089
X162.32Y-104.489
X162.33Y-81.089
X164.86Y-104.489
X164.87Y-81.089
X167.4Y-104.489
X167.41Y-81.089
T4
G00X122.635Y-88.48
M15
G01X121.835Y-88.48
M16
G05
G00X122.635Y-97.12
M15
G01X121.835Y-97.12
M16
G05
G00X126.965Y-88.48
M15
G01X125.865Y-88.48
M16
G05
G00X126.965Y-97.12
M15
G01X125.865Y-97.12
M16
G05
M30
